<svg xmlns="http://www.w3.org/2000/svg" xmlns:xlink="http://www.w3.org/1999/xlink" width="679" zoomAndPan="magnify" viewBox="0 0 509.25 506.250007" height="675" preserveAspectRatio="xMidYMid meet" version="1.0"><defs><clipPath id="c885a4acb4"><path d="M 229 189 L 280 189 L 280 318 L 229 318 Z M 229 189 " clip-rule="nonzero"/></clipPath><clipPath id="12ad723624"><path d="M 245.488281 175.957031 L 331.101562 252.105469 L 262.914062 328.769531 L 177.300781 252.617188 Z M 245.488281 175.957031 " clip-rule="nonzero"/></clipPath><clipPath id="46d1081243"><path d="M 245.488281 175.957031 L 331.101562 252.105469 L 262.914062 328.769531 L 177.300781 252.617188 Z M 245.488281 175.957031 " clip-rule="nonzero"/></clipPath><clipPath id="d6b4097d45"><path d="M 245.488281 175.957031 L 331.101562 252.105469 L 262.914062 328.769531 L 177.300781 252.617188 Z M 245.488281 175.957031 " clip-rule="nonzero"/></clipPath><clipPath id="330138c040"><path d="M 232 192 L 254 192 L 254 317 L 232 317 Z M 232 192 " clip-rule="nonzero"/></clipPath><clipPath id="080c119084"><path d="M 245.488281 175.957031 L 331.101562 252.105469 L 262.914062 328.769531 L 177.300781 252.617188 Z M 245.488281 175.957031 " clip-rule="nonzero"/></clipPath><clipPath id="4b24b8c300"><path d="M 245.488281 175.957031 L 331.101562 252.105469 L 262.914062 328.769531 L 177.300781 252.617188 Z M 245.488281 175.957031 " clip-rule="nonzero"/></clipPath><clipPath id="be18642884"><path d="M 245.488281 175.957031 L 331.101562 252.105469 L 262.914062 328.769531 L 177.300781 252.617188 Z M 245.488281 175.957031 " clip-rule="nonzero"/></clipPath><clipPath id="c43547413d"><path d="M 244 291 L 277 291 L 277 301 L 244 301 Z M 244 291 " clip-rule="nonzero"/></clipPath><clipPath id="f441abec95"><path d="M 245.488281 175.957031 L 331.101562 252.105469 L 262.914062 328.769531 L 177.300781 252.617188 Z M 245.488281 175.957031 " clip-rule="nonzero"/></clipPath><clipPath id="5633d13d50"><path d="M 245.488281 175.957031 L 331.101562 252.105469 L 262.914062 328.769531 L 177.300781 252.617188 Z M 245.488281 175.957031 " clip-rule="nonzero"/></clipPath><clipPath id="63df9915f6"><path d="M 245.488281 175.957031 L 331.101562 252.105469 L 262.914062 328.769531 L 177.300781 252.617188 Z M 245.488281 175.957031 " clip-rule="nonzero"/></clipPath><clipPath id="66fa272c5f"><path d="M 232 213 L 265 213 L 265 223 L 232 223 Z M 232 213 " clip-rule="nonzero"/></clipPath><clipPath id="b9cffb9d17"><path d="M 245.488281 175.957031 L 331.101562 252.105469 L 262.914062 328.769531 L 177.300781 252.617188 Z M 245.488281 175.957031 " clip-rule="nonzero"/></clipPath><clipPath id="7eff6a4b35"><path d="M 245.488281 175.957031 L 331.101562 252.105469 L 262.914062 328.769531 L 177.300781 252.617188 Z M 245.488281 175.957031 " clip-rule="nonzero"/></clipPath><clipPath id="ac6cb1ac29"><path d="M 245.488281 175.957031 L 331.101562 252.105469 L 262.914062 328.769531 L 177.300781 252.617188 Z M 245.488281 175.957031 " clip-rule="nonzero"/></clipPath><clipPath id="f2738508ca"><path d="M 255 267 L 274 267 L 274 278 L 255 278 Z M 255 267 " clip-rule="nonzero"/></clipPath><clipPath id="bc2cd819d7"><path d="M 245.488281 175.957031 L 331.101562 252.105469 L 262.914062 328.769531 L 177.300781 252.617188 Z M 245.488281 175.957031 " clip-rule="nonzero"/></clipPath><clipPath id="f9b238806e"><path d="M 245.488281 175.957031 L 331.101562 252.105469 L 262.914062 328.769531 L 177.300781 252.617188 Z M 245.488281 175.957031 " clip-rule="nonzero"/></clipPath><clipPath id="86ca6f4a83"><path d="M 245.488281 175.957031 L 331.101562 252.105469 L 262.914062 328.769531 L 177.300781 252.617188 Z M 245.488281 175.957031 " clip-rule="nonzero"/></clipPath><clipPath id="9a5cdcef07"><path d="M 247 199 L 262 199 L 262 214 L 247 214 Z M 247 199 " clip-rule="nonzero"/></clipPath><clipPath id="e14017bc54"><path d="M 245.488281 175.957031 L 331.101562 252.105469 L 262.914062 328.769531 L 177.300781 252.617188 Z M 245.488281 175.957031 " clip-rule="nonzero"/></clipPath><clipPath id="cf5433f94a"><path d="M 245.488281 175.957031 L 331.101562 252.105469 L 262.914062 328.769531 L 177.300781 252.617188 Z M 245.488281 175.957031 " clip-rule="nonzero"/></clipPath><clipPath id="24ad11ed8a"><path d="M 245.488281 175.957031 L 331.101562 252.105469 L 262.914062 328.769531 L 177.300781 252.617188 Z M 245.488281 175.957031 " clip-rule="nonzero"/></clipPath><clipPath id="02c64b5b59"><path d="M 237 243 L 248 243 L 248 253 L 237 253 Z M 237 243 " clip-rule="nonzero"/></clipPath><clipPath id="a997f59fc8"><path d="M 245.488281 175.957031 L 331.101562 252.105469 L 262.914062 328.769531 L 177.300781 252.617188 Z M 245.488281 175.957031 " clip-rule="nonzero"/></clipPath><clipPath id="a0920bcc25"><path d="M 245.488281 175.957031 L 331.101562 252.105469 L 262.914062 328.769531 L 177.300781 252.617188 Z M 245.488281 175.957031 " clip-rule="nonzero"/></clipPath><clipPath id="10226075f4"><path d="M 245.488281 175.957031 L 331.101562 252.105469 L 262.914062 328.769531 L 177.300781 252.617188 Z M 245.488281 175.957031 " clip-rule="nonzero"/></clipPath><clipPath id="6455dd5a9f"><path d="M 263 307 L 271 307 L 271 316 L 263 316 Z M 263 307 " clip-rule="nonzero"/></clipPath><clipPath id="207e8df950"><path d="M 245.488281 175.957031 L 331.101562 252.105469 L 262.914062 328.769531 L 177.300781 252.617188 Z M 245.488281 175.957031 " clip-rule="nonzero"/></clipPath><clipPath id="d8245bf4c4"><path d="M 245.488281 175.957031 L 331.101562 252.105469 L 262.914062 328.769531 L 177.300781 252.617188 Z M 245.488281 175.957031 " clip-rule="nonzero"/></clipPath><clipPath id="ed8316bc4d"><path d="M 245.488281 175.957031 L 331.101562 252.105469 L 262.914062 328.769531 L 177.300781 252.617188 Z M 245.488281 175.957031 " clip-rule="nonzero"/></clipPath><clipPath id="a36d0119bb"><path d="M 247 201 L 250 201 L 250 207 L 247 207 Z M 247 201 " clip-rule="nonzero"/></clipPath><clipPath id="079244f54a"><path d="M 245.488281 175.957031 L 331.101562 252.105469 L 262.914062 328.769531 L 177.300781 252.617188 Z M 245.488281 175.957031 " clip-rule="nonzero"/></clipPath><clipPath id="2e270f95cf"><path d="M 245.488281 175.957031 L 331.101562 252.105469 L 262.914062 328.769531 L 177.300781 252.617188 Z M 245.488281 175.957031 " clip-rule="nonzero"/></clipPath><clipPath id="03ad1eb6f2"><path d="M 245.488281 175.957031 L 331.101562 252.105469 L 262.914062 328.769531 L 177.300781 252.617188 Z M 245.488281 175.957031 " clip-rule="nonzero"/></clipPath><clipPath id="6fa7972609"><path d="M 242 239 L 246 239 L 246 245 L 242 245 Z M 242 239 " clip-rule="nonzero"/></clipPath><clipPath id="08c29ab63b"><path d="M 245.488281 175.957031 L 331.101562 252.105469 L 262.914062 328.769531 L 177.300781 252.617188 Z M 245.488281 175.957031 " clip-rule="nonzero"/></clipPath><clipPath id="361e0936df"><path d="M 245.488281 175.957031 L 331.101562 252.105469 L 262.914062 328.769531 L 177.300781 252.617188 Z M 245.488281 175.957031 " clip-rule="nonzero"/></clipPath><clipPath id="d7ebf94af4"><path d="M 245.488281 175.957031 L 331.101562 252.105469 L 262.914062 328.769531 L 177.300781 252.617188 Z M 245.488281 175.957031 " clip-rule="nonzero"/></clipPath><clipPath id="f37df0b9b1"><path d="M 249 239 L 254 239 L 254 243 L 249 243 Z M 249 239 " clip-rule="nonzero"/></clipPath><clipPath id="e80e35caf1"><path d="M 245.488281 175.957031 L 331.101562 252.105469 L 262.914062 328.769531 L 177.300781 252.617188 Z M 245.488281 175.957031 " clip-rule="nonzero"/></clipPath><clipPath id="6f1d1c7548"><path d="M 245.488281 175.957031 L 331.101562 252.105469 L 262.914062 328.769531 L 177.300781 252.617188 Z M 245.488281 175.957031 " clip-rule="nonzero"/></clipPath><clipPath id="0374f3c5d8"><path d="M 245.488281 175.957031 L 331.101562 252.105469 L 262.914062 328.769531 L 177.300781 252.617188 Z M 245.488281 175.957031 " clip-rule="nonzero"/></clipPath><clipPath id="b2a3392e65"><path d="M 254 205 L 260 205 L 260 208 L 254 208 Z M 254 205 " clip-rule="nonzero"/></clipPath><clipPath id="674cde0048"><path d="M 245.488281 175.957031 L 331.101562 252.105469 L 262.914062 328.769531 L 177.300781 252.617188 Z M 245.488281 175.957031 " clip-rule="nonzero"/></clipPath><clipPath id="5cf7a0f16e"><path d="M 245.488281 175.957031 L 331.101562 252.105469 L 262.914062 328.769531 L 177.300781 252.617188 Z M 245.488281 175.957031 " clip-rule="nonzero"/></clipPath><clipPath id="04c53b8c9b"><path d="M 245.488281 175.957031 L 331.101562 252.105469 L 262.914062 328.769531 L 177.300781 252.617188 Z M 245.488281 175.957031 " clip-rule="nonzero"/></clipPath><clipPath id="c85a22b428"><path d="M 254 196 L 260 196 L 260 200 L 254 200 Z M 254 196 " clip-rule="nonzero"/></clipPath><clipPath id="60fecc673d"><path d="M 245.488281 175.957031 L 331.101562 252.105469 L 262.914062 328.769531 L 177.300781 252.617188 Z M 245.488281 175.957031 " clip-rule="nonzero"/></clipPath><clipPath id="cb240d0e75"><path d="M 245.488281 175.957031 L 331.101562 252.105469 L 262.914062 328.769531 L 177.300781 252.617188 Z M 245.488281 175.957031 " clip-rule="nonzero"/></clipPath><clipPath id="4d1ac3a75f"><path d="M 245.488281 175.957031 L 331.101562 252.105469 L 262.914062 328.769531 L 177.300781 252.617188 Z M 245.488281 175.957031 " clip-rule="nonzero"/></clipPath><clipPath id="08679a2499"><path d="M 241 252 L 247 252 L 247 255 L 241 255 Z M 241 252 " clip-rule="nonzero"/></clipPath><clipPath id="31c4cee9ad"><path d="M 245.488281 175.957031 L 331.101562 252.105469 L 262.914062 328.769531 L 177.300781 252.617188 Z M 245.488281 175.957031 " clip-rule="nonzero"/></clipPath><clipPath id="03ed094d9b"><path d="M 245.488281 175.957031 L 331.101562 252.105469 L 262.914062 328.769531 L 177.300781 252.617188 Z M 245.488281 175.957031 " clip-rule="nonzero"/></clipPath><clipPath id="b69631d3f5"><path d="M 245.488281 175.957031 L 331.101562 252.105469 L 262.914062 328.769531 L 177.300781 252.617188 Z M 245.488281 175.957031 " clip-rule="nonzero"/></clipPath><clipPath id="c1d1f6a2a7"><path d="M 268 270 L 272 270 L 272 275 L 268 275 Z M 268 270 " clip-rule="nonzero"/></clipPath><clipPath id="562d26833d"><path d="M 245.488281 175.957031 L 331.101562 252.105469 L 262.914062 328.769531 L 177.300781 252.617188 Z M 245.488281 175.957031 " clip-rule="nonzero"/></clipPath><clipPath id="2532a0b229"><path d="M 245.488281 175.957031 L 331.101562 252.105469 L 262.914062 328.769531 L 177.300781 252.617188 Z M 245.488281 175.957031 " clip-rule="nonzero"/></clipPath><clipPath id="6aef02ca38"><path d="M 245.488281 175.957031 L 331.101562 252.105469 L 262.914062 328.769531 L 177.300781 252.617188 Z M 245.488281 175.957031 " clip-rule="nonzero"/></clipPath><clipPath id="9a8e141a46"><path d="M 261 267 L 265 267 L 265 272 L 261 272 Z M 261 267 " clip-rule="nonzero"/></clipPath><clipPath id="17c68932f8"><path d="M 245.488281 175.957031 L 331.101562 252.105469 L 262.914062 328.769531 L 177.300781 252.617188 Z M 245.488281 175.957031 " clip-rule="nonzero"/></clipPath><clipPath id="ca9a14f449"><path d="M 245.488281 175.957031 L 331.101562 252.105469 L 262.914062 328.769531 L 177.300781 252.617188 Z M 245.488281 175.957031 " clip-rule="nonzero"/></clipPath><clipPath id="1e3cf68452"><path d="M 245.488281 175.957031 L 331.101562 252.105469 L 262.914062 328.769531 L 177.300781 252.617188 Z M 245.488281 175.957031 " clip-rule="nonzero"/></clipPath><clipPath id="1767d7456b"><path d="M 263 277 L 268 277 L 268 281 L 263 281 Z M 263 277 " clip-rule="nonzero"/></clipPath><clipPath id="9861f65be6"><path d="M 245.488281 175.957031 L 331.101562 252.105469 L 262.914062 328.769531 L 177.300781 252.617188 Z M 245.488281 175.957031 " clip-rule="nonzero"/></clipPath><clipPath id="1ba642213c"><path d="M 245.488281 175.957031 L 331.101562 252.105469 L 262.914062 328.769531 L 177.300781 252.617188 Z M 245.488281 175.957031 " clip-rule="nonzero"/></clipPath><clipPath id="915a4a86a8"><path d="M 245.488281 175.957031 L 331.101562 252.105469 L 262.914062 328.769531 L 177.300781 252.617188 Z M 245.488281 175.957031 " clip-rule="nonzero"/></clipPath><clipPath id="bfed54ff27"><path d="M 260 311 L 266 311 L 266 314 L 260 314 Z M 260 311 " clip-rule="nonzero"/></clipPath><clipPath id="59d3104efa"><path d="M 245.488281 175.957031 L 331.101562 252.105469 L 262.914062 328.769531 L 177.300781 252.617188 Z M 245.488281 175.957031 " clip-rule="nonzero"/></clipPath><clipPath id="c7e924004d"><path d="M 245.488281 175.957031 L 331.101562 252.105469 L 262.914062 328.769531 L 177.300781 252.617188 Z M 245.488281 175.957031 " clip-rule="nonzero"/></clipPath><clipPath id="0a1288abe6"><path d="M 245.488281 175.957031 L 331.101562 252.105469 L 262.914062 328.769531 L 177.300781 252.617188 Z M 245.488281 175.957031 " clip-rule="nonzero"/></clipPath><clipPath id="57900d0c5c"><path d="M 255 274 L 261 274 L 261 277 L 255 277 Z M 255 274 " clip-rule="nonzero"/></clipPath><clipPath id="9ca4c447bd"><path d="M 245.488281 175.957031 L 331.101562 252.105469 L 262.914062 328.769531 L 177.300781 252.617188 Z M 245.488281 175.957031 " clip-rule="nonzero"/></clipPath><clipPath id="d9fc680d4b"><path d="M 245.488281 175.957031 L 331.101562 252.105469 L 262.914062 328.769531 L 177.300781 252.617188 Z M 245.488281 175.957031 " clip-rule="nonzero"/></clipPath><clipPath id="e6aadaa9c2"><path d="M 245.488281 175.957031 L 331.101562 252.105469 L 262.914062 328.769531 L 177.300781 252.617188 Z M 245.488281 175.957031 " clip-rule="nonzero"/></clipPath><clipPath id="168a4e3c8f"><path d="M 253 261 L 257 261 L 257 266 L 253 266 Z M 253 261 " clip-rule="nonzero"/></clipPath><clipPath id="1ebcf3c99a"><path d="M 245.488281 175.957031 L 331.101562 252.105469 L 262.914062 328.769531 L 177.300781 252.617188 Z M 245.488281 175.957031 " clip-rule="nonzero"/></clipPath><clipPath id="2266f6684b"><path d="M 245.488281 175.957031 L 331.101562 252.105469 L 262.914062 328.769531 L 177.300781 252.617188 Z M 245.488281 175.957031 " clip-rule="nonzero"/></clipPath><clipPath id="872d254bb4"><path d="M 245.488281 175.957031 L 331.101562 252.105469 L 262.914062 328.769531 L 177.300781 252.617188 Z M 245.488281 175.957031 " clip-rule="nonzero"/></clipPath><clipPath id="e8327a3d19"><path d="M 258 304 L 263 304 L 263 308 L 258 308 Z M 258 304 " clip-rule="nonzero"/></clipPath><clipPath id="8d776c7bb1"><path d="M 245.488281 175.957031 L 331.101562 252.105469 L 262.914062 328.769531 L 177.300781 252.617188 Z M 245.488281 175.957031 " clip-rule="nonzero"/></clipPath><clipPath id="4d457c88b3"><path d="M 245.488281 175.957031 L 331.101562 252.105469 L 262.914062 328.769531 L 177.300781 252.617188 Z M 245.488281 175.957031 " clip-rule="nonzero"/></clipPath><clipPath id="4fc5b18db5"><path d="M 245.488281 175.957031 L 331.101562 252.105469 L 262.914062 328.769531 L 177.300781 252.617188 Z M 245.488281 175.957031 " clip-rule="nonzero"/></clipPath><clipPath id="864d9c866f"><path d="M 269 306 L 273 306 L 273 312 L 269 312 Z M 269 306 " clip-rule="nonzero"/></clipPath><clipPath id="bdadf4f0a7"><path d="M 245.488281 175.957031 L 331.101562 252.105469 L 262.914062 328.769531 L 177.300781 252.617188 Z M 245.488281 175.957031 " clip-rule="nonzero"/></clipPath><clipPath id="d0032adeb7"><path d="M 245.488281 175.957031 L 331.101562 252.105469 L 262.914062 328.769531 L 177.300781 252.617188 Z M 245.488281 175.957031 " clip-rule="nonzero"/></clipPath><clipPath id="534fba5a54"><path d="M 245.488281 175.957031 L 331.101562 252.105469 L 262.914062 328.769531 L 177.300781 252.617188 Z M 245.488281 175.957031 " clip-rule="nonzero"/></clipPath><clipPath id="ef3029aa3f"><path d="M 228 188 L 261 188 L 261 198 L 228 198 Z M 228 188 " clip-rule="nonzero"/></clipPath><clipPath id="b267acdcd4"><path d="M 245.488281 175.957031 L 331.101562 252.105469 L 262.914062 328.769531 L 177.300781 252.617188 Z M 245.488281 175.957031 " clip-rule="nonzero"/></clipPath><clipPath id="795734a0b1"><path d="M 245.488281 175.957031 L 331.101562 252.105469 L 262.914062 328.769531 L 177.300781 252.617188 Z M 245.488281 175.957031 " clip-rule="nonzero"/></clipPath><clipPath id="31f4f27369"><path d="M 245.488281 175.957031 L 331.101562 252.105469 L 262.914062 328.769531 L 177.300781 252.617188 Z M 245.488281 175.957031 " clip-rule="nonzero"/></clipPath><clipPath id="7bc047577d"><path d="M 232 190 L 256 190 L 256 198 L 232 198 Z M 232 190 " clip-rule="nonzero"/></clipPath><clipPath id="c9b8ff4b25"><path d="M 245.488281 175.957031 L 331.101562 252.105469 L 262.914062 328.769531 L 177.300781 252.617188 Z M 245.488281 175.957031 " clip-rule="nonzero"/></clipPath><clipPath id="18d035fe80"><path d="M 245.488281 175.957031 L 331.101562 252.105469 L 262.914062 328.769531 L 177.300781 252.617188 Z M 245.488281 175.957031 " clip-rule="nonzero"/></clipPath><clipPath id="beb803d980"><path d="M 245.488281 175.957031 L 331.101562 252.105469 L 262.914062 328.769531 L 177.300781 252.617188 Z M 245.488281 175.957031 " clip-rule="nonzero"/></clipPath><clipPath id="06b1f7ab93"><path d="M 250 219 L 282 219 L 282 297 L 250 297 Z M 250 219 " clip-rule="nonzero"/></clipPath><clipPath id="4327efc572"><path d="M 245.488281 175.957031 L 331.101562 252.105469 L 262.914062 328.769531 L 177.300781 252.617188 Z M 245.488281 175.957031 " clip-rule="nonzero"/></clipPath><clipPath id="469e657694"><path d="M 245.488281 175.957031 L 331.101562 252.105469 L 262.914062 328.769531 L 177.300781 252.617188 Z M 245.488281 175.957031 " clip-rule="nonzero"/></clipPath><clipPath id="b8a23b87cd"><path d="M 245.488281 175.957031 L 331.101562 252.105469 L 262.914062 328.769531 L 177.300781 252.617188 Z M 245.488281 175.957031 " clip-rule="nonzero"/></clipPath><clipPath id="fcd04669e6"><path d="M 171 44 L 336 44 L 336 468 L 171 468 Z M 171 44 " clip-rule="nonzero"/></clipPath><clipPath id="a9d625484d"><path d="M 225.746094 0.00390625 L 508.328125 251.34375 L 282.371094 505.390625 L -0.214844 254.046875 Z M 225.746094 0.00390625 " clip-rule="nonzero"/></clipPath><clipPath id="d1c77ff6c9"><path d="M 225.746094 0.00390625 L 508.328125 251.34375 L 282.371094 505.390625 L -0.214844 254.046875 Z M 225.746094 0.00390625 " clip-rule="nonzero"/></clipPath><clipPath id="8ee060de87"><path d="M 225.746094 0.00390625 L 508.328125 251.34375 L 282.371094 505.390625 L -0.214844 254.046875 Z M 225.746094 0.00390625 " clip-rule="nonzero"/></clipPath><clipPath id="7d6cdf765b"><path d="M 181 53 L 252 53 L 252 466 L 181 466 Z M 181 53 " clip-rule="nonzero"/></clipPath><clipPath id="c03d145647"><path d="M 225.746094 0.00390625 L 508.328125 251.34375 L 282.371094 505.390625 L -0.214844 254.046875 Z M 225.746094 0.00390625 " clip-rule="nonzero"/></clipPath><clipPath id="8d0fa3abf2"><path d="M 225.746094 0.00390625 L 508.328125 251.34375 L 282.371094 505.390625 L -0.214844 254.046875 Z M 225.746094 0.00390625 " clip-rule="nonzero"/></clipPath><clipPath id="4d68d5d618"><path d="M 225.746094 0.00390625 L 508.328125 251.34375 L 282.371094 505.390625 L -0.214844 254.046875 Z M 225.746094 0.00390625 " clip-rule="nonzero"/></clipPath><clipPath id="83e8b5db65"><path d="M 221 380 L 329 380 L 329 411 L 221 411 Z M 221 380 " clip-rule="nonzero"/></clipPath><clipPath id="df1fdcfd8b"><path d="M 225.746094 0.00390625 L 508.328125 251.34375 L 282.371094 505.390625 L -0.214844 254.046875 Z M 225.746094 0.00390625 " clip-rule="nonzero"/></clipPath><clipPath id="3951dfe062"><path d="M 225.746094 0.00390625 L 508.328125 251.34375 L 282.371094 505.390625 L -0.214844 254.046875 Z M 225.746094 0.00390625 " clip-rule="nonzero"/></clipPath><clipPath id="5084872d59"><path d="M 225.746094 0.00390625 L 508.328125 251.34375 L 282.371094 505.390625 L -0.214844 254.046875 Z M 225.746094 0.00390625 " clip-rule="nonzero"/></clipPath><clipPath id="82459bb776"><path d="M 182 123 L 289 123 L 289 154 L 182 154 Z M 182 123 " clip-rule="nonzero"/></clipPath><clipPath id="52332563f6"><path d="M 225.746094 0.00390625 L 508.328125 251.34375 L 282.371094 505.390625 L -0.214844 254.046875 Z M 225.746094 0.00390625 " clip-rule="nonzero"/></clipPath><clipPath id="9b8f1946e5"><path d="M 225.746094 0.00390625 L 508.328125 251.34375 L 282.371094 505.390625 L -0.214844 254.046875 Z M 225.746094 0.00390625 " clip-rule="nonzero"/></clipPath><clipPath id="4bc69e0903"><path d="M 225.746094 0.00390625 L 508.328125 251.34375 L 282.371094 505.390625 L -0.214844 254.046875 Z M 225.746094 0.00390625 " clip-rule="nonzero"/></clipPath><clipPath id="8f016b49d0"><path d="M 259 303 L 320 303 L 320 337 L 259 337 Z M 259 303 " clip-rule="nonzero"/></clipPath><clipPath id="8330f4194c"><path d="M 225.746094 0.00390625 L 508.328125 251.34375 L 282.371094 505.390625 L -0.214844 254.046875 Z M 225.746094 0.00390625 " clip-rule="nonzero"/></clipPath><clipPath id="43bd07a4a1"><path d="M 225.746094 0.00390625 L 508.328125 251.34375 L 282.371094 505.390625 L -0.214844 254.046875 Z M 225.746094 0.00390625 " clip-rule="nonzero"/></clipPath><clipPath id="236509f1e2"><path d="M 225.746094 0.00390625 L 508.328125 251.34375 L 282.371094 505.390625 L -0.214844 254.046875 Z M 225.746094 0.00390625 " clip-rule="nonzero"/></clipPath><clipPath id="fcdedbfc32"><path d="M 231 77 L 280 77 L 280 126 L 231 126 Z M 231 77 " clip-rule="nonzero"/></clipPath><clipPath id="4a0c61b22b"><path d="M 225.746094 0.00390625 L 508.328125 251.34375 L 282.371094 505.390625 L -0.214844 254.046875 Z M 225.746094 0.00390625 " clip-rule="nonzero"/></clipPath><clipPath id="c727191cdf"><path d="M 225.746094 0.00390625 L 508.328125 251.34375 L 282.371094 505.390625 L -0.214844 254.046875 Z M 225.746094 0.00390625 " clip-rule="nonzero"/></clipPath><clipPath id="2ab8f4fdbd"><path d="M 225.746094 0.00390625 L 508.328125 251.34375 L 282.371094 505.390625 L -0.214844 254.046875 Z M 225.746094 0.00390625 " clip-rule="nonzero"/></clipPath><clipPath id="6ece812196"><path d="M 200 222 L 234 222 L 234 255 L 200 255 Z M 200 222 " clip-rule="nonzero"/></clipPath><clipPath id="dd7ebbd3d4"><path d="M 225.746094 0.00390625 L 508.328125 251.34375 L 282.371094 505.390625 L -0.214844 254.046875 Z M 225.746094 0.00390625 " clip-rule="nonzero"/></clipPath><clipPath id="2706ef6ab3"><path d="M 225.746094 0.00390625 L 508.328125 251.34375 L 282.371094 505.390625 L -0.214844 254.046875 Z M 225.746094 0.00390625 " clip-rule="nonzero"/></clipPath><clipPath id="6b4e00950f"><path d="M 225.746094 0.00390625 L 508.328125 251.34375 L 282.371094 505.390625 L -0.214844 254.046875 Z M 225.746094 0.00390625 " clip-rule="nonzero"/></clipPath><clipPath id="a2496bdcb6"><path d="M 284 436 L 308 436 L 308 462 L 284 462 Z M 284 436 " clip-rule="nonzero"/></clipPath><clipPath id="cb409c1714"><path d="M 225.746094 0.00390625 L 508.328125 251.34375 L 282.371094 505.390625 L -0.214844 254.046875 Z M 225.746094 0.00390625 " clip-rule="nonzero"/></clipPath><clipPath id="7a1233d692"><path d="M 225.746094 0.00390625 L 508.328125 251.34375 L 282.371094 505.390625 L -0.214844 254.046875 Z M 225.746094 0.00390625 " clip-rule="nonzero"/></clipPath><clipPath id="8b12bf0b90"><path d="M 225.746094 0.00390625 L 508.328125 251.34375 L 282.371094 505.390625 L -0.214844 254.046875 Z M 225.746094 0.00390625 " clip-rule="nonzero"/></clipPath><clipPath id="d9d04e48b6"><path d="M 231 85 L 240 85 L 240 102 L 231 102 Z M 231 85 " clip-rule="nonzero"/></clipPath><clipPath id="9cdd6ffdcf"><path d="M 225.746094 0.00390625 L 508.328125 251.34375 L 282.371094 505.390625 L -0.214844 254.046875 Z M 225.746094 0.00390625 " clip-rule="nonzero"/></clipPath><clipPath id="6eddf593a7"><path d="M 225.746094 0.00390625 L 508.328125 251.34375 L 282.371094 505.390625 L -0.214844 254.046875 Z M 225.746094 0.00390625 " clip-rule="nonzero"/></clipPath><clipPath id="346a188e46"><path d="M 225.746094 0.00390625 L 508.328125 251.34375 L 282.371094 505.390625 L -0.214844 254.046875 Z M 225.746094 0.00390625 " clip-rule="nonzero"/></clipPath><clipPath id="c64358fd0c"><path d="M 216 209 L 225 209 L 225 226 L 216 226 Z M 216 209 " clip-rule="nonzero"/></clipPath><clipPath id="f483b317b0"><path d="M 225.746094 0.00390625 L 508.328125 251.34375 L 282.371094 505.390625 L -0.214844 254.046875 Z M 225.746094 0.00390625 " clip-rule="nonzero"/></clipPath><clipPath id="eb45109b02"><path d="M 225.746094 0.00390625 L 508.328125 251.34375 L 282.371094 505.390625 L -0.214844 254.046875 Z M 225.746094 0.00390625 " clip-rule="nonzero"/></clipPath><clipPath id="18a74b3bb4"><path d="M 225.746094 0.00390625 L 508.328125 251.34375 L 282.371094 505.390625 L -0.214844 254.046875 Z M 225.746094 0.00390625 " clip-rule="nonzero"/></clipPath><clipPath id="ea9545fb3e"><path d="M 238 209 L 252 209 L 252 221 L 238 221 Z M 238 209 " clip-rule="nonzero"/></clipPath><clipPath id="6d6d3f1b91"><path d="M 225.746094 0.00390625 L 508.328125 251.34375 L 282.371094 505.390625 L -0.214844 254.046875 Z M 225.746094 0.00390625 " clip-rule="nonzero"/></clipPath><clipPath id="1df9d8d26e"><path d="M 225.746094 0.00390625 L 508.328125 251.34375 L 282.371094 505.390625 L -0.214844 254.046875 Z M 225.746094 0.00390625 " clip-rule="nonzero"/></clipPath><clipPath id="9f99ca875b"><path d="M 225.746094 0.00390625 L 508.328125 251.34375 L 282.371094 505.390625 L -0.214844 254.046875 Z M 225.746094 0.00390625 " clip-rule="nonzero"/></clipPath><clipPath id="5172fd79b3"><path d="M 254 97 L 272 97 L 272 106 L 254 106 Z M 254 97 " clip-rule="nonzero"/></clipPath><clipPath id="480ee06349"><path d="M 225.746094 0.00390625 L 508.328125 251.34375 L 282.371094 505.390625 L -0.214844 254.046875 Z M 225.746094 0.00390625 " clip-rule="nonzero"/></clipPath><clipPath id="339b2fb5d4"><path d="M 225.746094 0.00390625 L 508.328125 251.34375 L 282.371094 505.390625 L -0.214844 254.046875 Z M 225.746094 0.00390625 " clip-rule="nonzero"/></clipPath><clipPath id="8d6c6630d0"><path d="M 225.746094 0.00390625 L 508.328125 251.34375 L 282.371094 505.390625 L -0.214844 254.046875 Z M 225.746094 0.00390625 " clip-rule="nonzero"/></clipPath><clipPath id="1f1ace3cd8"><path d="M 254 69 L 272 69 L 272 77 L 254 77 Z M 254 69 " clip-rule="nonzero"/></clipPath><clipPath id="9c63de2e76"><path d="M 225.746094 0.00390625 L 508.328125 251.34375 L 282.371094 505.390625 L -0.214844 254.046875 Z M 225.746094 0.00390625 " clip-rule="nonzero"/></clipPath><clipPath id="d81f2bda8e"><path d="M 225.746094 0.00390625 L 508.328125 251.34375 L 282.371094 505.390625 L -0.214844 254.046875 Z M 225.746094 0.00390625 " clip-rule="nonzero"/></clipPath><clipPath id="c4d08265a4"><path d="M 225.746094 0.00390625 L 508.328125 251.34375 L 282.371094 505.390625 L -0.214844 254.046875 Z M 225.746094 0.00390625 " clip-rule="nonzero"/></clipPath><clipPath id="22b6df2deb"><path d="M 213 252 L 230 252 L 230 261 L 213 261 Z M 213 252 " clip-rule="nonzero"/></clipPath><clipPath id="e5fde5efb8"><path d="M 225.746094 0.00390625 L 508.328125 251.34375 L 282.371094 505.390625 L -0.214844 254.046875 Z M 225.746094 0.00390625 " clip-rule="nonzero"/></clipPath><clipPath id="3656a8407d"><path d="M 225.746094 0.00390625 L 508.328125 251.34375 L 282.371094 505.390625 L -0.214844 254.046875 Z M 225.746094 0.00390625 " clip-rule="nonzero"/></clipPath><clipPath id="f5d6cd327f"><path d="M 225.746094 0.00390625 L 508.328125 251.34375 L 282.371094 505.390625 L -0.214844 254.046875 Z M 225.746094 0.00390625 " clip-rule="nonzero"/></clipPath><clipPath id="16d08688f1"><path d="M 301 313 L 313 313 L 313 327 L 301 327 Z M 301 313 " clip-rule="nonzero"/></clipPath><clipPath id="413089affc"><path d="M 225.746094 0.00390625 L 508.328125 251.34375 L 282.371094 505.390625 L -0.214844 254.046875 Z M 225.746094 0.00390625 " clip-rule="nonzero"/></clipPath><clipPath id="11940bf0ca"><path d="M 225.746094 0.00390625 L 508.328125 251.34375 L 282.371094 505.390625 L -0.214844 254.046875 Z M 225.746094 0.00390625 " clip-rule="nonzero"/></clipPath><clipPath id="228bff3bb0"><path d="M 225.746094 0.00390625 L 508.328125 251.34375 L 282.371094 505.390625 L -0.214844 254.046875 Z M 225.746094 0.00390625 " clip-rule="nonzero"/></clipPath><clipPath id="62e1a201b8"><path d="M 277 304 L 289 304 L 289 317 L 277 317 Z M 277 304 " clip-rule="nonzero"/></clipPath><clipPath id="2ed9cf3181"><path d="M 225.746094 0.00390625 L 508.328125 251.34375 L 282.371094 505.390625 L -0.214844 254.046875 Z M 225.746094 0.00390625 " clip-rule="nonzero"/></clipPath><clipPath id="5aecea40f5"><path d="M 225.746094 0.00390625 L 508.328125 251.34375 L 282.371094 505.390625 L -0.214844 254.046875 Z M 225.746094 0.00390625 " clip-rule="nonzero"/></clipPath><clipPath id="67a08ee4a0"><path d="M 225.746094 0.00390625 L 508.328125 251.34375 L 282.371094 505.390625 L -0.214844 254.046875 Z M 225.746094 0.00390625 " clip-rule="nonzero"/></clipPath><clipPath id="94c5290c19"><path d="M 283 336 L 299 336 L 299 346 L 283 346 Z M 283 336 " clip-rule="nonzero"/></clipPath><clipPath id="f76728cfac"><path d="M 225.746094 0.00390625 L 508.328125 251.34375 L 282.371094 505.390625 L -0.214844 254.046875 Z M 225.746094 0.00390625 " clip-rule="nonzero"/></clipPath><clipPath id="d03e4e4b85"><path d="M 225.746094 0.00390625 L 508.328125 251.34375 L 282.371094 505.390625 L -0.214844 254.046875 Z M 225.746094 0.00390625 " clip-rule="nonzero"/></clipPath><clipPath id="fe60518d83"><path d="M 225.746094 0.00390625 L 508.328125 251.34375 L 282.371094 505.390625 L -0.214844 254.046875 Z M 225.746094 0.00390625 " clip-rule="nonzero"/></clipPath><clipPath id="1d589a7fb5"><path d="M 274 447 L 291 447 L 291 457 L 274 457 Z M 274 447 " clip-rule="nonzero"/></clipPath><clipPath id="7830dd5a21"><path d="M 225.746094 0.00390625 L 508.328125 251.34375 L 282.371094 505.390625 L -0.214844 254.046875 Z M 225.746094 0.00390625 " clip-rule="nonzero"/></clipPath><clipPath id="b7ee8d84f2"><path d="M 225.746094 0.00390625 L 508.328125 251.34375 L 282.371094 505.390625 L -0.214844 254.046875 Z M 225.746094 0.00390625 " clip-rule="nonzero"/></clipPath><clipPath id="a9012ac221"><path d="M 225.746094 0.00390625 L 508.328125 251.34375 L 282.371094 505.390625 L -0.214844 254.046875 Z M 225.746094 0.00390625 " clip-rule="nonzero"/></clipPath><clipPath id="3dc9306a37"><path d="M 259 325 L 275 325 L 275 334 L 259 334 Z M 259 325 " clip-rule="nonzero"/></clipPath><clipPath id="315a9ad6e4"><path d="M 225.746094 0.00390625 L 508.328125 251.34375 L 282.371094 505.390625 L -0.214844 254.046875 Z M 225.746094 0.00390625 " clip-rule="nonzero"/></clipPath><clipPath id="a03b3dec1a"><path d="M 225.746094 0.00390625 L 508.328125 251.34375 L 282.371094 505.390625 L -0.214844 254.046875 Z M 225.746094 0.00390625 " clip-rule="nonzero"/></clipPath><clipPath id="9e5c1809b6"><path d="M 225.746094 0.00390625 L 508.328125 251.34375 L 282.371094 505.390625 L -0.214844 254.046875 Z M 225.746094 0.00390625 " clip-rule="nonzero"/></clipPath><clipPath id="f8a356dcd0"><path d="M 252 281 L 261 281 L 261 298 L 252 298 Z M 252 281 " clip-rule="nonzero"/></clipPath><clipPath id="04095e0ba2"><path d="M 225.746094 0.00390625 L 508.328125 251.34375 L 282.371094 505.390625 L -0.214844 254.046875 Z M 225.746094 0.00390625 " clip-rule="nonzero"/></clipPath><clipPath id="084c344631"><path d="M 225.746094 0.00390625 L 508.328125 251.34375 L 282.371094 505.390625 L -0.214844 254.046875 Z M 225.746094 0.00390625 " clip-rule="nonzero"/></clipPath><clipPath id="71ac439951"><path d="M 225.746094 0.00390625 L 508.328125 251.34375 L 282.371094 505.390625 L -0.214844 254.046875 Z M 225.746094 0.00390625 " clip-rule="nonzero"/></clipPath><clipPath id="bbbfe8c429"><path d="M 266 423 L 281 423 L 281 434 L 266 434 Z M 266 423 " clip-rule="nonzero"/></clipPath><clipPath id="1a3a688fce"><path d="M 225.746094 0.00390625 L 508.328125 251.34375 L 282.371094 505.390625 L -0.214844 254.046875 Z M 225.746094 0.00390625 " clip-rule="nonzero"/></clipPath><clipPath id="d776e3b4a1"><path d="M 225.746094 0.00390625 L 508.328125 251.34375 L 282.371094 505.390625 L -0.214844 254.046875 Z M 225.746094 0.00390625 " clip-rule="nonzero"/></clipPath><clipPath id="bfbe10b63d"><path d="M 225.746094 0.00390625 L 508.328125 251.34375 L 282.371094 505.390625 L -0.214844 254.046875 Z M 225.746094 0.00390625 " clip-rule="nonzero"/></clipPath><clipPath id="dce11ddc24"><path d="M 305 431 L 314 431 L 314 448 L 305 448 Z M 305 431 " clip-rule="nonzero"/></clipPath><clipPath id="4a5499ae3c"><path d="M 225.746094 0.00390625 L 508.328125 251.34375 L 282.371094 505.390625 L -0.214844 254.046875 Z M 225.746094 0.00390625 " clip-rule="nonzero"/></clipPath><clipPath id="faa0b04fa7"><path d="M 225.746094 0.00390625 L 508.328125 251.34375 L 282.371094 505.390625 L -0.214844 254.046875 Z M 225.746094 0.00390625 " clip-rule="nonzero"/></clipPath><clipPath id="f2ef59cc2a"><path d="M 225.746094 0.00390625 L 508.328125 251.34375 L 282.371094 505.390625 L -0.214844 254.046875 Z M 225.746094 0.00390625 " clip-rule="nonzero"/></clipPath><clipPath id="7bafdf582a"><path d="M 171 42 L 275 42 L 275 73 L 171 73 Z M 171 42 " clip-rule="nonzero"/></clipPath><clipPath id="9124bcb9bc"><path d="M 225.746094 0.00390625 L 508.328125 251.34375 L 282.371094 505.390625 L -0.214844 254.046875 Z M 225.746094 0.00390625 " clip-rule="nonzero"/></clipPath><clipPath id="fa34232315"><path d="M 225.746094 0.00390625 L 508.328125 251.34375 L 282.371094 505.390625 L -0.214844 254.046875 Z M 225.746094 0.00390625 " clip-rule="nonzero"/></clipPath><clipPath id="bb0347750c"><path d="M 225.746094 0.00390625 L 508.328125 251.34375 L 282.371094 505.390625 L -0.214844 254.046875 Z M 225.746094 0.00390625 " clip-rule="nonzero"/></clipPath><clipPath id="cf4215474d"><path d="M 183 48 L 259 48 L 259 72 L 183 72 Z M 183 48 " clip-rule="nonzero"/></clipPath><clipPath id="1ad7b01d92"><path d="M 225.746094 0.00390625 L 508.328125 251.34375 L 282.371094 505.390625 L -0.214844 254.046875 Z M 225.746094 0.00390625 " clip-rule="nonzero"/></clipPath><clipPath id="c84ea5921c"><path d="M 225.746094 0.00390625 L 508.328125 251.34375 L 282.371094 505.390625 L -0.214844 254.046875 Z M 225.746094 0.00390625 " clip-rule="nonzero"/></clipPath><clipPath id="56a881467c"><path d="M 225.746094 0.00390625 L 508.328125 251.34375 L 282.371094 505.390625 L -0.214844 254.046875 Z M 225.746094 0.00390625 " clip-rule="nonzero"/></clipPath><clipPath id="116a34d7bd"><path d="M 241 144 L 344 144 L 344 400 L 241 400 Z M 241 144 " clip-rule="nonzero"/></clipPath><clipPath id="59c364f9c7"><path d="M 225.746094 0.00390625 L 508.328125 251.34375 L 282.371094 505.390625 L -0.214844 254.046875 Z M 225.746094 0.00390625 " clip-rule="nonzero"/></clipPath><clipPath id="da0b6c7ff5"><path d="M 225.746094 0.00390625 L 508.328125 251.34375 L 282.371094 505.390625 L -0.214844 254.046875 Z M 225.746094 0.00390625 " clip-rule="nonzero"/></clipPath><clipPath id="fd0e63bf2d"><path d="M 225.746094 0.00390625 L 508.328125 251.34375 L 282.371094 505.390625 L -0.214844 254.046875 Z M 225.746094 0.00390625 " clip-rule="nonzero"/></clipPath></defs><g clip-path="url(#c885a4acb4)"><g clip-path="url(#12ad723624)"><g clip-path="url(#46d1081243)"><g clip-path="url(#d6b4097d45)"><path fill="#f7e7da" d="M 260.324219 190.945312 C 260.328125 190.960938 260.332031 190.972656 260.332031 190.988281 C 260.332031 190.992188 260.332031 190.992188 260.335938 190.992188 C 260.335938 191 260.332031 191.003906 260.335938 191.007812 L 261.644531 199.382812 L 261.777344 200.207031 L 263.839844 213.378906 L 264.703125 218.894531 L 268.628906 243.984375 C 268.632812 243.980469 268.632812 243.984375 268.632812 243.984375 L 273.777344 276.84375 L 273.914062 277.707031 L 275.363281 286.960938 C 275.367188 286.957031 275.363281 286.960938 275.363281 286.960938 L 276.019531 291.152344 L 276.871094 296.582031 L 279.070312 310.609375 C 277.085938 312.105469 274.207031 313.9375 270.453125 315.308594 C 270.191406 315.40625 269.925781 315.5 269.65625 315.589844 C 269.214844 315.734375 268.761719 315.878906 268.296875 316.011719 C 262.621094 317.640625 257.449219 317.453125 253.542969 316.804688 C 253.234375 316.753906 252.929688 316.703125 252.636719 316.644531 C 250.601562 316.253906 248.96875 315.757812 247.863281 315.382812 L 245.429688 299.847656 L 244.539062 294.179688 L 238.078125 252.914062 L 237.945312 252.066406 L 233.265625 222.1875 L 232.363281 216.421875 L 229.171875 196.035156 L 229.121094 195.71875 C 230.007812 195.125 231.089844 194.453125 232.363281 193.773438 C 232.621094 193.636719 232.882812 193.5 233.15625 193.363281 C 235.589844 192.140625 238.632812 190.945312 242.230469 190.199219 C 250.300781 188.519531 256.960938 189.964844 260.324219 190.945312 Z M 260.324219 190.945312 " fill-opacity="1" fill-rule="nonzero"/></g></g></g></g><g clip-path="url(#330138c040)"><g clip-path="url(#080c119084)"><g clip-path="url(#4b24b8c300)"><g clip-path="url(#be18642884)"><path fill="#edc9ae" d="M 233.015625 192.203125 C 233.0625 192.589844 233.109375 192.976562 233.15625 193.363281 C 233.242188 194.046875 233.324219 194.726562 233.410156 195.410156 C 233.503906 196.167969 233.59375 196.925781 233.691406 197.683594 C 233.765625 198.273438 233.839844 198.863281 233.914062 199.453125 C 234.636719 205.179688 235.390625 210.902344 236.183594 216.621094 C 236.265625 217.246094 236.351562 217.871094 236.441406 218.496094 C 236.625 219.800781 236.808594 221.109375 236.996094 222.414062 C 238.3125 231.707031 239.710938 240.992188 241.1875 250.265625 C 241.234375 250.582031 241.289062 250.898438 241.339844 251.21875 C 242.320312 257.402344 243.339844 263.582031 244.386719 269.757812 C 245.78125 277.980469 247.203125 286.207031 248.777344 294.40625 C 249.140625 296.308594 249.511719 298.214844 249.894531 300.117188 C 251.015625 305.699219 252.21875 311.265625 253.542969 316.804688 C 253.234375 316.753906 252.929688 316.703125 252.636719 316.644531 C 251.335938 311.144531 250.144531 305.621094 249.035156 300.082031 C 248.65625 298.183594 248.285156 296.277344 247.921875 294.371094 C 247.792969 293.699219 247.664062 293.027344 247.535156 292.351562 C 244.996094 278.859375 242.710938 265.3125 240.566406 251.746094 C 240.515625 251.445312 240.46875 251.140625 240.417969 250.835938 C 239.917969 247.644531 239.421875 244.453125 238.933594 241.261719 C 237.964844 234.96875 237.035156 228.675781 236.144531 222.375 C 235.871094 220.445312 235.601562 218.519531 235.332031 216.589844 C 234.457031 210.253906 233.625 203.910156 232.832031 197.5625 C 232.675781 196.300781 232.515625 195.039062 232.363281 193.773438 L 232.214844 192.5625 C 232.46875 192.441406 232.738281 192.320312 233.015625 192.203125 Z M 233.015625 192.203125 " fill-opacity="1" fill-rule="nonzero"/></g></g></g></g><g clip-path="url(#c43547413d)"><g clip-path="url(#f441abec95)"><g clip-path="url(#5633d13d50)"><g clip-path="url(#63df9915f6)"><path fill="#471c0e" d="M 276.019531 291.152344 L 276.871094 296.578125 C 271.824219 298.378906 261.128906 301.152344 245.429688 299.847656 L 244.542969 294.179688 C 249.265625 294.53125 264.835938 295.289062 276.019531 291.152344 Z M 276.019531 291.152344 " fill-opacity="1" fill-rule="nonzero"/></g></g></g></g><g clip-path="url(#66fa272c5f)"><g clip-path="url(#b9cffb9d17)"><g clip-path="url(#7eff6a4b35)"><g clip-path="url(#ac6cb1ac29)"><path fill="#471c0e" d="M 263.839844 213.378906 L 264.703125 218.894531 C 259.550781 220.710938 248.863281 223.429688 233.265625 222.1875 L 232.363281 216.421875 C 237.53125 216.785156 252.757812 217.417969 263.839844 213.378906 Z M 263.839844 213.378906 " fill-opacity="1" fill-rule="nonzero"/></g></g></g></g><g clip-path="url(#f2738508ca)"><g clip-path="url(#bc2cd819d7)"><g clip-path="url(#f9b238806e)"><g clip-path="url(#86ca6f4a83)"><path fill="#c29865" d="M 273.777344 276.84375 L 273.914062 277.707031 C 272.917969 277.585938 271.925781 277.449219 270.933594 277.285156 C 265.097656 276.320312 258.8125 273.976562 255.828125 268.472656 C 255.566406 267.996094 256.277344 267.546875 256.539062 268.023438 C 257.292969 269.414062 258.300781 270.632812 259.492188 271.671875 C 263.460938 275.132812 268.667969 276.203125 273.777344 276.84375 Z M 273.777344 276.84375 " fill-opacity="1" fill-rule="nonzero"/></g></g></g></g><g clip-path="url(#9a5cdcef07)"><g clip-path="url(#e14017bc54)"><g clip-path="url(#cf5433f94a)"><g clip-path="url(#24ad11ed8a)"><path fill="#c29865" d="M 261.644531 199.382812 L 261.777344 200.207031 C 261.28125 200.308594 260.796875 200.441406 260.320312 200.597656 C 254.28125 202.601562 250.71875 208.242188 247.960938 213.613281 C 247.714844 214.09375 246.972656 213.695312 247.21875 213.214844 C 248.046875 211.601562 248.914062 210.007812 249.902344 208.484375 C 251.640625 205.789062 253.761719 203.289062 256.476562 201.53125 C 258.0625 200.507812 259.8125 199.753906 261.644531 199.382812 Z M 261.644531 199.382812 " fill-opacity="1" fill-rule="nonzero"/></g></g></g></g><g clip-path="url(#02c64b5b59)"><g clip-path="url(#a997f59fc8)"><g clip-path="url(#a0920bcc25)"><g clip-path="url(#10226075f4)"><path fill="#c29865" d="M 247.722656 243.953125 C 246.882812 244.972656 246.042969 245.992188 245.203125 247.011719 C 243.996094 248.472656 242.851562 250.0625 241.339844 251.21875 C 241.117188 251.386719 240.890625 251.546875 240.648438 251.695312 C 240.621094 251.710938 240.59375 251.730469 240.566406 251.746094 C 239.777344 252.226562 238.941406 252.601562 238.078125 252.914062 L 237.945312 252.066406 C 238.816406 251.738281 239.652344 251.34375 240.417969 250.835938 C 240.683594 250.660156 240.941406 250.472656 241.1875 250.265625 C 241.34375 250.136719 241.5 250.003906 241.644531 249.859375 C 242.640625 248.894531 243.484375 247.769531 244.363281 246.707031 C 245.277344 245.597656 246.1875 244.488281 247.105469 243.378906 C 247.449219 242.960938 248.066406 243.539062 247.722656 243.953125 Z M 247.722656 243.953125 " fill-opacity="1" fill-rule="nonzero"/></g></g></g></g><g clip-path="url(#6455dd5a9f)"><g clip-path="url(#207e8df950)"><g clip-path="url(#d8245bf4c4)"><g clip-path="url(#ed8316bc4d)"><path fill="#c29865" d="M 270.453125 315.308594 C 270.191406 315.40625 269.925781 315.5 269.65625 315.589844 C 268.777344 312.652344 266.105469 310.429688 263.695312 308.628906 C 263.257812 308.300781 263.835938 307.691406 264.265625 308.011719 C 266.792969 309.894531 269.511719 312.25 270.453125 315.308594 Z M 270.453125 315.308594 " fill-opacity="1" fill-rule="nonzero"/></g></g></g></g><g clip-path="url(#a36d0119bb)"><g clip-path="url(#079244f54a)"><g clip-path="url(#2e270f95cf)"><g clip-path="url(#03ad1eb6f2)"><path fill="#c29865" d="M 248.277344 201.765625 C 248.277344 201.765625 245.714844 204.824219 248.476562 206.746094 C 248.476562 206.746094 251.125 205.488281 248.277344 201.765625 Z M 248.277344 201.765625 " fill-opacity="1" fill-rule="nonzero"/></g></g></g></g><g clip-path="url(#6fa7972609)"><g clip-path="url(#08c29ab63b)"><g clip-path="url(#361e0936df)"><g clip-path="url(#d7ebf94af4)"><path fill="#c29865" d="M 243.953125 239.285156 C 243.953125 239.285156 241.394531 242.34375 244.152344 244.265625 C 244.152344 244.265625 246.804688 243.007812 243.953125 239.285156 Z M 243.953125 239.285156 " fill-opacity="1" fill-rule="nonzero"/></g></g></g></g><g clip-path="url(#f37df0b9b1)"><g clip-path="url(#e80e35caf1)"><g clip-path="url(#6f1d1c7548)"><g clip-path="url(#0374f3c5d8)"><path fill="#c29865" d="M 253.367188 239.308594 C 253.367188 239.308594 249.378906 239.003906 249.4375 242.359375 C 249.4375 242.359375 252.011719 243.78125 253.367188 239.308594 Z M 253.367188 239.308594 " fill-opacity="1" fill-rule="nonzero"/></g></g></g></g><g clip-path="url(#b2a3392e65)"><g clip-path="url(#674cde0048)"><g clip-path="url(#5cf7a0f16e)"><g clip-path="url(#04c53b8c9b)"><path fill="#c29865" d="M 259.363281 206.433594 C 259.363281 206.433594 256.265625 203.894531 254.382812 206.664062 C 254.382812 206.664062 255.675781 209.304688 259.363281 206.433594 Z M 259.363281 206.433594 " fill-opacity="1" fill-rule="nonzero"/></g></g></g></g><g clip-path="url(#c85a22b428)"><g clip-path="url(#60fecc673d)"><g clip-path="url(#cb240d0e75)"><g clip-path="url(#4d1ac3a75f)"><path fill="#c29865" d="M 259.292969 197.902344 C 259.292969 197.902344 256.195312 195.363281 254.3125 198.132812 C 254.3125 198.132812 255.605469 200.773438 259.292969 197.902344 Z M 259.292969 197.902344 " fill-opacity="1" fill-rule="nonzero"/></g></g></g></g><g clip-path="url(#08679a2499)"><g clip-path="url(#31c4cee9ad)"><g clip-path="url(#03ed094d9b)"><g clip-path="url(#b69631d3f5)"><path fill="#c29865" d="M 246.835938 253.269531 C 246.835938 253.269531 243.738281 250.730469 241.855469 253.5 C 241.855469 253.5 243.148438 256.144531 246.835938 253.269531 Z M 246.835938 253.269531 " fill-opacity="1" fill-rule="nonzero"/></g></g></g></g><g clip-path="url(#c1d1f6a2a7)"><g clip-path="url(#562d26833d)"><g clip-path="url(#2532a0b229)"><g clip-path="url(#6aef02ca38)"><path fill="#c29865" d="M 268.597656 270.867188 C 268.597656 270.867188 268.359375 274.855469 271.710938 274.769531 C 271.710938 274.769531 273.097656 272.183594 268.597656 270.867188 Z M 268.597656 270.867188 " fill-opacity="1" fill-rule="nonzero"/></g></g></g></g><g clip-path="url(#9a8e141a46)"><g clip-path="url(#17c68932f8)"><g clip-path="url(#ca9a14f449)"><g clip-path="url(#1e3cf68452)"><path fill="#c29865" d="M 261.210938 267.890625 C 261.210938 267.890625 260.96875 271.878906 264.324219 271.792969 C 264.324219 271.792969 265.707031 269.207031 261.210938 267.890625 Z M 261.210938 267.890625 " fill-opacity="1" fill-rule="nonzero"/></g></g></g></g><g clip-path="url(#1767d7456b)"><g clip-path="url(#9861f65be6)"><g clip-path="url(#1ba642213c)"><g clip-path="url(#915a4a86a8)"><path fill="#c29865" d="M 263.125 280.101562 C 263.125 280.101562 266.824219 281.625 267.8125 278.421875 C 267.8125 278.421875 265.804688 276.273438 263.125 280.101562 Z M 263.125 280.101562 " fill-opacity="1" fill-rule="nonzero"/></g></g></g></g><g clip-path="url(#bfed54ff27)"><g clip-path="url(#59d3104efa)"><g clip-path="url(#c7e924004d)"><g clip-path="url(#0a1288abe6)"><path fill="#c29865" d="M 260.640625 313.578125 C 260.640625 313.578125 264.34375 315.101562 265.332031 311.902344 C 265.332031 311.902344 263.320312 309.75 260.640625 313.578125 Z M 260.640625 313.578125 " fill-opacity="1" fill-rule="nonzero"/></g></g></g></g><g clip-path="url(#57900d0c5c)"><g clip-path="url(#9ca4c447bd)"><g clip-path="url(#d9fc680d4b)"><g clip-path="url(#e6aadaa9c2)"><path fill="#c29865" d="M 255.816406 276.542969 C 255.816406 276.542969 259.519531 278.066406 260.503906 274.863281 C 260.503906 274.863281 258.496094 272.710938 255.816406 276.542969 Z M 255.816406 276.542969 " fill-opacity="1" fill-rule="nonzero"/></g></g></g></g><g clip-path="url(#168a4e3c8f)"><g clip-path="url(#1ebcf3c99a)"><g clip-path="url(#2266f6684b)"><g clip-path="url(#872d254bb4)"><path fill="#c29865" d="M 254.460938 261.039062 C 254.460938 261.039062 252.289062 264.386719 255.257812 265.960938 C 255.257812 265.960938 257.738281 264.398438 254.460938 261.039062 Z M 254.460938 261.039062 " fill-opacity="1" fill-rule="nonzero"/></g></g></g></g><g clip-path="url(#e8327a3d19)"><g clip-path="url(#8d776c7bb1)"><g clip-path="url(#4d457c88b3)"><g clip-path="url(#4fc5b18db5)"><path fill="#c29865" d="M 258.210938 304.03125 C 258.210938 304.03125 259.082031 307.933594 262.28125 306.925781 C 262.28125 306.925781 262.894531 304.054688 258.210938 304.03125 Z M 258.210938 304.03125 " fill-opacity="1" fill-rule="nonzero"/></g></g></g></g><g clip-path="url(#864d9c866f)"><g clip-path="url(#bdadf4f0a7)"><g clip-path="url(#d0032adeb7)"><g clip-path="url(#534fba5a54)"><path fill="#c29865" d="M 270.492188 306.363281 C 270.492188 306.363281 268.316406 309.707031 271.285156 311.285156 C 271.285156 311.285156 273.765625 309.71875 270.492188 306.363281 Z M 270.492188 306.363281 " fill-opacity="1" fill-rule="nonzero"/></g></g></g></g><g clip-path="url(#ef3029aa3f)"><g clip-path="url(#b267acdcd4)"><g clip-path="url(#795734a0b1)"><g clip-path="url(#31f4f27369)"><path fill="#edc9ae" d="M 260.324219 190.945312 C 260.328125 190.960938 260.332031 190.972656 260.332031 190.988281 C 260.332031 190.992188 260.332031 190.992188 260.335938 190.992188 C 260.648438 193.171875 253.90625 195.96875 245.261719 197.242188 C 240.800781 197.894531 236.707031 198.019531 233.738281 197.683594 C 233.722656 197.683594 233.707031 197.679688 233.691406 197.683594 C 233.414062 197.648438 233.144531 197.613281 232.886719 197.570312 C 232.871094 197.570312 232.851562 197.566406 232.832031 197.5625 C 230.933594 197.261719 229.628906 196.746094 229.171875 196.035156 C 229.082031 195.898438 229.027344 195.753906 229.003906 195.601562 C 228.859375 194.644531 230.074219 193.574219 232.214844 192.5625 C 232.46875 192.441406 232.738281 192.320312 233.015625 192.203125 C 235.75 191.046875 239.667969 190 244.074219 189.351562 C 252.667969 188.085938 259.910156 188.800781 260.324219 190.945312 Z M 260.324219 190.945312 " fill-opacity="1" fill-rule="nonzero"/></g></g></g></g><g clip-path="url(#7bc047577d)"><g clip-path="url(#c9b8ff4b25)"><g clip-path="url(#18d035fe80)"><g clip-path="url(#beb803d980)"><path fill="#c29865" d="M 254.332031 191.0625 C 253.515625 190.738281 252.566406 190.648438 251.695312 190.601562 C 249.847656 190.496094 248.003906 190.78125 246.195312 191.105469 C 244.257812 191.453125 242.320312 191.757812 240.378906 192.0625 C 239.234375 192.242188 238.089844 192.460938 236.988281 192.835938 C 235.980469 193.175781 234.945312 193.625 234.175781 194.375 C 233.324219 195.199219 232.878906 196.390625 232.886719 197.570312 C 233.144531 197.613281 233.414062 197.648438 233.691406 197.683594 C 233.707031 197.679688 233.722656 197.683594 233.738281 197.683594 C 233.695312 196.816406 233.957031 195.933594 234.519531 195.246094 C 235.578125 193.960938 237.492188 193.480469 239.050781 193.152344 C 240.757812 192.792969 242.507812 192.625 244.226562 192.320312 C 245.800781 192.039062 247.371094 191.707031 248.96875 191.535156 C 250.535156 191.367188 252.175781 191.332031 253.71875 191.742188 C 254.042969 191.828125 254.425781 191.960938 254.578125 192.285156 C 254.742188 192.628906 254.496094 192.816406 254.226562 192.980469 C 253.488281 193.445312 252.699219 193.832031 251.886719 194.148438 C 251.042969 194.476562 250.175781 194.738281 249.289062 194.9375 C 249.261719 194.847656 249.207031 194.765625 249.113281 194.703125 C 247.769531 193.796875 246.152344 193.339844 244.539062 193.347656 C 243.734375 193.351562 242.921875 193.476562 242.15625 193.71875 C 241.769531 193.835938 241.394531 193.992188 241.03125 194.167969 C 240.707031 194.332031 240.359375 194.539062 240.414062 194.960938 C 240.515625 195.6875 241.417969 196.121094 242.042969 196.265625 C 242.867188 196.457031 243.75 196.398438 244.582031 196.367188 C 246.589844 196.292969 248.601562 196.042969 250.53125 195.492188 C 251.484375 195.222656 252.414062 194.871094 253.308594 194.445312 C 253.757812 194.226562 254.199219 193.992188 254.625 193.730469 C 254.964844 193.523438 255.300781 193.273438 255.425781 192.878906 C 255.679688 192.0625 255.046875 191.347656 254.332031 191.0625 Z M 246.792969 195.363281 C 245.945312 195.457031 245.089844 195.515625 244.234375 195.535156 C 243.527344 195.554688 242.789062 195.601562 242.101562 195.410156 C 241.945312 195.367188 241.792969 195.308594 241.648438 195.226562 C 241.527344 195.152344 241.449219 195.046875 241.34375 194.957031 C 241.390625 194.933594 241.429688 194.910156 241.433594 194.90625 C 241.621094 194.8125 241.808594 194.734375 242.003906 194.660156 C 242.722656 194.386719 243.480469 194.230469 244.246094 194.199219 C 245.648438 194.136719 247.03125 194.464844 248.246094 195.152344 C 247.765625 195.238281 247.28125 195.308594 246.792969 195.363281 Z M 246.792969 195.363281 " fill-opacity="1" fill-rule="nonzero"/></g></g></g></g><g clip-path="url(#06b1f7ab93)"><g clip-path="url(#4327efc572)"><g clip-path="url(#469e657694)"><g clip-path="url(#b8a23b87cd)"><path fill="#471c0e" d="M 270.085938 296.78125 L 267.839844 293.542969 C 268.683594 292.960938 269.535156 292.160156 270.378906 291.15625 C 271.484375 289.839844 272.511719 288.25 273.429688 286.433594 L 273.597656 286.089844 C 277.714844 277.699219 278.488281 267.273438 275.675781 258.195312 C 273.796875 252.140625 270.203125 248.179688 267.28125 245.410156 L 266.964844 245.113281 C 265.597656 243.832031 264.195312 242.644531 262.835938 241.496094 C 260.351562 239.394531 258.003906 237.410156 256.226562 235.160156 C 252.414062 230.335938 251.011719 224.898438 250.515625 222.085938 C 250.289062 220.808594 250.234375 220.015625 250.230469 219.929688 L 254.15625 219.707031 C 254.15625 219.710938 254.199219 220.363281 254.386719 221.414062 C 254.820312 223.863281 256.03125 228.585938 259.308594 232.730469 C 260.84375 234.671875 263.039062 236.527344 265.367188 238.496094 C 266.601562 239.539062 267.871094 240.613281 269.140625 241.773438 L 269.3125 241.722656 L 270.082031 242.660156 C 273.335938 245.757812 277.304688 250.1875 279.429688 257.046875 C 282.40625 266.636719 281.742188 277.597656 277.6875 286.648438 L 277.691406 286.652344 L 277.484375 287.089844 C 277.398438 287.277344 277.308594 287.464844 277.21875 287.648438 L 277.140625 287.808594 C 276.03125 290.078125 274.773438 292.050781 273.394531 293.691406 C 272.328125 294.960938 271.214844 296 270.085938 296.78125 Z M 270.085938 296.78125 " fill-opacity="1" fill-rule="nonzero"/></g></g></g></g><g clip-path="url(#fcd04669e6)"><g clip-path="url(#a9d625484d)"><g clip-path="url(#d1c77ff6c9)"><g clip-path="url(#8ee060de87)"><path fill="#f7e7da" d="M 274.714844 49.488281 C 274.71875 49.535156 274.734375 49.578125 274.738281 49.625 C 274.738281 49.632812 274.738281 49.632812 274.742188 49.644531 C 274.75 49.660156 274.742188 49.671875 274.746094 49.691406 L 279.027344 77.390625 L 279.449219 80.105469 L 286.183594 123.671875 L 289 141.914062 L 301.824219 224.878906 C 301.832031 224.878906 301.828125 224.886719 301.828125 224.886719 L 318.632812 333.546875 L 319.078125 336.402344 L 323.804688 367.003906 C 323.816406 367.003906 323.808594 367.015625 323.808594 367.015625 L 325.953125 380.875 L 328.726562 398.820312 L 335.898438 445.210938 C 329.335938 450.175781 319.800781 456.265625 307.378906 460.820312 C 306.515625 461.140625 305.640625 461.453125 304.738281 461.753906 C 303.285156 462.242188 301.78125 462.71875 300.246094 463.160156 C 281.46875 468.589844 264.363281 468 251.457031 465.882812 C 250.433594 465.714844 249.433594 465.542969 248.464844 465.359375 C 241.730469 464.078125 236.335938 462.441406 232.679688 461.207031 L 224.742188 409.839844 L 221.839844 391.09375 L 200.746094 254.628906 L 200.3125 251.820312 L 185.039062 153.011719 L 182.09375 133.953125 L 171.667969 66.527344 L 171.503906 65.480469 C 174.441406 63.503906 178.027344 61.273438 182.238281 59.027344 C 183.089844 58.566406 183.960938 58.109375 184.863281 57.660156 C 192.914062 53.605469 202.980469 49.628906 214.890625 47.132812 C 241.582031 41.527344 263.597656 46.261719 274.714844 49.488281 Z M 274.714844 49.488281 " fill-opacity="1" fill-rule="nonzero"/></g></g></g></g><g clip-path="url(#7d6cdf765b)"><g clip-path="url(#c03d145647)"><g clip-path="url(#8d0fa3abf2)"><g clip-path="url(#4d68d5d618)"><path fill="#edc9ae" d="M 184.410156 53.820312 C 184.558594 55.105469 184.710938 56.386719 184.863281 57.660156 C 185.136719 59.917969 185.402344 62.175781 185.6875 64.429688 C 185.988281 66.9375 186.292969 69.449219 186.601562 71.945312 C 186.84375 73.902344 187.082031 75.847656 187.332031 77.800781 C 189.679688 96.738281 192.140625 115.664062 194.714844 134.578125 C 194.988281 136.648438 195.273438 138.707031 195.558594 140.773438 C 196.15625 145.097656 196.753906 149.417969 197.359375 153.738281 C 201.65625 184.472656 206.21875 215.175781 211.046875 245.84375 C 211.199219 246.894531 211.367188 247.941406 211.542969 248.996094 C 214.746094 269.453125 218.070312 289.882812 221.496094 310.304688 C 226.050781 337.503906 230.703125 364.703125 235.847656 391.8125 C 237.035156 398.113281 238.25 404.410156 239.511719 410.695312 C 243.179688 429.160156 247.121094 447.5625 251.457031 465.882812 C 250.433594 465.714844 249.433594 465.542969 248.464844 465.359375 C 244.191406 447.175781 240.296875 428.90625 236.664062 410.589844 C 235.421875 404.304688 234.207031 398.007812 233.015625 391.710938 C 232.59375 389.480469 232.171875 387.257812 231.757812 385.027344 C 223.453125 340.40625 215.988281 295.609375 208.976562 250.75 C 208.820312 249.75 208.660156 248.742188 208.5 247.730469 C 206.863281 237.183594 205.246094 226.628906 203.644531 216.070312 C 200.492188 195.265625 197.457031 174.445312 194.546875 153.609375 C 193.65625 147.230469 192.777344 140.859375 191.90625 134.476562 C 189.058594 113.523438 186.335938 92.550781 183.765625 71.5625 C 183.25 67.378906 182.734375 63.207031 182.238281 59.027344 L 181.753906 55.011719 C 182.59375 54.613281 183.484375 54.21875 184.410156 53.820312 Z M 184.410156 53.820312 " fill-opacity="1" fill-rule="nonzero"/></g></g></g></g><g clip-path="url(#83e8b5db65)"><g clip-path="url(#df1fdcfd8b)"><g clip-path="url(#3951dfe062)"><g clip-path="url(#5084872d59)"><path fill="#471c0e" d="M 325.949219 380.875 L 328.722656 398.820312 C 312.027344 404.808594 276.640625 414.046875 224.742188 409.839844 L 221.84375 391.09375 C 237.460938 392.226562 288.941406 394.632812 325.949219 380.875 Z M 325.949219 380.875 " fill-opacity="1" fill-rule="nonzero"/></g></g></g></g><g clip-path="url(#82459bb776)"><g clip-path="url(#52332563f6)"><g clip-path="url(#9b8f1946e5)"><g clip-path="url(#4bc69e0903)"><path fill="#471c0e" d="M 286.183594 123.671875 L 289 141.914062 C 271.953125 147.957031 236.597656 157.015625 185.039062 153.011719 L 182.09375 133.953125 C 199.175781 135.121094 249.515625 137.105469 286.183594 123.671875 Z M 286.183594 123.671875 " fill-opacity="1" fill-rule="nonzero"/></g></g></g></g><g clip-path="url(#8f016b49d0)"><g clip-path="url(#8330f4194c)"><g clip-path="url(#43bd07a4a1)"><g clip-path="url(#236509f1e2)"><path fill="#c29865" d="M 318.632812 333.546875 L 319.078125 336.402344 C 315.785156 336.011719 312.5 335.570312 309.222656 335.035156 C 289.925781 331.878906 269.164062 324.167969 259.328125 305.980469 C 258.472656 304.402344 260.828125 302.914062 261.683594 304.488281 C 264.167969 309.085938 267.492188 313.105469 271.429688 316.535156 C 284.527344 327.960938 301.738281 331.46875 318.632812 333.546875 Z M 318.632812 333.546875 " fill-opacity="1" fill-rule="nonzero"/></g></g></g></g><g clip-path="url(#fcdedbfc32)"><g clip-path="url(#4a0c61b22b)"><g clip-path="url(#c727191cdf)"><g clip-path="url(#2ab8f4fdbd)"><path fill="#c29865" d="M 279.027344 77.390625 L 279.449219 80.105469 C 277.816406 80.445312 276.210938 80.894531 274.632812 81.417969 C 254.648438 88.085938 242.835938 106.769531 233.683594 124.550781 C 232.867188 126.148438 230.410156 124.824219 231.230469 123.238281 C 233.980469 117.890625 236.859375 112.617188 240.128906 107.570312 C 245.90625 98.652344 252.925781 90.355469 261.917969 84.527344 C 267.164062 81.136719 272.964844 78.625 279.027344 77.390625 Z M 279.027344 77.390625 " fill-opacity="1" fill-rule="nonzero"/></g></g></g></g><g clip-path="url(#6ece812196)"><g clip-path="url(#dd7ebbd3d4)"><g clip-path="url(#2706ef6ab3)"><g clip-path="url(#6b4e00950f)"><path fill="#c29865" d="M 232.691406 224.925781 C 229.90625 228.300781 227.121094 231.675781 224.339844 235.050781 C 220.335938 239.890625 216.546875 245.160156 211.542969 248.996094 C 210.808594 249.554688 210.046875 250.085938 209.253906 250.578125 C 209.164062 250.636719 209.066406 250.695312 208.976562 250.75 C 206.371094 252.34375 203.605469 253.589844 200.746094 254.628906 L 200.3125 251.820312 C 203.1875 250.734375 205.964844 249.421875 208.5 247.730469 C 209.375 247.15625 210.222656 246.53125 211.046875 245.84375 C 211.566406 245.414062 212.074219 244.972656 212.558594 244.496094 C 215.855469 241.304688 218.648438 237.578125 221.5625 234.046875 C 224.59375 230.371094 227.617188 226.699219 230.652344 223.027344 C 231.796875 221.644531 233.828125 223.550781 232.691406 224.925781 Z M 232.691406 224.925781 " fill-opacity="1" fill-rule="nonzero"/></g></g></g></g><g clip-path="url(#a2496bdcb6)"><g clip-path="url(#cb409c1714)"><g clip-path="url(#7a1233d692)"><g clip-path="url(#8b12bf0b90)"><path fill="#c29865" d="M 307.378906 460.820312 C 306.515625 461.140625 305.640625 461.453125 304.738281 461.753906 C 301.863281 452.046875 293.039062 444.710938 285.078125 438.765625 C 283.636719 437.6875 285.546875 435.664062 286.972656 436.714844 C 295.316406 442.933594 304.292969 450.710938 307.378906 460.820312 Z M 307.378906 460.820312 " fill-opacity="1" fill-rule="nonzero"/></g></g></g></g><g clip-path="url(#d9d04e48b6)"><g clip-path="url(#9cdd6ffdcf)"><g clip-path="url(#6eddf593a7)"><g clip-path="url(#346a188e46)"><path fill="#c29865" d="M 234.804688 85.351562 C 234.804688 85.351562 226.316406 95.492188 235.425781 101.828125 C 235.425781 101.828125 244.203125 97.65625 234.804688 85.351562 Z M 234.804688 85.351562 " fill-opacity="1" fill-rule="nonzero"/></g></g></g></g><g clip-path="url(#c64358fd0c)"><g clip-path="url(#f483b317b0)"><g clip-path="url(#eb45109b02)"><g clip-path="url(#18a74b3bb4)"><path fill="#c29865" d="M 220.265625 209.496094 C 220.265625 209.496094 211.78125 219.636719 220.890625 225.972656 C 220.890625 225.972656 229.664062 221.800781 220.265625 209.496094 Z M 220.265625 209.496094 " fill-opacity="1" fill-rule="nonzero"/></g></g></g></g><g clip-path="url(#ea9545fb3e)"><g clip-path="url(#6d6d3f1b91)"><g clip-path="url(#1df9d8d26e)"><g clip-path="url(#9f99ca875b)"><path fill="#c29865" d="M 251.386719 209.515625 C 251.386719 209.515625 238.199219 208.539062 238.367188 219.632812 C 238.367188 219.632812 246.871094 224.328125 251.386719 209.515625 Z M 251.386719 209.515625 " fill-opacity="1" fill-rule="nonzero"/></g></g></g></g><g clip-path="url(#5172fd79b3)"><g clip-path="url(#480ee06349)"><g clip-path="url(#339b2fb5d4)"><g clip-path="url(#8d6c6630d0)"><path fill="#c29865" d="M 271.429688 100.722656 C 271.429688 100.722656 261.207031 92.339844 254.960938 101.515625 C 254.960938 101.515625 259.214844 110.246094 271.429688 100.722656 Z M 271.429688 100.722656 " fill-opacity="1" fill-rule="nonzero"/></g></g></g></g><g clip-path="url(#1f1ace3cd8)"><g clip-path="url(#9c63de2e76)"><g clip-path="url(#d81f2bda8e)"><g clip-path="url(#c4d08265a4)"><path fill="#c29865" d="M 271.25 72.5 C 271.25 72.5 261.027344 64.121094 254.785156 73.292969 C 254.785156 73.292969 259.039062 82.027344 271.25 72.5 Z M 271.25 72.5 " fill-opacity="1" fill-rule="nonzero"/></g></g></g></g><g clip-path="url(#22b6df2deb)"><g clip-path="url(#e5fde5efb8)"><g clip-path="url(#3656a8407d)"><g clip-path="url(#f5d6cd327f)"><path fill="#c29865" d="M 229.703125 255.75 C 229.703125 255.75 219.480469 247.367188 213.234375 256.542969 C 213.234375 256.542969 217.488281 265.277344 229.703125 255.75 Z M 229.703125 255.75 " fill-opacity="1" fill-rule="nonzero"/></g></g></g></g><g clip-path="url(#16d08688f1)"><g clip-path="url(#413089affc)"><g clip-path="url(#11940bf0ca)"><g clip-path="url(#228bff3bb0)"><path fill="#c29865" d="M 301.535156 313.816406 C 301.535156 313.816406 300.722656 327.011719 311.8125 326.703125 C 311.8125 326.703125 316.402344 318.140625 301.535156 313.816406 Z M 301.535156 313.816406 " fill-opacity="1" fill-rule="nonzero"/></g></g></g></g><g clip-path="url(#62e1a201b8)"><g clip-path="url(#2ed9cf3181)"><g clip-path="url(#5aecea40f5)"><g clip-path="url(#67a08ee4a0)"><path fill="#c29865" d="M 277.128906 304.015625 C 277.128906 304.015625 276.3125 317.210938 287.40625 316.902344 C 287.40625 316.902344 291.996094 308.339844 277.128906 304.015625 Z M 277.128906 304.015625 " fill-opacity="1" fill-rule="nonzero"/></g></g></g></g><g clip-path="url(#94c5290c19)"><g clip-path="url(#f76728cfac)"><g clip-path="url(#d03e4e4b85)"><g clip-path="url(#fe60518d83)"><path fill="#c29865" d="M 283.378906 344.398438 C 283.378906 344.398438 295.609375 349.414062 298.890625 338.816406 C 298.890625 338.816406 292.265625 331.710938 283.378906 344.398438 Z M 283.378906 344.398438 " fill-opacity="1" fill-rule="nonzero"/></g></g></g></g><g clip-path="url(#1d589a7fb5)"><g clip-path="url(#7830dd5a21)"><g clip-path="url(#b7ee8d84f2)"><g clip-path="url(#a9012ac221)"><path fill="#c29865" d="M 274.953125 455.160156 C 274.953125 455.160156 287.183594 460.179688 290.464844 449.578125 C 290.464844 449.578125 283.839844 442.476562 274.953125 455.160156 Z M 274.953125 455.160156 " fill-opacity="1" fill-rule="nonzero"/></g></g></g></g><g clip-path="url(#3dc9306a37)"><g clip-path="url(#315a9ad6e4)"><g clip-path="url(#a03b3dec1a)"><g clip-path="url(#9e5c1809b6)"><path fill="#c29865" d="M 259.242188 332.671875 C 259.242188 332.671875 271.472656 337.6875 274.753906 327.089844 C 274.753906 327.089844 268.128906 319.984375 259.242188 332.671875 Z M 259.242188 332.671875 " fill-opacity="1" fill-rule="nonzero"/></g></g></g></g><g clip-path="url(#f8a356dcd0)"><g clip-path="url(#04095e0ba2)"><g clip-path="url(#084c344631)"><g clip-path="url(#71ac439951)"><path fill="#c29865" d="M 254.863281 281.398438 C 254.863281 281.398438 247.65625 292.484375 257.457031 297.679688 C 257.457031 297.679688 265.671875 292.484375 254.863281 281.398438 Z M 254.863281 281.398438 " fill-opacity="1" fill-rule="nonzero"/></g></g></g></g><g clip-path="url(#bbbfe8c429)"><g clip-path="url(#1a3a688fce)"><g clip-path="url(#d776e3b4a1)"><g clip-path="url(#bfbe10b63d)"><path fill="#c29865" d="M 266.976562 423.589844 C 266.976562 423.589844 269.835938 436.5 280.414062 433.140625 C 280.414062 433.140625 282.464844 423.644531 266.976562 423.589844 Z M 266.976562 423.589844 " fill-opacity="1" fill-rule="nonzero"/></g></g></g></g><g clip-path="url(#dce11ddc24)"><g clip-path="url(#4a5499ae3c)"><g clip-path="url(#faa0b04fa7)"><g clip-path="url(#f2ef59cc2a)"><path fill="#c29865" d="M 307.566406 431.222656 C 307.566406 431.222656 300.359375 442.308594 310.164062 447.5 C 310.164062 447.5 318.375 442.308594 307.566406 431.222656 Z M 307.566406 431.222656 " fill-opacity="1" fill-rule="nonzero"/></g></g></g></g><g clip-path="url(#7bafdf582a)"><g clip-path="url(#9124bcb9bc)"><g clip-path="url(#fa34232315)"><g clip-path="url(#bb0347750c)"><path fill="#edc9ae" d="M 274.714844 49.488281 C 274.71875 49.535156 274.734375 49.578125 274.738281 49.625 C 274.738281 49.632812 274.738281 49.632812 274.742188 49.644531 C 275.765625 56.84375 253.460938 66.144531 224.867188 70.410156 C 210.109375 72.605469 196.566406 73.035156 186.757812 71.957031 C 186.710938 71.953125 186.65625 71.9375 186.601562 71.945312 C 185.683594 71.835938 184.792969 71.714844 183.949219 71.582031 C 183.890625 71.582031 183.828125 71.570312 183.765625 71.5625 C 177.492188 70.578125 173.183594 68.871094 171.667969 66.527344 C 171.375 66.070312 171.191406 65.59375 171.117188 65.09375 C 170.648438 61.933594 174.675781 58.375 181.753906 55.011719 C 182.59375 54.613281 183.484375 54.21875 184.410156 53.820312 C 193.457031 49.976562 206.410156 46.496094 220.988281 44.316406 C 249.410156 40.074219 273.355469 42.386719 274.714844 49.488281 Z M 274.714844 49.488281 " fill-opacity="1" fill-rule="nonzero"/></g></g></g></g><g clip-path="url(#cf4215474d)"><g clip-path="url(#1ad7b01d92)"><g clip-path="url(#c84ea5921c)"><g clip-path="url(#56a881467c)"><path fill="#c29865" d="M 254.898438 49.910156 C 252.199219 48.835938 249.054688 48.554688 246.175781 48.40625 C 240.066406 48.070312 233.980469 49.023438 227.988281 50.105469 C 221.585938 51.265625 215.179688 52.292969 208.753906 53.316406 C 204.964844 53.917969 201.179688 54.648438 197.535156 55.886719 C 194.199219 57.019531 190.78125 58.519531 188.222656 61.003906 C 185.410156 63.738281 183.921875 67.679688 183.949219 71.582031 C 184.792969 71.714844 185.683594 71.835938 186.601562 71.945312 C 186.65625 71.9375 186.710938 71.953125 186.757812 71.957031 C 186.625 69.074219 187.488281 66.15625 189.363281 63.878906 C 192.863281 59.628906 199.199219 58.019531 204.351562 56.929688 C 210.003906 55.722656 215.785156 55.15625 221.472656 54.136719 C 226.683594 53.199219 231.875 52.082031 237.160156 51.515625 C 242.34375 50.945312 247.769531 50.816406 252.863281 52.167969 C 253.929688 52.445312 255.199219 52.886719 255.707031 53.957031 C 256.242188 55.09375 255.429688 55.710938 254.539062 56.261719 C 252.089844 57.796875 249.480469 59.082031 246.789062 60.128906 C 243.996094 61.226562 241.125 62.09375 238.203125 62.765625 C 238.109375 62.464844 237.921875 62.191406 237.617188 61.984375 C 233.183594 59.003906 227.835938 57.5 222.5 57.53125 C 219.835938 57.550781 217.148438 57.96875 214.613281 58.773438 C 213.335938 59.167969 212.097656 59.6875 210.898438 60.277344 C 209.816406 60.816406 208.667969 61.503906 208.855469 62.894531 C 209.183594 65.296875 212.15625 66.726562 214.234375 67.203125 C 216.953125 67.828125 219.867188 67.636719 222.628906 67.527344 C 229.257812 67.269531 235.910156 66.417969 242.296875 64.59375 C 245.449219 63.6875 248.523438 62.527344 251.488281 61.105469 C 252.96875 60.382812 254.433594 59.601562 255.839844 58.738281 C 256.972656 58.046875 258.089844 57.222656 258.496094 55.90625 C 259.339844 53.207031 257.257812 50.847656 254.898438 49.910156 Z M 229.945312 64.1875 C 227.128906 64.503906 224.308594 64.699219 221.476562 64.78125 C 219.140625 64.847656 216.703125 65 214.425781 64.378906 C 213.910156 64.234375 213.402344 64.039062 212.929688 63.765625 C 212.53125 63.527344 212.265625 63.171875 211.929688 62.882812 C 212.078125 62.800781 212.207031 62.722656 212.226562 62.714844 C 212.839844 62.40625 213.46875 62.136719 214.113281 61.894531 C 216.488281 60.992188 218.988281 60.464844 221.527344 60.347656 C 226.15625 60.132812 230.734375 61.210938 234.75 63.480469 C 233.15625 63.769531 231.558594 64 229.945312 64.1875 Z M 229.945312 64.1875 " fill-opacity="1" fill-rule="nonzero"/></g></g></g></g><g clip-path="url(#116a34d7bd)"><g clip-path="url(#59c364f9c7)"><g clip-path="url(#da0b6c7ff5)"><g clip-path="url(#fd0e63bf2d)"><path fill="#471c0e" d="M 306.289062 399.527344 L 298.886719 388.839844 C 301.675781 386.90625 304.503906 384.246094 307.292969 380.925781 C 310.960938 376.558594 314.363281 371.300781 317.410156 365.28125 L 317.972656 364.136719 C 331.636719 336.363281 334.269531 301.863281 325.019531 271.855469 C 318.851562 251.835938 306.992188 238.757812 297.347656 229.605469 L 296.316406 228.625 C 291.804688 224.398438 287.167969 220.484375 282.675781 216.6875 C 274.480469 209.757812 266.734375 203.210938 260.867188 195.777344 C 248.289062 179.84375 243.6875 161.863281 242.066406 152.5625 C 241.328125 148.347656 241.160156 145.710938 241.144531 145.425781 L 254.125 144.667969 C 254.125 144.675781 254.265625 146.835938 254.875 150.316406 C 256.289062 158.414062 260.269531 174.027344 271.078125 187.714844 C 276.132812 194.125 283.390625 200.257812 291.074219 206.753906 C 295.148438 210.195312 299.335938 213.734375 303.523438 217.574219 L 304.101562 217.398438 L 306.636719 220.488281 C 317.371094 230.722656 330.460938 245.351562 337.449219 268.019531 C 347.222656 299.722656 344.953125 335.996094 331.484375 365.957031 L 331.5 365.976562 L 330.816406 367.417969 C 330.527344 368.039062 330.234375 368.660156 329.933594 369.273438 L 329.679688 369.808594 C 325.992188 377.316406 321.820312 383.847656 317.246094 389.292969 C 313.710938 393.496094 310.027344 396.9375 306.289062 399.527344 Z M 306.289062 399.527344 " fill-opacity="1" fill-rule="nonzero"/></g></g></g></g></svg>