<svg xmlns="http://www.w3.org/2000/svg" xmlns:xlink="http://www.w3.org/1999/xlink" width="234" zoomAndPan="magnify" viewBox="0 0 175.5 130.499996" height="174" preserveAspectRatio="xMidYMid meet" version="1.0"><defs><clipPath id="d962bdbe3e"><path d="M 6 41 L 76 41 L 76 88 L 6 88 Z M 6 41 " clip-rule="nonzero"/></clipPath><clipPath id="4b2ffcab16"><path d="M 8.65625 38.300781 L 76.480469 43.027344 L 73.160156 90.726562 L 5.335938 86.003906 Z M 8.65625 38.300781 " clip-rule="nonzero"/></clipPath><clipPath id="c977f14008"><path d="M 8.65625 38.300781 L 76.480469 43.027344 L 73.160156 90.726562 L 5.335938 86.003906 Z M 8.65625 38.300781 " clip-rule="nonzero"/></clipPath><clipPath id="2bb10b4ba7"><path d="M 8.65625 38.300781 L 76.480469 43.027344 L 73.160156 90.726562 L 5.335938 86.003906 Z M 8.65625 38.300781 " clip-rule="nonzero"/></clipPath><clipPath id="a5c5436f45"><path d="M 41 43 L 67 43 L 67 80 L 41 80 Z M 41 43 " clip-rule="nonzero"/></clipPath><clipPath id="dd87ffcbe7"><path d="M 8.65625 38.300781 L 76.480469 43.027344 L 73.160156 90.726562 L 5.335938 86.003906 Z M 8.65625 38.300781 " clip-rule="nonzero"/></clipPath><clipPath id="806aaa0ec7"><path d="M 8.65625 38.300781 L 76.480469 43.027344 L 73.160156 90.726562 L 5.335938 86.003906 Z M 8.65625 38.300781 " clip-rule="nonzero"/></clipPath><clipPath id="e9d5f8732b"><path d="M 8.65625 38.300781 L 76.480469 43.027344 L 73.160156 90.726562 L 5.335938 86.003906 Z M 8.65625 38.300781 " clip-rule="nonzero"/></clipPath><clipPath id="2086a03c3b"><path d="M 7 50 L 32 50 L 32 87 L 7 87 Z M 7 50 " clip-rule="nonzero"/></clipPath><clipPath id="404eea3d26"><path d="M 8.65625 38.300781 L 76.480469 43.027344 L 73.160156 90.726562 L 5.335938 86.003906 Z M 8.65625 38.300781 " clip-rule="nonzero"/></clipPath><clipPath id="be872a3dba"><path d="M 8.65625 38.300781 L 76.480469 43.027344 L 73.160156 90.726562 L 5.335938 86.003906 Z M 8.65625 38.300781 " clip-rule="nonzero"/></clipPath><clipPath id="adfe0a05c4"><path d="M 8.65625 38.300781 L 76.480469 43.027344 L 73.160156 90.726562 L 5.335938 86.003906 Z M 8.65625 38.300781 " clip-rule="nonzero"/></clipPath><clipPath id="932f99b7ae"><path d="M 56 43 L 71 43 L 71 79 L 56 79 Z M 56 43 " clip-rule="nonzero"/></clipPath><clipPath id="0f6ac92266"><path d="M 8.65625 38.300781 L 76.480469 43.027344 L 73.160156 90.726562 L 5.335938 86.003906 Z M 8.65625 38.300781 " clip-rule="nonzero"/></clipPath><clipPath id="29a7d60606"><path d="M 8.65625 38.300781 L 76.480469 43.027344 L 73.160156 90.726562 L 5.335938 86.003906 Z M 8.65625 38.300781 " clip-rule="nonzero"/></clipPath><clipPath id="9f139f8901"><path d="M 8.65625 38.300781 L 76.480469 43.027344 L 73.160156 90.726562 L 5.335938 86.003906 Z M 8.65625 38.300781 " clip-rule="nonzero"/></clipPath><clipPath id="6e4e94a609"><path d="M 20 49 L 36 49 L 36 86 L 20 86 Z M 20 49 " clip-rule="nonzero"/></clipPath><clipPath id="c57d0eaf77"><path d="M 8.65625 38.300781 L 76.480469 43.027344 L 73.160156 90.726562 L 5.335938 86.003906 Z M 8.65625 38.300781 " clip-rule="nonzero"/></clipPath><clipPath id="d706294207"><path d="M 8.65625 38.300781 L 76.480469 43.027344 L 73.160156 90.726562 L 5.335938 86.003906 Z M 8.65625 38.300781 " clip-rule="nonzero"/></clipPath><clipPath id="e50f80b3e7"><path d="M 8.65625 38.300781 L 76.480469 43.027344 L 73.160156 90.726562 L 5.335938 86.003906 Z M 8.65625 38.300781 " clip-rule="nonzero"/></clipPath><clipPath id="3ade2f3110"><path d="M 60 42 L 75 42 L 75 78 L 60 78 Z M 60 42 " clip-rule="nonzero"/></clipPath><clipPath id="48f0769b13"><path d="M 8.65625 38.300781 L 76.480469 43.027344 L 73.160156 90.726562 L 5.335938 86.003906 Z M 8.65625 38.300781 " clip-rule="nonzero"/></clipPath><clipPath id="ca4d4c23a7"><path d="M 8.65625 38.300781 L 76.480469 43.027344 L 73.160156 90.726562 L 5.335938 86.003906 Z M 8.65625 38.300781 " clip-rule="nonzero"/></clipPath><clipPath id="1de305e0e3"><path d="M 8.65625 38.300781 L 76.480469 43.027344 L 73.160156 90.726562 L 5.335938 86.003906 Z M 8.65625 38.300781 " clip-rule="nonzero"/></clipPath><clipPath id="703ab9d4c7"><path d="M 30 53 L 40 53 L 40 85 L 30 85 Z M 30 53 " clip-rule="nonzero"/></clipPath><clipPath id="dfa0296f27"><path d="M 8.65625 38.300781 L 76.480469 43.027344 L 73.160156 90.726562 L 5.335938 86.003906 Z M 8.65625 38.300781 " clip-rule="nonzero"/></clipPath><clipPath id="5399a1f656"><path d="M 8.65625 38.300781 L 76.480469 43.027344 L 73.160156 90.726562 L 5.335938 86.003906 Z M 8.65625 38.300781 " clip-rule="nonzero"/></clipPath><clipPath id="889e93c340"><path d="M 8.65625 38.300781 L 76.480469 43.027344 L 73.160156 90.726562 L 5.335938 86.003906 Z M 8.65625 38.300781 " clip-rule="nonzero"/></clipPath><clipPath id="9bcfb67223"><path d="M 39 61 L 55 61 L 55 68 L 39 68 Z M 39 61 " clip-rule="nonzero"/></clipPath><clipPath id="137b68822a"><path d="M 8.65625 38.300781 L 76.480469 43.027344 L 73.160156 90.726562 L 5.335938 86.003906 Z M 8.65625 38.300781 " clip-rule="nonzero"/></clipPath><clipPath id="a5264e2134"><path d="M 8.65625 38.300781 L 76.480469 43.027344 L 73.160156 90.726562 L 5.335938 86.003906 Z M 8.65625 38.300781 " clip-rule="nonzero"/></clipPath><clipPath id="b7f4948608"><path d="M 8.65625 38.300781 L 76.480469 43.027344 L 73.160156 90.726562 L 5.335938 86.003906 Z M 8.65625 38.300781 " clip-rule="nonzero"/></clipPath><clipPath id="627a65ba80"><path d="M 39 60 L 55 60 L 55 65 L 39 65 Z M 39 60 " clip-rule="nonzero"/></clipPath><clipPath id="c0905a23bd"><path d="M 8.65625 38.300781 L 76.480469 43.027344 L 73.160156 90.726562 L 5.335938 86.003906 Z M 8.65625 38.300781 " clip-rule="nonzero"/></clipPath><clipPath id="e89f122cee"><path d="M 8.65625 38.300781 L 76.480469 43.027344 L 73.160156 90.726562 L 5.335938 86.003906 Z M 8.65625 38.300781 " clip-rule="nonzero"/></clipPath><clipPath id="0282e83662"><path d="M 8.65625 38.300781 L 76.480469 43.027344 L 73.160156 90.726562 L 5.335938 86.003906 Z M 8.65625 38.300781 " clip-rule="nonzero"/></clipPath><clipPath id="6a193f1964"><path d="M 51 58 L 57 58 L 57 66 L 51 66 Z M 51 58 " clip-rule="nonzero"/></clipPath><clipPath id="84c96a1f70"><path d="M 8.65625 38.300781 L 76.480469 43.027344 L 73.160156 90.726562 L 5.335938 86.003906 Z M 8.65625 38.300781 " clip-rule="nonzero"/></clipPath><clipPath id="caa822cf30"><path d="M 8.65625 38.300781 L 76.480469 43.027344 L 73.160156 90.726562 L 5.335938 86.003906 Z M 8.65625 38.300781 " clip-rule="nonzero"/></clipPath><clipPath id="b21efffd4a"><path d="M 8.65625 38.300781 L 76.480469 43.027344 L 73.160156 90.726562 L 5.335938 86.003906 Z M 8.65625 38.300781 " clip-rule="nonzero"/></clipPath><clipPath id="309d8021ff"><path d="M 24 49 L 32 49 L 32 53 L 24 53 Z M 24 49 " clip-rule="nonzero"/></clipPath><clipPath id="02aa3e1f58"><path d="M 8.65625 38.300781 L 76.480469 43.027344 L 73.160156 90.726562 L 5.335938 86.003906 Z M 8.65625 38.300781 " clip-rule="nonzero"/></clipPath><clipPath id="ab1cd1a552"><path d="M 8.65625 38.300781 L 76.480469 43.027344 L 73.160156 90.726562 L 5.335938 86.003906 Z M 8.65625 38.300781 " clip-rule="nonzero"/></clipPath><clipPath id="e9018e073c"><path d="M 8.65625 38.300781 L 76.480469 43.027344 L 73.160156 90.726562 L 5.335938 86.003906 Z M 8.65625 38.300781 " clip-rule="nonzero"/></clipPath><clipPath id="ff72771378"><path d="M 30 51 L 35 51 L 35 54 L 30 54 Z M 30 51 " clip-rule="nonzero"/></clipPath><clipPath id="fd4b2f5cc3"><path d="M 8.65625 38.300781 L 76.480469 43.027344 L 73.160156 90.726562 L 5.335938 86.003906 Z M 8.65625 38.300781 " clip-rule="nonzero"/></clipPath><clipPath id="6266aca56f"><path d="M 8.65625 38.300781 L 76.480469 43.027344 L 73.160156 90.726562 L 5.335938 86.003906 Z M 8.65625 38.300781 " clip-rule="nonzero"/></clipPath><clipPath id="a8a1a452ec"><path d="M 8.65625 38.300781 L 76.480469 43.027344 L 73.160156 90.726562 L 5.335938 86.003906 Z M 8.65625 38.300781 " clip-rule="nonzero"/></clipPath><clipPath id="36b1f5a8db"><path d="M 9 56 L 29 56 L 29 82 L 9 82 Z M 9 56 " clip-rule="nonzero"/></clipPath><clipPath id="c80db1842c"><path d="M 8.65625 38.300781 L 76.480469 43.027344 L 73.160156 90.726562 L 5.335938 86.003906 Z M 8.65625 38.300781 " clip-rule="nonzero"/></clipPath><clipPath id="9bb3bf5baf"><path d="M 8.65625 38.300781 L 76.480469 43.027344 L 73.160156 90.726562 L 5.335938 86.003906 Z M 8.65625 38.300781 " clip-rule="nonzero"/></clipPath><clipPath id="44fcf551bb"><path d="M 8.65625 38.300781 L 76.480469 43.027344 L 73.160156 90.726562 L 5.335938 86.003906 Z M 8.65625 38.300781 " clip-rule="nonzero"/></clipPath><clipPath id="33037ed335"><path d="M 10 57 L 26 57 L 26 81 L 10 81 Z M 10 57 " clip-rule="nonzero"/></clipPath><clipPath id="3cdf133500"><path d="M 8.65625 38.300781 L 76.480469 43.027344 L 73.160156 90.726562 L 5.335938 86.003906 Z M 8.65625 38.300781 " clip-rule="nonzero"/></clipPath><clipPath id="b3c821e9fb"><path d="M 8.65625 38.300781 L 76.480469 43.027344 L 73.160156 90.726562 L 5.335938 86.003906 Z M 8.65625 38.300781 " clip-rule="nonzero"/></clipPath><clipPath id="6cd23c5655"><path d="M 8.65625 38.300781 L 76.480469 43.027344 L 73.160156 90.726562 L 5.335938 86.003906 Z M 8.65625 38.300781 " clip-rule="nonzero"/></clipPath><clipPath id="83f136f183"><path d="M 19 56 L 28 56 L 28 81 L 19 81 Z M 19 56 " clip-rule="nonzero"/></clipPath><clipPath id="353c62e88e"><path d="M 8.65625 38.300781 L 76.480469 43.027344 L 73.160156 90.726562 L 5.335938 86.003906 Z M 8.65625 38.300781 " clip-rule="nonzero"/></clipPath><clipPath id="306189247f"><path d="M 8.65625 38.300781 L 76.480469 43.027344 L 73.160156 90.726562 L 5.335938 86.003906 Z M 8.65625 38.300781 " clip-rule="nonzero"/></clipPath><clipPath id="0f89d37cec"><path d="M 8.65625 38.300781 L 76.480469 43.027344 L 73.160156 90.726562 L 5.335938 86.003906 Z M 8.65625 38.300781 " clip-rule="nonzero"/></clipPath><clipPath id="58dfdf6f37"><path d="M 11 64 L 22 64 L 22 75 L 11 75 Z M 11 64 " clip-rule="nonzero"/></clipPath><clipPath id="d80350bc2a"><path d="M 8.65625 38.300781 L 76.480469 43.027344 L 73.160156 90.726562 L 5.335938 86.003906 Z M 8.65625 38.300781 " clip-rule="nonzero"/></clipPath><clipPath id="3497b050e2"><path d="M 8.65625 38.300781 L 76.480469 43.027344 L 73.160156 90.726562 L 5.335938 86.003906 Z M 8.65625 38.300781 " clip-rule="nonzero"/></clipPath><clipPath id="a3665cc411"><path d="M 8.65625 38.300781 L 76.480469 43.027344 L 73.160156 90.726562 L 5.335938 86.003906 Z M 8.65625 38.300781 " clip-rule="nonzero"/></clipPath><clipPath id="13a437d1be"><path d="M 15 64 L 21 64 L 21 74 L 15 74 Z M 15 64 " clip-rule="nonzero"/></clipPath><clipPath id="2b66fccd7f"><path d="M 8.65625 38.300781 L 76.480469 43.027344 L 73.160156 90.726562 L 5.335938 86.003906 Z M 8.65625 38.300781 " clip-rule="nonzero"/></clipPath><clipPath id="eaeeacda52"><path d="M 8.65625 38.300781 L 76.480469 43.027344 L 73.160156 90.726562 L 5.335938 86.003906 Z M 8.65625 38.300781 " clip-rule="nonzero"/></clipPath><clipPath id="f00140acb4"><path d="M 8.65625 38.300781 L 76.480469 43.027344 L 73.160156 90.726562 L 5.335938 86.003906 Z M 8.65625 38.300781 " clip-rule="nonzero"/></clipPath><clipPath id="263daa976d"><path d="M 12 67 L 16 67 L 16 72 L 12 72 Z M 12 67 " clip-rule="nonzero"/></clipPath><clipPath id="a88e0a7d6c"><path d="M 8.65625 38.300781 L 76.480469 43.027344 L 73.160156 90.726562 L 5.335938 86.003906 Z M 8.65625 38.300781 " clip-rule="nonzero"/></clipPath><clipPath id="c4ea9d44de"><path d="M 8.65625 38.300781 L 76.480469 43.027344 L 73.160156 90.726562 L 5.335938 86.003906 Z M 8.65625 38.300781 " clip-rule="nonzero"/></clipPath><clipPath id="a5a7059e99"><path d="M 8.65625 38.300781 L 76.480469 43.027344 L 73.160156 90.726562 L 5.335938 86.003906 Z M 8.65625 38.300781 " clip-rule="nonzero"/></clipPath><clipPath id="ff345f3a10"><path d="M 15 68 L 19 68 L 19 72 L 15 72 Z M 15 68 " clip-rule="nonzero"/></clipPath><clipPath id="baa71bc1d0"><path d="M 8.65625 38.300781 L 76.480469 43.027344 L 73.160156 90.726562 L 5.335938 86.003906 Z M 8.65625 38.300781 " clip-rule="nonzero"/></clipPath><clipPath id="747f1219cb"><path d="M 8.65625 38.300781 L 76.480469 43.027344 L 73.160156 90.726562 L 5.335938 86.003906 Z M 8.65625 38.300781 " clip-rule="nonzero"/></clipPath><clipPath id="899adfe08d"><path d="M 8.65625 38.300781 L 76.480469 43.027344 L 73.160156 90.726562 L 5.335938 86.003906 Z M 8.65625 38.300781 " clip-rule="nonzero"/></clipPath><clipPath id="8cffdb86ea"><path d="M 14 66 L 18 66 L 18 69 L 14 69 Z M 14 66 " clip-rule="nonzero"/></clipPath><clipPath id="e705db4278"><path d="M 8.65625 38.300781 L 76.480469 43.027344 L 73.160156 90.726562 L 5.335938 86.003906 Z M 8.65625 38.300781 " clip-rule="nonzero"/></clipPath><clipPath id="7ba0ef7e72"><path d="M 8.65625 38.300781 L 76.480469 43.027344 L 73.160156 90.726562 L 5.335938 86.003906 Z M 8.65625 38.300781 " clip-rule="nonzero"/></clipPath><clipPath id="d48653d6a8"><path d="M 8.65625 38.300781 L 76.480469 43.027344 L 73.160156 90.726562 L 5.335938 86.003906 Z M 8.65625 38.300781 " clip-rule="nonzero"/></clipPath><clipPath id="8605f59599"><path d="M 3 9 L 172 9 L 172 121 L 3 121 Z M 3 9 " clip-rule="nonzero"/></clipPath><clipPath id="47b618af88"><path d="M 8.285156 0 L 174.496094 11.574219 L 166.292969 129.339844 L 0.0820312 117.761719 Z M 8.285156 0 " clip-rule="nonzero"/></clipPath><clipPath id="0b79ae34a3"><path d="M 8.285156 0 L 174.496094 11.574219 L 166.292969 129.339844 L 0.0820312 117.761719 Z M 8.285156 0 " clip-rule="nonzero"/></clipPath><clipPath id="4435b1f606"><path d="M 8.285156 0 L 174.496094 11.574219 L 166.292969 129.339844 L 0.0820312 117.761719 Z M 8.285156 0 " clip-rule="nonzero"/></clipPath><clipPath id="b982ffd67c"><path d="M 89 13 L 151 13 L 151 103 L 89 103 Z M 89 13 " clip-rule="nonzero"/></clipPath><clipPath id="66f1e6c52f"><path d="M 8.285156 0 L 174.496094 11.574219 L 166.292969 129.339844 L 0.0820312 117.761719 Z M 8.285156 0 " clip-rule="nonzero"/></clipPath><clipPath id="127f03feae"><path d="M 8.285156 0 L 174.496094 11.574219 L 166.292969 129.339844 L 0.0820312 117.761719 Z M 8.285156 0 " clip-rule="nonzero"/></clipPath><clipPath id="7697b8123d"><path d="M 8.285156 0 L 174.496094 11.574219 L 166.292969 129.339844 L 0.0820312 117.761719 Z M 8.285156 0 " clip-rule="nonzero"/></clipPath><clipPath id="f7d326e621"><path d="M 5 29 L 66 29 L 66 119 L 5 119 Z M 5 29 " clip-rule="nonzero"/></clipPath><clipPath id="81b209ec61"><path d="M 8.285156 0 L 174.496094 11.574219 L 166.292969 129.339844 L 0.0820312 117.761719 Z M 8.285156 0 " clip-rule="nonzero"/></clipPath><clipPath id="5ef7583727"><path d="M 8.285156 0 L 174.496094 11.574219 L 166.292969 129.339844 L 0.0820312 117.761719 Z M 8.285156 0 " clip-rule="nonzero"/></clipPath><clipPath id="9514f9603a"><path d="M 8.285156 0 L 174.496094 11.574219 L 166.292969 129.339844 L 0.0820312 117.761719 Z M 8.285156 0 " clip-rule="nonzero"/></clipPath><clipPath id="a7491837f6"><path d="M 124 12 L 161 12 L 161 100 L 124 100 Z M 124 12 " clip-rule="nonzero"/></clipPath><clipPath id="1bb3f4d097"><path d="M 8.285156 0 L 174.496094 11.574219 L 166.292969 129.339844 L 0.0820312 117.761719 Z M 8.285156 0 " clip-rule="nonzero"/></clipPath><clipPath id="de7dabc4c7"><path d="M 8.285156 0 L 174.496094 11.574219 L 166.292969 129.339844 L 0.0820312 117.761719 Z M 8.285156 0 " clip-rule="nonzero"/></clipPath><clipPath id="0ef8e8eb0b"><path d="M 8.285156 0 L 174.496094 11.574219 L 166.292969 129.339844 L 0.0820312 117.761719 Z M 8.285156 0 " clip-rule="nonzero"/></clipPath><clipPath id="51a7725f34"><path d="M 38 28 L 75 28 L 75 116 L 38 116 Z M 38 28 " clip-rule="nonzero"/></clipPath><clipPath id="6f98c807cd"><path d="M 8.285156 0 L 174.496094 11.574219 L 166.292969 129.339844 L 0.0820312 117.761719 Z M 8.285156 0 " clip-rule="nonzero"/></clipPath><clipPath id="3c3cc46048"><path d="M 8.285156 0 L 174.496094 11.574219 L 166.292969 129.339844 L 0.0820312 117.761719 Z M 8.285156 0 " clip-rule="nonzero"/></clipPath><clipPath id="56835681a7"><path d="M 8.285156 0 L 174.496094 11.574219 L 166.292969 129.339844 L 0.0820312 117.761719 Z M 8.285156 0 " clip-rule="nonzero"/></clipPath><clipPath id="bef73f94b0"><path d="M 134 10 L 170 10 L 170 98 L 134 98 Z M 134 10 " clip-rule="nonzero"/></clipPath><clipPath id="5e9ad40e5d"><path d="M 8.285156 0 L 174.496094 11.574219 L 166.292969 129.339844 L 0.0820312 117.761719 Z M 8.285156 0 " clip-rule="nonzero"/></clipPath><clipPath id="d594c0813e"><path d="M 8.285156 0 L 174.496094 11.574219 L 166.292969 129.339844 L 0.0820312 117.761719 Z M 8.285156 0 " clip-rule="nonzero"/></clipPath><clipPath id="98d105196b"><path d="M 8.285156 0 L 174.496094 11.574219 L 166.292969 129.339844 L 0.0820312 117.761719 Z M 8.285156 0 " clip-rule="nonzero"/></clipPath><clipPath id="424b2f7940"><path d="M 61 36 L 84 36 L 84 115 L 61 115 Z M 61 36 " clip-rule="nonzero"/></clipPath><clipPath id="04a6e731ef"><path d="M 8.285156 0 L 174.496094 11.574219 L 166.292969 129.339844 L 0.0820312 117.761719 Z M 8.285156 0 " clip-rule="nonzero"/></clipPath><clipPath id="219b597a78"><path d="M 8.285156 0 L 174.496094 11.574219 L 166.292969 129.339844 L 0.0820312 117.761719 Z M 8.285156 0 " clip-rule="nonzero"/></clipPath><clipPath id="6255b3188f"><path d="M 8.285156 0 L 174.496094 11.574219 L 166.292969 129.339844 L 0.0820312 117.761719 Z M 8.285156 0 " clip-rule="nonzero"/></clipPath><clipPath id="c27a9f4a48"><path d="M 85 56 L 121 56 L 121 72 L 85 72 Z M 85 56 " clip-rule="nonzero"/></clipPath><clipPath id="8a0b38d9a1"><path d="M 8.285156 0 L 174.496094 11.574219 L 166.292969 129.339844 L 0.0820312 117.761719 Z M 8.285156 0 " clip-rule="nonzero"/></clipPath><clipPath id="222a5cd2be"><path d="M 8.285156 0 L 174.496094 11.574219 L 166.292969 129.339844 L 0.0820312 117.761719 Z M 8.285156 0 " clip-rule="nonzero"/></clipPath><clipPath id="f7447434e8"><path d="M 8.285156 0 L 174.496094 11.574219 L 166.292969 129.339844 L 0.0820312 117.761719 Z M 8.285156 0 " clip-rule="nonzero"/></clipPath><clipPath id="e83a080250"><path d="M 84 53 L 120 53 L 120 65 L 84 65 Z M 84 53 " clip-rule="nonzero"/></clipPath><clipPath id="9f2224a0c5"><path d="M 8.285156 0 L 174.496094 11.574219 L 166.292969 129.339844 L 0.0820312 117.761719 Z M 8.285156 0 " clip-rule="nonzero"/></clipPath><clipPath id="1c8128adbe"><path d="M 8.285156 0 L 174.496094 11.574219 L 166.292969 129.339844 L 0.0820312 117.761719 Z M 8.285156 0 " clip-rule="nonzero"/></clipPath><clipPath id="814963df0f"><path d="M 8.285156 0 L 174.496094 11.574219 L 166.292969 129.339844 L 0.0820312 117.761719 Z M 8.285156 0 " clip-rule="nonzero"/></clipPath><clipPath id="55d5110074"><path d="M 114 49 L 126 49 L 126 69 L 114 69 Z M 114 49 " clip-rule="nonzero"/></clipPath><clipPath id="6b64c18221"><path d="M 8.285156 0 L 174.496094 11.574219 L 166.292969 129.339844 L 0.0820312 117.761719 Z M 8.285156 0 " clip-rule="nonzero"/></clipPath><clipPath id="f9dab3f76e"><path d="M 8.285156 0 L 174.496094 11.574219 L 166.292969 129.339844 L 0.0820312 117.761719 Z M 8.285156 0 " clip-rule="nonzero"/></clipPath><clipPath id="db1d1b35ea"><path d="M 8.285156 0 L 174.496094 11.574219 L 166.292969 129.339844 L 0.0820312 117.761719 Z M 8.285156 0 " clip-rule="nonzero"/></clipPath><clipPath id="e0304ab7cc"><path d="M 47 26 L 66 26 L 66 36 L 47 36 Z M 47 26 " clip-rule="nonzero"/></clipPath><clipPath id="15c5732d62"><path d="M 8.285156 0 L 174.496094 11.574219 L 166.292969 129.339844 L 0.0820312 117.761719 Z M 8.285156 0 " clip-rule="nonzero"/></clipPath><clipPath id="4d927b29d3"><path d="M 8.285156 0 L 174.496094 11.574219 L 166.292969 129.339844 L 0.0820312 117.761719 Z M 8.285156 0 " clip-rule="nonzero"/></clipPath><clipPath id="2f728bc14d"><path d="M 8.285156 0 L 174.496094 11.574219 L 166.292969 129.339844 L 0.0820312 117.761719 Z M 8.285156 0 " clip-rule="nonzero"/></clipPath><clipPath id="6a9feee615"><path d="M 60 32 L 71 32 L 71 39 L 60 39 Z M 60 32 " clip-rule="nonzero"/></clipPath><clipPath id="739def6199"><path d="M 8.285156 0 L 174.496094 11.574219 L 166.292969 129.339844 L 0.0820312 117.761719 Z M 8.285156 0 " clip-rule="nonzero"/></clipPath><clipPath id="1b81ccd262"><path d="M 8.285156 0 L 174.496094 11.574219 L 166.292969 129.339844 L 0.0820312 117.761719 Z M 8.285156 0 " clip-rule="nonzero"/></clipPath><clipPath id="67e8462fae"><path d="M 8.285156 0 L 174.496094 11.574219 L 166.292969 129.339844 L 0.0820312 117.761719 Z M 8.285156 0 " clip-rule="nonzero"/></clipPath><clipPath id="60b77ad9af"><path d="M 9 43 L 57 43 L 57 108 L 9 108 Z M 9 43 " clip-rule="nonzero"/></clipPath><clipPath id="acc24bd30b"><path d="M 8.285156 0 L 174.496094 11.574219 L 166.292969 129.339844 L 0.0820312 117.761719 Z M 8.285156 0 " clip-rule="nonzero"/></clipPath><clipPath id="8a9eee1470"><path d="M 8.285156 0 L 174.496094 11.574219 L 166.292969 129.339844 L 0.0820312 117.761719 Z M 8.285156 0 " clip-rule="nonzero"/></clipPath><clipPath id="5049cee1e3"><path d="M 8.285156 0 L 174.496094 11.574219 L 166.292969 129.339844 L 0.0820312 117.761719 Z M 8.285156 0 " clip-rule="nonzero"/></clipPath><clipPath id="af881a788c"><path d="M 11 46 L 49 46 L 49 106 L 11 106 Z M 11 46 " clip-rule="nonzero"/></clipPath><clipPath id="45d9c685c0"><path d="M 8.285156 0 L 174.496094 11.574219 L 166.292969 129.339844 L 0.0820312 117.761719 Z M 8.285156 0 " clip-rule="nonzero"/></clipPath><clipPath id="cc678aeb1c"><path d="M 8.285156 0 L 174.496094 11.574219 L 166.292969 129.339844 L 0.0820312 117.761719 Z M 8.285156 0 " clip-rule="nonzero"/></clipPath><clipPath id="4354aebeb7"><path d="M 8.285156 0 L 174.496094 11.574219 L 166.292969 129.339844 L 0.0820312 117.761719 Z M 8.285156 0 " clip-rule="nonzero"/></clipPath><clipPath id="ec802fff0c"><path d="M 34 45 L 55 45 L 55 104 L 34 104 Z M 34 45 " clip-rule="nonzero"/></clipPath><clipPath id="15558c2083"><path d="M 8.285156 0 L 174.496094 11.574219 L 166.292969 129.339844 L 0.0820312 117.761719 Z M 8.285156 0 " clip-rule="nonzero"/></clipPath><clipPath id="c4c7dbb815"><path d="M 8.285156 0 L 174.496094 11.574219 L 166.292969 129.339844 L 0.0820312 117.761719 Z M 8.285156 0 " clip-rule="nonzero"/></clipPath><clipPath id="80b4531cb1"><path d="M 8.285156 0 L 174.496094 11.574219 L 166.292969 129.339844 L 0.0820312 117.761719 Z M 8.285156 0 " clip-rule="nonzero"/></clipPath><clipPath id="7abbdd8ae4"><path d="M 14 63 L 39 63 L 39 89 L 14 89 Z M 14 63 " clip-rule="nonzero"/></clipPath><clipPath id="c6b2b5d49c"><path d="M 8.285156 0 L 174.496094 11.574219 L 166.292969 129.339844 L 0.0820312 117.761719 Z M 8.285156 0 " clip-rule="nonzero"/></clipPath><clipPath id="d1d702bbab"><path d="M 8.285156 0 L 174.496094 11.574219 L 166.292969 129.339844 L 0.0820312 117.761719 Z M 8.285156 0 " clip-rule="nonzero"/></clipPath><clipPath id="c9eed20ba2"><path d="M 8.285156 0 L 174.496094 11.574219 L 166.292969 129.339844 L 0.0820312 117.761719 Z M 8.285156 0 " clip-rule="nonzero"/></clipPath><clipPath id="7b05a0983e"><path d="M 24 65 L 37 65 L 37 87 L 24 87 Z M 24 65 " clip-rule="nonzero"/></clipPath><clipPath id="c8b9856527"><path d="M 8.285156 0 L 174.496094 11.574219 L 166.292969 129.339844 L 0.0820312 117.761719 Z M 8.285156 0 " clip-rule="nonzero"/></clipPath><clipPath id="e7efc1c697"><path d="M 8.285156 0 L 174.496094 11.574219 L 166.292969 129.339844 L 0.0820312 117.761719 Z M 8.285156 0 " clip-rule="nonzero"/></clipPath><clipPath id="bb60da70ac"><path d="M 8.285156 0 L 174.496094 11.574219 L 166.292969 129.339844 L 0.0820312 117.761719 Z M 8.285156 0 " clip-rule="nonzero"/></clipPath><clipPath id="4b2f6bdebc"><path d="M 16 72 L 25 72 L 25 84 L 16 84 Z M 16 72 " clip-rule="nonzero"/></clipPath><clipPath id="5bad1150fa"><path d="M 8.285156 0 L 174.496094 11.574219 L 166.292969 129.339844 L 0.0820312 117.761719 Z M 8.285156 0 " clip-rule="nonzero"/></clipPath><clipPath id="394173a627"><path d="M 8.285156 0 L 174.496094 11.574219 L 166.292969 129.339844 L 0.0820312 117.761719 Z M 8.285156 0 " clip-rule="nonzero"/></clipPath><clipPath id="967087c6e6"><path d="M 8.285156 0 L 174.496094 11.574219 L 166.292969 129.339844 L 0.0820312 117.761719 Z M 8.285156 0 " clip-rule="nonzero"/></clipPath><clipPath id="7505ef53cf"><path d="M 25 73 L 32 73 L 32 83 L 25 83 Z M 25 73 " clip-rule="nonzero"/></clipPath><clipPath id="01f622de01"><path d="M 8.285156 0 L 174.496094 11.574219 L 166.292969 129.339844 L 0.0820312 117.761719 Z M 8.285156 0 " clip-rule="nonzero"/></clipPath><clipPath id="8364f5ae68"><path d="M 8.285156 0 L 174.496094 11.574219 L 166.292969 129.339844 L 0.0820312 117.761719 Z M 8.285156 0 " clip-rule="nonzero"/></clipPath><clipPath id="3fcf447dbd"><path d="M 8.285156 0 L 174.496094 11.574219 L 166.292969 129.339844 L 0.0820312 117.761719 Z M 8.285156 0 " clip-rule="nonzero"/></clipPath><clipPath id="30fdff05d5"><path d="M 23 70 L 31 70 L 31 76 L 23 76 Z M 23 70 " clip-rule="nonzero"/></clipPath><clipPath id="e07be22c34"><path d="M 8.285156 0 L 174.496094 11.574219 L 166.292969 129.339844 L 0.0820312 117.761719 Z M 8.285156 0 " clip-rule="nonzero"/></clipPath><clipPath id="9708daa921"><path d="M 8.285156 0 L 174.496094 11.574219 L 166.292969 129.339844 L 0.0820312 117.761719 Z M 8.285156 0 " clip-rule="nonzero"/></clipPath><clipPath id="de5ee49c4c"><path d="M 8.285156 0 L 174.496094 11.574219 L 166.292969 129.339844 L 0.0820312 117.761719 Z M 8.285156 0 " clip-rule="nonzero"/></clipPath></defs><g clip-path="url(#d962bdbe3e)"><g clip-path="url(#4b2ffcab16)"><g clip-path="url(#c977f14008)"><g clip-path="url(#2bb10b4ba7)"><path fill="#ffffff" d="M 41.933594 67.5 C 42.097656 67.511719 42.308594 67.5625 42.382812 67.734375 C 43.902344 71.421875 45.402344 74.683594 48.347656 77.246094 C 50.632812 79.234375 52.882812 80.320312 55.035156 80.46875 C 55.535156 80.503906 56.042969 80.488281 56.535156 80.425781 C 60.007812 79.960938 63.398438 79.453125 66.726562 78.378906 C 67.996094 77.96875 69.191406 77.191406 70.285156 76.070312 C 71.25 75.074219 72.101562 73.828125 72.742188 72.472656 C 74.535156 68.683594 75.3125 64.429688 74.996094 60.167969 C 74.707031 56.304688 73.558594 52.582031 71.671875 49.394531 C 69.078125 45.015625 65.367188 42.25 61.742188 41.996094 C 61.457031 41.976562 61.171875 41.972656 60.894531 41.984375 C 57.679688 42.097656 54.566406 42.78125 51.554688 43.441406 C 51.300781 43.496094 51.050781 43.554688 50.796875 43.609375 C 48.507812 44.109375 46.351562 45.828125 44.390625 48.722656 C 41.75 52.621094 41.289062 57.15625 41.191406 61.078125 C 41.1875 61.148438 41.148438 61.222656 41.074219 61.289062 C 40.824219 61.515625 40.199219 61.675781 39.710938 61.644531 C 39.5 61.628906 39.347656 61.578125 39.269531 61.5 C 38.453125 58.40625 36.78125 55.277344 34.683594 52.925781 C 32.234375 50.171875 29.363281 48.609375 26.390625 48.402344 C 25.484375 48.339844 24.5625 48.402344 23.644531 48.589844 L 16.226562 50.109375 C 13.515625 50.664062 11.210938 52.625 9.375 55.941406 C 7.484375 59.359375 6.601562 63.398438 6.828125 67.628906 C 7.03125 71.429688 8.144531 75.351562 9.96875 78.664062 C 12.710938 83.652344 16.726562 86.796875 20.710938 87.074219 C 21.285156 87.113281 21.863281 87.097656 22.429688 87.019531 C 25.542969 86.597656 28.398438 86.035156 31.417969 85.25 C 33.527344 84.699219 35.460938 83.074219 37.171875 80.421875 C 39.222656 77.234375 40.199219 73.511719 40.339844 68.347656 C 40.34375 68.21875 40.417969 68.085938 40.554688 67.964844 C 40.875 67.675781 41.492188 67.46875 41.9375 67.5 Z M 41.933594 67.5 " fill-opacity="1" fill-rule="nonzero"/><path fill="#0d0d0d" d="M 22.429688 87.015625 C 11.878906 88.445312 1.949219 69.367188 9.382812 55.941406 C 10.914062 53.179688 13.125 50.75 16.226562 50.113281 L 23.648438 48.597656 C 31.492188 46.992188 37.511719 54.847656 39.261719 61.503906 C 39.617188 61.847656 41.183594 61.550781 41.195312 61.078125 C 41.308594 56.71875 41.882812 52.4375 44.398438 48.726562 C 45.925781 46.472656 48.027344 44.21875 50.796875 43.613281 C 54.132812 42.886719 57.417969 42.113281 60.894531 41.988281 C 70.363281 41.652344 79.464844 58.25 72.738281 72.46875 C 71.515625 75.050781 69.40625 77.507812 66.726562 78.375 C 63.390625 79.449219 60.007812 79.953125 56.535156 80.417969 C 53.421875 80.832031 50.589844 79.1875 48.351562 77.242188 C 45.394531 74.667969 43.867188 71.320312 42.386719 67.734375 C 42.152344 67.160156 40.351562 67.691406 40.332031 68.347656 C 40.214844 72.679688 39.511719 76.773438 37.164062 80.417969 C 35.804688 82.527344 33.9375 84.585938 31.417969 85.242188 C 28.496094 86.003906 25.632812 86.578125 22.429688 87.011719 Z M 22.429688 87.015625 " fill-opacity="1" fill-rule="nonzero"/></g></g></g></g><g clip-path="url(#a5c5436f45)"><g clip-path="url(#dd87ffcbe7)"><g clip-path="url(#806aaa0ec7)"><g clip-path="url(#e9d5f8732b)"><path fill="#4f4f4f" d="M 43.203125 67.351562 C 45.980469 66.800781 48.652344 65.859375 51.476562 65.878906 C 52.398438 65.886719 53.097656 67.148438 54.292969 66.742188 C 55.039062 66.488281 56.003906 66.140625 56.582031 65.0625 C 57.726562 62.9375 57.390625 60.285156 55.691406 58.539062 C 54.839844 57.667969 53.867188 57.6875 52.75 57.636719 C 51.671875 57.589844 51.324219 59.132812 50.417969 59.480469 C 47.792969 60.484375 44.921875 60.335938 42.097656 61.230469 C 40.96875 54.164062 46.488281 42.644531 54.394531 44.03125 C 66.617188 46.175781 70.988281 68.316406 61.855469 77.226562 C 58.609375 80.390625 53.875 80.492188 50.207031 77.785156 C 46.769531 75.253906 44.53125 71.640625 43.203125 67.347656 Z M 43.203125 67.351562 " fill-opacity="1" fill-rule="nonzero"/></g></g></g></g><g clip-path="url(#2086a03c3b)"><g clip-path="url(#404eea3d26)"><g clip-path="url(#be872a3dba)"><g clip-path="url(#adfe0a05c4)"><path fill="#515150" d="M 17.5 85.394531 C 15.175781 84.246094 13.421875 82.488281 11.953125 80.398438 C 7.828125 74.535156 6.5 67.050781 8.417969 60.132812 C 9.789062 55.179688 14.152344 49.488281 19.585938 50.554688 C 23.308594 51.289062 26.433594 53.738281 28.332031 57.003906 C 32.046875 63.394531 33.003906 71.023438 30.78125 78.0625 C 30.03125 80.433594 28.714844 82.480469 26.980469 84.085938 C 24.363281 86.503906 20.847656 87.050781 17.5 85.394531 Z M 17.5 85.394531 " fill-opacity="1" fill-rule="nonzero"/></g></g></g></g><g clip-path="url(#932f99b7ae)"><g clip-path="url(#0f6ac92266)"><g clip-path="url(#29a7d60606)"><g clip-path="url(#9f139f8901)"><path fill="#535352" d="M 69.902344 68.9375 C 68.980469 72.753906 66.023438 78.066406 61.476562 78.675781 C 71.234375 70.53125 69.003906 48.496094 56.046875 43.4375 C 60.214844 42.609375 64.765625 45.992188 67.007812 49.722656 C 70.460938 55.472656 71.484375 62.386719 69.902344 68.9375 Z M 69.902344 68.9375 " fill-opacity="1" fill-rule="nonzero"/></g></g></g></g><g clip-path="url(#6e4e94a609)"><g clip-path="url(#c57d0eaf77)"><g clip-path="url(#d706294207)"><g clip-path="url(#e50f80b3e7)"><path fill="#575655" d="M 34.046875 78.484375 C 32.761719 81.652344 30.613281 84.160156 27.433594 85.195312 C 28.957031 82.945312 30.53125 81.257812 31.351562 78.808594 C 33.738281 71.640625 33.078125 63.890625 29.421875 57.28125 C 27.472656 53.757812 24.511719 51.339844 20.832031 49.890625 C 23.035156 49.453125 25.03125 50.058594 26.675781 51.238281 C 27.613281 51.914062 28.832031 52.308594 29.640625 53.117188 C 35.78125 59.234375 37.351562 70.34375 34.050781 78.480469 Z M 34.046875 78.484375 " fill-opacity="1" fill-rule="nonzero"/></g></g></g></g><g clip-path="url(#3ade2f3110)"><g clip-path="url(#48f0769b13)"><g clip-path="url(#ca4d4c23a7)"><g clip-path="url(#1de305e0e3)"><path fill="#515151" d="M 65.742188 77.820312 C 73.046875 70.792969 72.726562 58.496094 68.246094 50.179688 C 66.382812 46.726562 63.632812 44.554688 60.214844 42.652344 C 64.820312 42.664062 68.355469 45.460938 70.617188 49.074219 C 75.125 56.289062 75.628906 65.742188 71.457031 73.167969 C 70.191406 75.425781 68.3125 77.378906 65.738281 77.820312 Z M 65.742188 77.820312 " fill-opacity="1" fill-rule="nonzero"/></g></g></g></g><g clip-path="url(#703ab9d4c7)"><g clip-path="url(#dfa0296f27)"><g clip-path="url(#5399a1f656)"><g clip-path="url(#889e93c340)"><path fill="#535351" d="M 31.339844 53.773438 C 31.800781 53.007812 33.238281 53.191406 34.015625 53.417969 C 40.464844 60.269531 41.507812 73.425781 35.699219 81.210938 C 34.390625 82.964844 32.703125 84.328125 30.523438 84.539062 C 38.933594 77.929688 37.992188 61.574219 31.339844 53.773438 Z M 31.339844 53.773438 " fill-opacity="1" fill-rule="nonzero"/></g></g></g></g><g clip-path="url(#9bcfb67223)"><g clip-path="url(#137b68822a)"><g clip-path="url(#a5264e2134)"><g clip-path="url(#b7f4948608)"><path fill="#bdbcbb" d="M 40.023438 64.433594 L 39.976562 63.992188 C 44.636719 63.039062 49.375 62.152344 54.203125 61.332031 C 54.683594 62.046875 54.785156 64.039062 53.648438 64.28125 L 40.355469 67.121094 Z M 40.023438 64.433594 " fill-opacity="1" fill-rule="nonzero"/></g></g></g></g><g clip-path="url(#627a65ba80)"><g clip-path="url(#c0905a23bd)"><g clip-path="url(#e89f122cee)"><g clip-path="url(#0282e83662)"><path fill="#fafbfa" d="M 54.203125 61.332031 C 54.242188 61.894531 53.792969 62.195312 53.125 62.304688 L 40.023438 64.433594 C 39.828125 63.953125 39.347656 62.617188 39.8125 62.480469 C 44.09375 61.449219 48.242188 60.734375 52.574219 60.15625 C 53.4375 60.039062 54.152344 60.695312 54.203125 61.332031 Z M 54.203125 61.332031 " fill-opacity="1" fill-rule="nonzero"/></g></g></g></g><g clip-path="url(#6a193f1964)"><g clip-path="url(#84c96a1f70)"><g clip-path="url(#caa822cf30)"><g clip-path="url(#b21efffd4a)"><path fill="#4f4f4f" d="M 55.789062 64.789062 C 55.023438 66.011719 53.621094 66.246094 52.703125 65.496094 C 54.589844 65.226562 55.503906 63.714844 55.332031 62.03125 C 55.164062 60.375 53.972656 59.175781 51.882812 59.214844 C 52.695312 57.832031 54.375 58.226562 55.238281 59.230469 C 56.574219 60.78125 56.925781 62.957031 55.789062 64.789062 Z M 55.789062 64.789062 " fill-opacity="1" fill-rule="nonzero"/></g></g></g></g><g clip-path="url(#309d8021ff)"><g clip-path="url(#02aa3e1f58)"><g clip-path="url(#ab1cd1a552)"><g clip-path="url(#e9018e073c)"><path fill="#595756" d="M 31.804688 51.542969 C 32.101562 52.289062 31.519531 52.6875 30.058594 52.734375 C 28.71875 51.117188 26.925781 50.113281 24.613281 49.226562 C 27.328125 48.582031 29.742188 49.910156 31.800781 51.542969 Z M 31.804688 51.542969 " fill-opacity="1" fill-rule="nonzero"/></g></g></g></g><g clip-path="url(#ff72771378)"><g clip-path="url(#fd4b2f5cc3)"><g clip-path="url(#6266aca56f)"><g clip-path="url(#a8a1a452ec)"><path fill="#817f7b" d="M 34.015625 53.417969 C 33.4375 54.195312 32.203125 53.96875 31.339844 53.773438 C 30.914062 53.277344 30.304688 53.152344 30.058594 52.734375 C 30.074219 51.679688 31.289062 52.128906 31.804688 51.542969 C 32.714844 52.261719 33.328125 52.6875 34.015625 53.417969 Z M 34.015625 53.417969 " fill-opacity="1" fill-rule="nonzero"/></g></g></g></g><g clip-path="url(#36b1f5a8db)"><g clip-path="url(#c80db1842c)"><g clip-path="url(#9bb3bf5baf)"><g clip-path="url(#44fcf551bb)"><path fill="#0f0e0e" d="M 21.296875 81.304688 C 18.25 82.300781 15.179688 81.460938 13.171875 78.996094 C 9.152344 74.058594 8.179688 67.109375 10.535156 61.230469 C 11.746094 58.207031 14.246094 56.328125 17.476562 56.277344 C 20.078125 55.570312 22.5625 56.527344 24.398438 58.640625 C 28.917969 63.847656 29.761719 71.746094 26.558594 77.851562 C 25.480469 79.910156 23.691406 81.183594 21.296875 81.304688 Z M 21.296875 81.304688 " fill-opacity="1" fill-rule="nonzero"/></g></g></g></g><g clip-path="url(#33037ed335)"><g clip-path="url(#3cdf133500)"><g clip-path="url(#b3c821e9fb)"><g clip-path="url(#6cd23c5655)"><path fill="#505050" d="M 20 58.324219 C 27.417969 64.082031 26.4375 79.234375 19.777344 80.835938 C 18.027344 81.257812 16.183594 80.6875 14.8125 79.539062 C 9.726562 75.277344 8.234375 65.007812 12.621094 59.257812 C 14.511719 56.78125 17.601562 56.460938 20 58.324219 Z M 20 58.324219 " fill-opacity="1" fill-rule="nonzero"/></g></g></g></g><g clip-path="url(#83f136f183)"><g clip-path="url(#353c62e88e)"><g clip-path="url(#306189247f)"><g clip-path="url(#0f89d37cec)"><path fill="#514f4e" d="M 22.875 80.050781 C 28.3125 73.40625 26.316406 60.902344 19.21875 56.855469 C 21.234375 56.726562 22.734375 57.882812 23.917969 59.320312 C 27.863281 64.105469 28.804688 70.902344 26.355469 76.605469 C 25.691406 78.152344 24.703125 79.605469 22.875 80.050781 Z M 22.875 80.050781 " fill-opacity="1" fill-rule="nonzero"/></g></g></g></g><g clip-path="url(#58dfdf6f37)"><g clip-path="url(#d80350bc2a)"><g clip-path="url(#3497b050e2)"><g clip-path="url(#a3665cc411)"><path fill="#0d0d0d" d="M 15.128906 73.089844 C 12.964844 72.777344 11.699219 72.210938 11.355469 70.140625 C 11.015625 68.078125 12.078125 66.945312 13.867188 66.179688 C 14.6875 65.828125 14.933594 64.25 15.929688 64.160156 C 17.285156 64.039062 18.308594 64.121094 19.289062 65.164062 C 21.191406 67.191406 21.589844 70.347656 20.15625 72.761719 C 19.601562 73.699219 18.640625 73.855469 18.003906 74.136719 C 16.84375 74.648438 16.015625 73.21875 15.128906 73.089844 Z M 15.128906 73.089844 " fill-opacity="1" fill-rule="nonzero"/></g></g></g></g><g clip-path="url(#13a437d1be)"><g clip-path="url(#2b66fccd7f)"><g clip-path="url(#eaeeacda52)"><g clip-path="url(#f00140acb4)"><path fill="#4d4c4e" d="M 16.265625 72.636719 C 17.417969 72.332031 18.429688 71.945312 18.804688 71.046875 C 19.566406 69.246094 18.574219 66.964844 17.382812 66.296875 C 16.683594 65.902344 16.03125 66.203125 15.160156 66.296875 C 15.253906 65.445312 15.894531 65.039062 16.484375 64.933594 C 17.132812 64.816406 17.886719 64.945312 18.472656 65.511719 C 20.121094 67.101562 20.683594 69.804688 19.703125 71.886719 C 19.101562 73.167969 17.457031 73.9375 16.265625 72.636719 Z M 16.265625 72.636719 " fill-opacity="1" fill-rule="nonzero"/></g></g></g></g><g clip-path="url(#263daa976d)"><g clip-path="url(#a88e0a7d6c)"><g clip-path="url(#c4ea9d44de)"><g clip-path="url(#a5a7059e99)"><path fill="#cdcac8" d="M 14.074219 71.945312 C 13.042969 72.160156 12.472656 70.933594 12.292969 70.316406 C 12.042969 69.464844 12.007812 67.867188 13.097656 67.574219 C 14.253906 67.261719 14.867188 68.503906 15.011719 69.269531 C 15.167969 70.113281 15.222656 71.707031 14.074219 71.945312 Z M 14.074219 71.945312 " fill-opacity="1" fill-rule="nonzero"/></g></g></g></g><g clip-path="url(#ff345f3a10)"><g clip-path="url(#baa71bc1d0)"><g clip-path="url(#747f1219cb)"><g clip-path="url(#899adfe08d)"><path fill="#b8b8b7" d="M 15.945312 68.988281 C 16.261719 68.085938 17.183594 67.925781 17.929688 68.460938 C 18.332031 69.382812 18.527344 70.183594 17.839844 71.039062 C 17.496094 71.46875 16.695312 71.78125 15.714844 71.609375 C 15.878906 70.625 15.980469 69.824219 15.945312 68.988281 Z M 15.945312 68.988281 " fill-opacity="1" fill-rule="nonzero"/></g></g></g></g><g clip-path="url(#8cffdb86ea)"><g clip-path="url(#e705db4278)"><g clip-path="url(#7ba0ef7e72)"><g clip-path="url(#d48653d6a8)"><path fill="#f3f2f1" d="M 17.929688 68.460938 C 17.363281 68.886719 16.632812 68.921875 15.945312 68.988281 C 15.472656 68.460938 15.195312 68.023438 14.886719 67.53125 C 15.328125 66.910156 16.128906 66.9375 16.808594 66.980469 C 17.761719 67.042969 17.652344 67.828125 17.929688 68.460938 Z M 17.929688 68.460938 " fill-opacity="1" fill-rule="nonzero"/></g></g></g></g><g clip-path="url(#8605f59599)"><g clip-path="url(#47b618af88)"><g clip-path="url(#0b79ae34a3)"><g clip-path="url(#4435b1f606)"><path fill="#ffffff" d="M 89.800781 72.035156 C 90.203125 72.066406 90.71875 72.1875 90.894531 72.621094 C 94.617188 81.71875 98.289062 89.765625 105.511719 96.09375 C 111.109375 101 116.621094 103.675781 121.894531 104.042969 C 123.125 104.128906 124.363281 104.089844 125.574219 103.925781 C 134.085938 102.777344 142.402344 101.523438 150.5625 98.867188 C 153.671875 97.855469 156.601562 95.933594 159.28125 93.160156 C 161.652344 90.699219 163.738281 87.625 165.316406 84.273438 C 169.710938 74.921875 171.625 64.421875 170.847656 53.898438 C 170.144531 44.363281 167.335938 35.167969 162.714844 27.304688 C 156.367188 16.496094 147.269531 9.675781 138.382812 9.058594 C 137.691406 9.007812 136.992188 8.996094 136.304688 9.023438 C 128.429688 9.308594 120.796875 11 113.414062 12.636719 C 112.792969 12.773438 112.171875 12.910156 111.550781 13.050781 C 105.941406 14.285156 100.65625 18.535156 95.84375 25.683594 C 89.363281 35.304688 88.234375 46.503906 87.980469 56.1875 C 87.976562 56.363281 87.882812 56.539062 87.695312 56.707031 C 87.082031 57.265625 85.550781 57.664062 84.355469 57.582031 C 83.84375 57.546875 83.46875 57.425781 83.273438 57.234375 C 81.277344 49.589844 77.183594 41.875 72.046875 36.066406 C 66.039062 29.277344 59.011719 25.421875 51.722656 24.914062 C 49.503906 24.757812 47.238281 24.914062 44.996094 25.378906 L 26.804688 29.136719 C 20.160156 30.507812 14.507812 35.355469 10.007812 43.539062 C 5.363281 51.980469 3.199219 61.960938 3.746094 72.398438 C 4.238281 81.785156 6.964844 91.460938 11.429688 99.644531 C 18.144531 111.953125 27.988281 119.707031 37.757812 120.390625 C 39.164062 120.488281 40.578125 120.441406 41.96875 120.25 C 49.597656 119.203125 56.597656 117.808594 64.003906 115.867188 C 69.167969 114.511719 73.910156 110.5 78.105469 103.941406 C 83.136719 96.078125 85.539062 86.882812 85.890625 74.128906 C 85.898438 73.816406 86.078125 73.488281 86.417969 73.183594 C 87.199219 72.476562 88.714844 71.960938 89.804688 72.035156 Z M 89.800781 72.035156 " fill-opacity="1" fill-rule="nonzero"/><path fill="#0d0d0d" d="M 41.964844 120.238281 C 16.101562 123.78125 -8.210938 76.695312 10.019531 43.546875 C 13.773438 36.71875 19.203125 30.722656 26.808594 29.152344 L 44.996094 25.394531 C 64.230469 21.421875 78.972656 40.808594 83.257812 57.238281 C 84.128906 58.089844 87.96875 57.351562 87.996094 56.1875 C 88.277344 45.429688 89.691406 34.851562 95.859375 25.691406 C 99.609375 20.125 104.765625 14.558594 111.558594 13.0625 C 119.734375 11.261719 127.785156 9.347656 136.308594 9.035156 C 159.519531 8.195312 181.808594 49.160156 165.304688 84.265625 C 162.304688 90.640625 157.128906 96.710938 150.558594 98.851562 C 142.382812 101.511719 134.082031 102.757812 125.574219 103.910156 C 117.945312 104.9375 111 100.882812 105.523438 96.078125 C 98.277344 89.730469 94.535156 81.472656 90.910156 72.613281 C 90.332031 71.203125 85.917969 72.515625 85.871094 74.128906 C 85.578125 84.828125 83.851562 94.933594 78.089844 103.933594 C 74.757812 109.144531 70.171875 114.230469 63.996094 115.851562 C 56.835938 117.734375 49.816406 119.160156 41.964844 120.234375 Z M 41.964844 120.238281 " fill-opacity="1" fill-rule="nonzero"/></g></g></g></g><g clip-path="url(#b982ffd67c)"><g clip-path="url(#66f1e6c52f)"><g clip-path="url(#127f03feae)"><g clip-path="url(#7697b8123d)"><path fill="#4f4f4f" d="M 92.910156 71.667969 C 99.71875 70.304688 106.269531 67.984375 113.1875 68.027344 C 115.457031 68.042969 117.160156 71.160156 120.097656 70.148438 C 121.921875 69.523438 124.289062 68.667969 125.710938 66.007812 C 128.515625 60.761719 127.691406 54.207031 123.53125 49.902344 C 121.449219 47.746094 119.0625 47.796875 116.328125 47.675781 C 113.675781 47.558594 112.828125 51.371094 110.609375 52.226562 C 104.167969 54.710938 97.132812 54.351562 90.210938 56.5625 C 87.449219 39.117188 100.988281 10.671875 120.367188 14.085938 C 150.328125 19.363281 161.015625 74.023438 138.621094 96.023438 C 130.660156 103.84375 119.054688 104.09375 110.0625 97.417969 C 101.648438 91.171875 96.15625 82.257812 92.910156 71.664062 Z M 92.910156 71.667969 " fill-opacity="1" fill-rule="nonzero"/></g></g></g></g><g clip-path="url(#f7d326e621)"><g clip-path="url(#81b209ec61)"><g clip-path="url(#5ef7583727)"><g clip-path="url(#9514f9603a)"><path fill="#515150" d="M 29.882812 116.246094 C 24.1875 113.410156 19.894531 109.070312 16.296875 103.917969 C 6.183594 89.449219 2.941406 70.96875 7.648438 53.894531 C 11.023438 41.660156 21.71875 27.605469 35.039062 30.238281 C 44.167969 32.039062 51.824219 38.085938 56.46875 46.140625 C 65.566406 61.921875 67.90625 80.742188 62.449219 98.125 C 60.605469 103.984375 57.378906 109.035156 53.121094 113 C 46.703125 118.972656 38.085938 120.332031 29.882812 116.246094 Z M 29.882812 116.246094 " fill-opacity="1" fill-rule="nonzero"/></g></g></g></g><g clip-path="url(#a7491837f6)"><g clip-path="url(#1bb3f4d097)"><g clip-path="url(#de7dabc4c7)"><g clip-path="url(#0ef8e8eb0b)"><path fill="#535352" d="M 158.355469 75.550781 C 156.089844 84.972656 148.839844 98.097656 137.683594 99.609375 C 161.621094 79.480469 156.179688 25.09375 124.417969 12.617188 C 134.636719 10.566406 145.792969 18.914062 151.28125 28.121094 C 159.734375 42.308594 162.242188 59.375 158.355469 75.554688 Z M 158.355469 75.550781 " fill-opacity="1" fill-rule="nonzero"/></g></g></g></g><g clip-path="url(#51a7725f34)"><g clip-path="url(#6f98c807cd)"><g clip-path="url(#3c3cc46048)"><g clip-path="url(#56835681a7)"><path fill="#575655" d="M 70.457031 99.164062 C 67.296875 106.988281 62.027344 113.183594 54.234375 115.734375 C 57.972656 110.1875 61.835938 106.019531 63.839844 99.96875 C 69.707031 82.269531 68.09375 63.140625 59.136719 46.824219 C 54.367188 38.136719 47.113281 32.164062 38.097656 28.589844 C 43.492188 27.511719 48.386719 29 52.417969 31.917969 C 54.710938 33.574219 57.695312 34.554688 59.675781 36.542969 C 74.726562 51.644531 78.566406 79.066406 70.457031 99.160156 Z M 70.457031 99.164062 " fill-opacity="1" fill-rule="nonzero"/></g></g></g></g><g clip-path="url(#bef73f94b0)"><g clip-path="url(#5e9ad40e5d)"><g clip-path="url(#d594c0813e)"><g clip-path="url(#98d105196b)"><path fill="#515151" d="M 148.140625 97.484375 C 166.0625 80.132812 165.292969 49.777344 154.3125 29.25 C 149.757812 20.726562 143.011719 15.367188 134.636719 10.675781 C 145.929688 10.699219 154.59375 17.601562 160.125 26.519531 C 171.175781 44.328125 172.394531 67.65625 162.164062 85.992188 C 159.050781 91.570312 154.449219 96.394531 148.140625 97.484375 Z M 148.140625 97.484375 " fill-opacity="1" fill-rule="nonzero"/></g></g></g></g><g clip-path="url(#424b2f7940)"><g clip-path="url(#04a6e731ef)"><g clip-path="url(#219b597a78)"><g clip-path="url(#6255b3188f)"><path fill="#535351" d="M 63.84375 38.164062 C 64.972656 36.273438 68.496094 36.722656 70.40625 37.28125 C 86.203125 54.191406 88.742188 86.664062 74.496094 105.898438 C 71.292969 110.222656 67.152344 113.59375 61.808594 114.121094 C 82.4375 97.789062 80.144531 57.410156 63.84375 38.164062 Z M 63.84375 38.164062 " fill-opacity="1" fill-rule="nonzero"/></g></g></g></g><g clip-path="url(#c27a9f4a48)"><g clip-path="url(#8a0b38d9a1)"><g clip-path="url(#222a5cd2be)"><g clip-path="url(#f7447434e8)"><path fill="#bdbcbb" d="M 85.121094 64.46875 L 85.007812 63.382812 C 96.425781 61.023438 108.050781 58.828125 119.878906 56.796875 C 121.0625 58.5625 121.308594 63.472656 118.515625 64.078125 L 85.929688 71.105469 Z M 85.121094 64.46875 " fill-opacity="1" fill-rule="nonzero"/></g></g></g></g><g clip-path="url(#e83a080250)"><g clip-path="url(#9f2224a0c5)"><g clip-path="url(#1c8128adbe)"><g clip-path="url(#814963df0f)"><path fill="#fafbfa" d="M 119.878906 56.796875 C 119.976562 58.183594 118.875 58.925781 117.242188 59.195312 L 85.121094 64.46875 C 84.644531 63.289062 83.464844 59.984375 84.601562 59.648438 C 95.101562 57.097656 105.273438 55.332031 115.890625 53.894531 C 118.007812 53.609375 119.757812 55.222656 119.878906 56.796875 Z M 119.878906 56.796875 " fill-opacity="1" fill-rule="nonzero"/></g></g></g></g><g clip-path="url(#55d5110074)"><g clip-path="url(#6b64c18221)"><g clip-path="url(#f9dab3f76e)"><g clip-path="url(#db1d1b35ea)"><path fill="#4f4f4f" d="M 123.757812 65.324219 C 121.890625 68.351562 118.445312 68.929688 116.195312 67.082031 C 120.824219 66.410156 123.066406 62.679688 122.648438 58.523438 C 122.238281 54.429688 119.316406 51.476562 114.191406 51.574219 C 116.191406 48.160156 120.300781 49.128906 122.417969 51.609375 C 125.6875 55.4375 126.550781 60.808594 123.757812 65.324219 Z M 123.757812 65.324219 " fill-opacity="1" fill-rule="nonzero"/></g></g></g></g><g clip-path="url(#e0304ab7cc)"><g clip-path="url(#15c5732d62)"><g clip-path="url(#4d927b29d3)"><g clip-path="url(#2f728bc14d)"><path fill="#595756" d="M 64.984375 32.652344 C 65.714844 34.5 64.289062 35.480469 60.710938 35.605469 C 57.425781 31.609375 53.03125 29.140625 47.367188 26.945312 C 54.023438 25.351562 59.9375 28.632812 64.984375 32.652344 Z M 64.984375 32.652344 " fill-opacity="1" fill-rule="nonzero"/></g></g></g></g><g clip-path="url(#6a9feee615)"><g clip-path="url(#739def6199)"><g clip-path="url(#1b81ccd262)"><g clip-path="url(#67e8462fae)"><path fill="#817f7b" d="M 70.40625 37.285156 C 68.984375 39.203125 65.957031 38.644531 63.84375 38.167969 C 62.804688 36.9375 61.308594 36.636719 60.710938 35.605469 C 60.746094 32.996094 63.726562 34.101562 64.984375 32.652344 C 67.21875 34.433594 68.726562 35.484375 70.40625 37.285156 Z M 70.40625 37.285156 " fill-opacity="1" fill-rule="nonzero"/></g></g></g></g><g clip-path="url(#60b77ad9af)"><g clip-path="url(#acc24bd30b)"><g clip-path="url(#8a9eee1470)"><g clip-path="url(#5049cee1e3)"><path fill="#0f0e0e" d="M 39.195312 106.144531 C 31.726562 108.609375 24.199219 106.539062 19.28125 100.453125 C 9.4375 88.269531 7.0625 71.117188 12.839844 56.59375 C 15.808594 49.140625 21.941406 44.496094 29.863281 44.367188 C 36.234375 42.617188 42.324219 44.972656 46.824219 50.191406 C 57.902344 63.039062 59.957031 82.535156 52.101562 97.609375 C 49.453125 102.695312 45.066406 105.839844 39.195312 106.140625 Z M 39.195312 106.144531 " fill-opacity="1" fill-rule="nonzero"/></g></g></g></g><g clip-path="url(#af881a788c)"><g clip-path="url(#45d9c685c0)"><g clip-path="url(#cc678aeb1c)"><g clip-path="url(#4354aebeb7)"><path fill="#505050" d="M 36.046875 49.410156 C 54.21875 63.613281 51.796875 101.023438 35.476562 104.988281 C 31.183594 106.03125 26.660156 104.625 23.300781 101.789062 C 10.84375 91.28125 7.199219 65.929688 17.957031 51.726562 C 22.589844 45.609375 30.167969 44.816406 36.046875 49.410156 Z M 36.046875 49.410156 " fill-opacity="1" fill-rule="nonzero"/></g></g></g></g><g clip-path="url(#ec802fff0c)"><g clip-path="url(#15558c2083)"><g clip-path="url(#c4c7dbb815)"><g clip-path="url(#80b4531cb1)"><path fill="#514f4e" d="M 43.0625 103.039062 C 56.40625 86.636719 51.519531 55.769531 34.132812 45.785156 C 39.074219 45.464844 42.746094 48.320312 45.652344 51.867188 C 55.3125 63.675781 57.613281 80.457031 51.597656 94.539062 C 49.96875 98.351562 47.550781 101.949219 43.0625 103.039062 Z M 43.0625 103.039062 " fill-opacity="1" fill-rule="nonzero"/></g></g></g></g><g clip-path="url(#7abbdd8ae4)"><g clip-path="url(#c6b2b5d49c)"><g clip-path="url(#d1d702bbab)"><g clip-path="url(#c9eed20ba2)"><path fill="#0d0d0d" d="M 24.082031 85.871094 C 18.78125 85.105469 15.683594 83.710938 14.84375 78.59375 C 14.007812 73.503906 16.613281 70.703125 21.003906 68.816406 C 23.019531 67.949219 23.621094 64.046875 26.054688 63.828125 C 29.386719 63.523438 31.894531 63.722656 34.292969 66.300781 C 38.953125 71.304688 39.925781 79.097656 36.414062 85.054688 C 35.046875 87.367188 32.691406 87.753906 31.132812 88.449219 C 28.289062 89.714844 26.261719 86.1875 24.082031 85.871094 Z M 24.082031 85.871094 " fill-opacity="1" fill-rule="nonzero"/></g></g></g></g><g clip-path="url(#7b05a0983e)"><g clip-path="url(#c8b9856527)"><g clip-path="url(#e7efc1c697)"><g clip-path="url(#bb60da70ac)"><path fill="#4d4c4e" d="M 26.871094 84.753906 C 29.703125 83.996094 32.175781 83.042969 33.101562 80.824219 C 34.96875 76.378906 32.539062 70.746094 29.621094 69.09375 C 27.90625 68.121094 26.308594 68.863281 24.167969 69.105469 C 24.398438 67.003906 25.976562 65.992188 27.421875 65.730469 C 29.007812 65.441406 30.855469 65.757812 32.292969 67.15625 C 36.328125 71.082031 37.707031 77.75 35.300781 82.894531 C 33.820312 86.058594 29.792969 87.957031 26.867188 84.753906 Z M 26.871094 84.753906 " fill-opacity="1" fill-rule="nonzero"/></g></g></g></g><g clip-path="url(#4b2f6bdebc)"><g clip-path="url(#5bad1150fa)"><g clip-path="url(#394173a627)"><g clip-path="url(#967087c6e6)"><path fill="#cdcac8" d="M 21.5 83.046875 C 18.976562 83.574219 17.582031 80.550781 17.140625 79.027344 C 16.53125 76.921875 16.445312 72.984375 19.113281 72.257812 C 21.953125 71.480469 23.449219 74.550781 23.800781 76.441406 C 24.1875 78.519531 24.320312 82.453125 21.5 83.046875 Z M 21.5 83.046875 " fill-opacity="1" fill-rule="nonzero"/></g></g></g></g><g clip-path="url(#7505ef53cf)"><g clip-path="url(#01f622de01)"><g clip-path="url(#8364f5ae68)"><g clip-path="url(#3fcf447dbd)"><path fill="#b8b8b7" d="M 26.089844 75.742188 C 26.867188 73.511719 29.132812 73.117188 30.957031 74.4375 C 31.945312 76.714844 32.425781 78.691406 30.738281 80.804688 C 29.894531 81.863281 27.925781 82.636719 25.519531 82.214844 C 25.929688 79.78125 26.175781 77.808594 26.089844 75.742188 Z M 26.089844 75.742188 " fill-opacity="1" fill-rule="nonzero"/></g></g></g></g><g clip-path="url(#30fdff05d5)"><g clip-path="url(#e07be22c34)"><g clip-path="url(#9708daa921)"><g clip-path="url(#de5ee49c4c)"><path fill="#f3f2f1" d="M 30.957031 74.441406 C 29.566406 75.488281 27.777344 75.582031 26.089844 75.742188 C 24.9375 74.445312 24.253906 73.359375 23.503906 72.152344 C 24.582031 70.617188 26.542969 70.683594 28.214844 70.792969 C 30.542969 70.945312 30.28125 72.882812 30.957031 74.441406 Z M 30.957031 74.441406 " fill-opacity="1" fill-rule="nonzero"/></g></g></g></g></svg>