<svg xmlns="http://www.w3.org/2000/svg" xmlns:xlink="http://www.w3.org/1999/xlink" width="758" zoomAndPan="magnify" viewBox="0 0 568.5 525.000007" height="700" preserveAspectRatio="xMidYMid meet" version="1.0"><defs><clipPath id="e2baa57f46"><path d="M 214 188 L 355 188 L 355 338 L 214 338 Z M 214 188 " clip-rule="nonzero"/></clipPath><clipPath id="81c8b828e6"><path d="M 217.964844 182.464844 L 369.769531 204.929688 L 349.605469 341.183594 L 197.800781 318.71875 Z M 217.964844 182.464844 " clip-rule="nonzero"/></clipPath><clipPath id="6a62f669c7"><path d="M 217.964844 182.464844 L 369.769531 204.929688 L 349.605469 341.183594 L 197.800781 318.71875 Z M 217.964844 182.464844 " clip-rule="nonzero"/></clipPath><clipPath id="f63ab2ad15"><path d="M 217.964844 182.464844 L 369.769531 204.929688 L 349.605469 341.183594 L 197.800781 318.71875 Z M 217.964844 182.464844 " clip-rule="nonzero"/></clipPath><clipPath id="c3fe75526c"><path d="M 215 209 L 331 209 L 331 336 L 215 336 Z M 215 209 " clip-rule="nonzero"/></clipPath><clipPath id="b00eac34c7"><path d="M 217.964844 182.464844 L 369.769531 204.929688 L 349.605469 341.183594 L 197.800781 318.71875 Z M 217.964844 182.464844 " clip-rule="nonzero"/></clipPath><clipPath id="11b1482fee"><path d="M 217.964844 182.464844 L 369.769531 204.929688 L 349.605469 341.183594 L 197.800781 318.71875 Z M 217.964844 182.464844 " clip-rule="nonzero"/></clipPath><clipPath id="eb658ec6c6"><path d="M 217.964844 182.464844 L 369.769531 204.929688 L 349.605469 341.183594 L 197.800781 318.71875 Z M 217.964844 182.464844 " clip-rule="nonzero"/></clipPath><clipPath id="f43f657a02"><path d="M 303 289 L 342 289 L 342 322 L 303 322 Z M 303 289 " clip-rule="nonzero"/></clipPath><clipPath id="c91c0d2f8c"><path d="M 217.964844 182.464844 L 369.769531 204.929688 L 349.605469 341.183594 L 197.800781 318.71875 Z M 217.964844 182.464844 " clip-rule="nonzero"/></clipPath><clipPath id="d47a9740c8"><path d="M 217.964844 182.464844 L 369.769531 204.929688 L 349.605469 341.183594 L 197.800781 318.71875 Z M 217.964844 182.464844 " clip-rule="nonzero"/></clipPath><clipPath id="5ccac89486"><path d="M 217.964844 182.464844 L 369.769531 204.929688 L 349.605469 341.183594 L 197.800781 318.71875 Z M 217.964844 182.464844 " clip-rule="nonzero"/></clipPath><clipPath id="bf15748d0c"><path d="M 232 210 L 271 210 L 271 244 L 232 244 Z M 232 210 " clip-rule="nonzero"/></clipPath><clipPath id="b90a9a35da"><path d="M 217.964844 182.464844 L 369.769531 204.929688 L 349.605469 341.183594 L 197.800781 318.71875 Z M 217.964844 182.464844 " clip-rule="nonzero"/></clipPath><clipPath id="5fde971f76"><path d="M 217.964844 182.464844 L 369.769531 204.929688 L 349.605469 341.183594 L 197.800781 318.71875 Z M 217.964844 182.464844 " clip-rule="nonzero"/></clipPath><clipPath id="f38897917c"><path d="M 217.964844 182.464844 L 369.769531 204.929688 L 349.605469 341.183594 L 197.800781 318.71875 Z M 217.964844 182.464844 " clip-rule="nonzero"/></clipPath><clipPath id="94f14e3718"><path d="M 297 274 L 325 274 L 325 281 L 297 281 Z M 297 274 " clip-rule="nonzero"/></clipPath><clipPath id="bc4273d6c9"><path d="M 217.964844 182.464844 L 369.769531 204.929688 L 349.605469 341.183594 L 197.800781 318.71875 Z M 217.964844 182.464844 " clip-rule="nonzero"/></clipPath><clipPath id="acffa93bff"><path d="M 217.964844 182.464844 L 369.769531 204.929688 L 349.605469 341.183594 L 197.800781 318.71875 Z M 217.964844 182.464844 " clip-rule="nonzero"/></clipPath><clipPath id="ae8e6549f6"><path d="M 217.964844 182.464844 L 369.769531 204.929688 L 349.605469 341.183594 L 197.800781 318.71875 Z M 217.964844 182.464844 " clip-rule="nonzero"/></clipPath><clipPath id="855452d3a9"><path d="M 246 196 L 255 196 L 255 224 L 246 224 Z M 246 196 " clip-rule="nonzero"/></clipPath><clipPath id="7027f82807"><path d="M 217.964844 182.464844 L 369.769531 204.929688 L 349.605469 341.183594 L 197.800781 318.71875 Z M 217.964844 182.464844 " clip-rule="nonzero"/></clipPath><clipPath id="ea2ee467f0"><path d="M 217.964844 182.464844 L 369.769531 204.929688 L 349.605469 341.183594 L 197.800781 318.71875 Z M 217.964844 182.464844 " clip-rule="nonzero"/></clipPath><clipPath id="68cf94b1b2"><path d="M 217.964844 182.464844 L 369.769531 204.929688 L 349.605469 341.183594 L 197.800781 318.71875 Z M 217.964844 182.464844 " clip-rule="nonzero"/></clipPath><clipPath id="ef285b8d64"><path d="M 265 256 L 271 256 L 271 275 L 265 275 Z M 265 256 " clip-rule="nonzero"/></clipPath><clipPath id="f540fa91a1"><path d="M 217.964844 182.464844 L 369.769531 204.929688 L 349.605469 341.183594 L 197.800781 318.71875 Z M 217.964844 182.464844 " clip-rule="nonzero"/></clipPath><clipPath id="749dfaf0e2"><path d="M 217.964844 182.464844 L 369.769531 204.929688 L 349.605469 341.183594 L 197.800781 318.71875 Z M 217.964844 182.464844 " clip-rule="nonzero"/></clipPath><clipPath id="9ef2b9da58"><path d="M 217.964844 182.464844 L 369.769531 204.929688 L 349.605469 341.183594 L 197.800781 318.71875 Z M 217.964844 182.464844 " clip-rule="nonzero"/></clipPath><clipPath id="196f085602"><path d="M 335 316 L 349 316 L 349 322 L 335 322 Z M 335 316 " clip-rule="nonzero"/></clipPath><clipPath id="02e9625533"><path d="M 217.964844 182.464844 L 369.769531 204.929688 L 349.605469 341.183594 L 197.800781 318.71875 Z M 217.964844 182.464844 " clip-rule="nonzero"/></clipPath><clipPath id="4549760206"><path d="M 217.964844 182.464844 L 369.769531 204.929688 L 349.605469 341.183594 L 197.800781 318.71875 Z M 217.964844 182.464844 " clip-rule="nonzero"/></clipPath><clipPath id="2a2e19fb6f"><path d="M 217.964844 182.464844 L 369.769531 204.929688 L 349.605469 341.183594 L 197.800781 318.71875 Z M 217.964844 182.464844 " clip-rule="nonzero"/></clipPath><clipPath id="96e2ced5a5"><path d="M 239 209 L 245 209 L 245 215 L 239 215 Z M 239 209 " clip-rule="nonzero"/></clipPath><clipPath id="1a9d564576"><path d="M 217.964844 182.464844 L 369.769531 204.929688 L 349.605469 341.183594 L 197.800781 318.71875 Z M 217.964844 182.464844 " clip-rule="nonzero"/></clipPath><clipPath id="c0ca498c81"><path d="M 217.964844 182.464844 L 369.769531 204.929688 L 349.605469 341.183594 L 197.800781 318.71875 Z M 217.964844 182.464844 " clip-rule="nonzero"/></clipPath><clipPath id="1c92182cca"><path d="M 217.964844 182.464844 L 369.769531 204.929688 L 349.605469 341.183594 L 197.800781 318.71875 Z M 217.964844 182.464844 " clip-rule="nonzero"/></clipPath><clipPath id="b230bde675"><path d="M 262 254 L 267 254 L 267 261 L 262 261 Z M 262 254 " clip-rule="nonzero"/></clipPath><clipPath id="5b5ed42496"><path d="M 217.964844 182.464844 L 369.769531 204.929688 L 349.605469 341.183594 L 197.800781 318.71875 Z M 217.964844 182.464844 " clip-rule="nonzero"/></clipPath><clipPath id="fcaedd6cd2"><path d="M 217.964844 182.464844 L 369.769531 204.929688 L 349.605469 341.183594 L 197.800781 318.71875 Z M 217.964844 182.464844 " clip-rule="nonzero"/></clipPath><clipPath id="41b72f97dd"><path d="M 217.964844 182.464844 L 369.769531 204.929688 L 349.605469 341.183594 L 197.800781 318.71875 Z M 217.964844 182.464844 " clip-rule="nonzero"/></clipPath><clipPath id="71b526706b"><path d="M 270 247 L 274 247 L 274 255 L 270 255 Z M 270 247 " clip-rule="nonzero"/></clipPath><clipPath id="c081721bfa"><path d="M 217.964844 182.464844 L 369.769531 204.929688 L 349.605469 341.183594 L 197.800781 318.71875 Z M 217.964844 182.464844 " clip-rule="nonzero"/></clipPath><clipPath id="7094a3b2b0"><path d="M 217.964844 182.464844 L 369.769531 204.929688 L 349.605469 341.183594 L 197.800781 318.71875 Z M 217.964844 182.464844 " clip-rule="nonzero"/></clipPath><clipPath id="27066e75d2"><path d="M 217.964844 182.464844 L 369.769531 204.929688 L 349.605469 341.183594 L 197.800781 318.71875 Z M 217.964844 182.464844 " clip-rule="nonzero"/></clipPath><clipPath id="346c6a6984"><path d="M 250 206 L 256 206 L 256 211 L 250 211 Z M 250 206 " clip-rule="nonzero"/></clipPath><clipPath id="a42fd2c5c3"><path d="M 217.964844 182.464844 L 369.769531 204.929688 L 349.605469 341.183594 L 197.800781 318.71875 Z M 217.964844 182.464844 " clip-rule="nonzero"/></clipPath><clipPath id="f00742414c"><path d="M 217.964844 182.464844 L 369.769531 204.929688 L 349.605469 341.183594 L 197.800781 318.71875 Z M 217.964844 182.464844 " clip-rule="nonzero"/></clipPath><clipPath id="9706b01f94"><path d="M 217.964844 182.464844 L 369.769531 204.929688 L 349.605469 341.183594 L 197.800781 318.71875 Z M 217.964844 182.464844 " clip-rule="nonzero"/></clipPath><clipPath id="07fd2f010a"><path d="M 244 196 L 250 196 L 250 202 L 244 202 Z M 244 196 " clip-rule="nonzero"/></clipPath><clipPath id="bfd0d2444d"><path d="M 217.964844 182.464844 L 369.769531 204.929688 L 349.605469 341.183594 L 197.800781 318.71875 Z M 217.964844 182.464844 " clip-rule="nonzero"/></clipPath><clipPath id="56d1399ca9"><path d="M 217.964844 182.464844 L 369.769531 204.929688 L 349.605469 341.183594 L 197.800781 318.71875 Z M 217.964844 182.464844 " clip-rule="nonzero"/></clipPath><clipPath id="83d92bfb3c"><path d="M 217.964844 182.464844 L 369.769531 204.929688 L 349.605469 341.183594 L 197.800781 318.71875 Z M 217.964844 182.464844 " clip-rule="nonzero"/></clipPath><clipPath id="3f5b52304c"><path d="M 270 268 L 277 268 L 277 273 L 270 273 Z M 270 268 " clip-rule="nonzero"/></clipPath><clipPath id="882703e5fe"><path d="M 217.964844 182.464844 L 369.769531 204.929688 L 349.605469 341.183594 L 197.800781 318.71875 Z M 217.964844 182.464844 " clip-rule="nonzero"/></clipPath><clipPath id="087fea8337"><path d="M 217.964844 182.464844 L 369.769531 204.929688 L 349.605469 341.183594 L 197.800781 318.71875 Z M 217.964844 182.464844 " clip-rule="nonzero"/></clipPath><clipPath id="378a942ab2"><path d="M 217.964844 182.464844 L 369.769531 204.929688 L 349.605469 341.183594 L 197.800781 318.71875 Z M 217.964844 182.464844 " clip-rule="nonzero"/></clipPath><clipPath id="142675a666"><path d="M 313 271 L 320 271 L 320 275 L 313 275 Z M 313 271 " clip-rule="nonzero"/></clipPath><clipPath id="4da063ed4e"><path d="M 217.964844 182.464844 L 369.769531 204.929688 L 349.605469 341.183594 L 197.800781 318.71875 Z M 217.964844 182.464844 " clip-rule="nonzero"/></clipPath><clipPath id="0a785d781e"><path d="M 217.964844 182.464844 L 369.769531 204.929688 L 349.605469 341.183594 L 197.800781 318.71875 Z M 217.964844 182.464844 " clip-rule="nonzero"/></clipPath><clipPath id="298a1837cf"><path d="M 217.964844 182.464844 L 369.769531 204.929688 L 349.605469 341.183594 L 197.800781 318.71875 Z M 217.964844 182.464844 " clip-rule="nonzero"/></clipPath><clipPath id="9df6409143"><path d="M 303 273 L 310 273 L 310 277 L 303 277 Z M 303 273 " clip-rule="nonzero"/></clipPath><clipPath id="f49be56582"><path d="M 217.964844 182.464844 L 369.769531 204.929688 L 349.605469 341.183594 L 197.800781 318.71875 Z M 217.964844 182.464844 " clip-rule="nonzero"/></clipPath><clipPath id="1aec833ec6"><path d="M 217.964844 182.464844 L 369.769531 204.929688 L 349.605469 341.183594 L 197.800781 318.71875 Z M 217.964844 182.464844 " clip-rule="nonzero"/></clipPath><clipPath id="c9d275a218"><path d="M 217.964844 182.464844 L 369.769531 204.929688 L 349.605469 341.183594 L 197.800781 318.71875 Z M 217.964844 182.464844 " clip-rule="nonzero"/></clipPath><clipPath id="7739521e0b"><path d="M 314 281 L 319 281 L 319 287 L 314 287 Z M 314 281 " clip-rule="nonzero"/></clipPath><clipPath id="59672a6528"><path d="M 217.964844 182.464844 L 369.769531 204.929688 L 349.605469 341.183594 L 197.800781 318.71875 Z M 217.964844 182.464844 " clip-rule="nonzero"/></clipPath><clipPath id="2fe76cf309"><path d="M 217.964844 182.464844 L 369.769531 204.929688 L 349.605469 341.183594 L 197.800781 318.71875 Z M 217.964844 182.464844 " clip-rule="nonzero"/></clipPath><clipPath id="1ebdd25498"><path d="M 217.964844 182.464844 L 369.769531 204.929688 L 349.605469 341.183594 L 197.800781 318.71875 Z M 217.964844 182.464844 " clip-rule="nonzero"/></clipPath><clipPath id="e59e543c96"><path d="M 335 320 L 341 320 L 341 326 L 335 326 Z M 335 320 " clip-rule="nonzero"/></clipPath><clipPath id="32e088999a"><path d="M 217.964844 182.464844 L 369.769531 204.929688 L 349.605469 341.183594 L 197.800781 318.71875 Z M 217.964844 182.464844 " clip-rule="nonzero"/></clipPath><clipPath id="bee060fba4"><path d="M 217.964844 182.464844 L 369.769531 204.929688 L 349.605469 341.183594 L 197.800781 318.71875 Z M 217.964844 182.464844 " clip-rule="nonzero"/></clipPath><clipPath id="ff77421973"><path d="M 217.964844 182.464844 L 369.769531 204.929688 L 349.605469 341.183594 L 197.800781 318.71875 Z M 217.964844 182.464844 " clip-rule="nonzero"/></clipPath><clipPath id="815d63c03f"><path d="M 303 282 L 308 282 L 308 288 L 303 288 Z M 303 282 " clip-rule="nonzero"/></clipPath><clipPath id="a6222714ee"><path d="M 217.964844 182.464844 L 369.769531 204.929688 L 349.605469 341.183594 L 197.800781 318.71875 Z M 217.964844 182.464844 " clip-rule="nonzero"/></clipPath><clipPath id="d30c6a1a20"><path d="M 217.964844 182.464844 L 369.769531 204.929688 L 349.605469 341.183594 L 197.800781 318.71875 Z M 217.964844 182.464844 " clip-rule="nonzero"/></clipPath><clipPath id="e292cbf852"><path d="M 217.964844 182.464844 L 369.769531 204.929688 L 349.605469 341.183594 L 197.800781 318.71875 Z M 217.964844 182.464844 " clip-rule="nonzero"/></clipPath><clipPath id="20fa5119bb"><path d="M 290 271 L 296 271 L 296 277 L 290 277 Z M 290 271 " clip-rule="nonzero"/></clipPath><clipPath id="e7bf909daf"><path d="M 217.964844 182.464844 L 369.769531 204.929688 L 349.605469 341.183594 L 197.800781 318.71875 Z M 217.964844 182.464844 " clip-rule="nonzero"/></clipPath><clipPath id="86cd0f2867"><path d="M 217.964844 182.464844 L 369.769531 204.929688 L 349.605469 341.183594 L 197.800781 318.71875 Z M 217.964844 182.464844 " clip-rule="nonzero"/></clipPath><clipPath id="73e94c9ead"><path d="M 217.964844 182.464844 L 369.769531 204.929688 L 349.605469 341.183594 L 197.800781 318.71875 Z M 217.964844 182.464844 " clip-rule="nonzero"/></clipPath><clipPath id="9c241cf866"><path d="M 326 315 L 333 315 L 333 319 L 326 319 Z M 326 315 " clip-rule="nonzero"/></clipPath><clipPath id="3897859ce1"><path d="M 217.964844 182.464844 L 369.769531 204.929688 L 349.605469 341.183594 L 197.800781 318.71875 Z M 217.964844 182.464844 " clip-rule="nonzero"/></clipPath><clipPath id="21caba24f3"><path d="M 217.964844 182.464844 L 369.769531 204.929688 L 349.605469 341.183594 L 197.800781 318.71875 Z M 217.964844 182.464844 " clip-rule="nonzero"/></clipPath><clipPath id="47629de5c0"><path d="M 217.964844 182.464844 L 369.769531 204.929688 L 349.605469 341.183594 L 197.800781 318.71875 Z M 217.964844 182.464844 " clip-rule="nonzero"/></clipPath><clipPath id="74253d33a4"><path d="M 341 310 L 347 310 L 347 316 L 341 316 Z M 341 310 " clip-rule="nonzero"/></clipPath><clipPath id="b5fef1725f"><path d="M 217.964844 182.464844 L 369.769531 204.929688 L 349.605469 341.183594 L 197.800781 318.71875 Z M 217.964844 182.464844 " clip-rule="nonzero"/></clipPath><clipPath id="89a3fb551e"><path d="M 217.964844 182.464844 L 369.769531 204.929688 L 349.605469 341.183594 L 197.800781 318.71875 Z M 217.964844 182.464844 " clip-rule="nonzero"/></clipPath><clipPath id="a83f758b61"><path d="M 217.964844 182.464844 L 369.769531 204.929688 L 349.605469 341.183594 L 197.800781 318.71875 Z M 217.964844 182.464844 " clip-rule="nonzero"/></clipPath><clipPath id="0df40df99e"><path d="M 213 187 L 247 187 L 247 218 L 213 218 Z M 213 187 " clip-rule="nonzero"/></clipPath><clipPath id="e0f9e10129"><path d="M 217.964844 182.464844 L 369.769531 204.929688 L 349.605469 341.183594 L 197.800781 318.71875 Z M 217.964844 182.464844 " clip-rule="nonzero"/></clipPath><clipPath id="5bdee001c1"><path d="M 217.964844 182.464844 L 369.769531 204.929688 L 349.605469 341.183594 L 197.800781 318.71875 Z M 217.964844 182.464844 " clip-rule="nonzero"/></clipPath><clipPath id="e25f112e03"><path d="M 217.964844 182.464844 L 369.769531 204.929688 L 349.605469 341.183594 L 197.800781 318.71875 Z M 217.964844 182.464844 " clip-rule="nonzero"/></clipPath><clipPath id="03d763b458"><path d="M 218 192 L 242 192 L 242 217 L 218 217 Z M 218 192 " clip-rule="nonzero"/></clipPath><clipPath id="d04c440bc6"><path d="M 217.964844 182.464844 L 369.769531 204.929688 L 349.605469 341.183594 L 197.800781 318.71875 Z M 217.964844 182.464844 " clip-rule="nonzero"/></clipPath><clipPath id="03837c6a6e"><path d="M 217.964844 182.464844 L 369.769531 204.929688 L 349.605469 341.183594 L 197.800781 318.71875 Z M 217.964844 182.464844 " clip-rule="nonzero"/></clipPath><clipPath id="0135809696"><path d="M 217.964844 182.464844 L 369.769531 204.929688 L 349.605469 341.183594 L 197.800781 318.71875 Z M 217.964844 182.464844 " clip-rule="nonzero"/></clipPath><clipPath id="b272567994"><path d="M 255 225 L 336 225 L 336 300 L 255 300 Z M 255 225 " clip-rule="nonzero"/></clipPath><clipPath id="fc779d531e"><path d="M 217.964844 182.464844 L 369.769531 204.929688 L 349.605469 341.183594 L 197.800781 318.71875 Z M 217.964844 182.464844 " clip-rule="nonzero"/></clipPath><clipPath id="2eba96a1b7"><path d="M 217.964844 182.464844 L 369.769531 204.929688 L 349.605469 341.183594 L 197.800781 318.71875 Z M 217.964844 182.464844 " clip-rule="nonzero"/></clipPath><clipPath id="3f70ed4d59"><path d="M 217.964844 182.464844 L 369.769531 204.929688 L 349.605469 341.183594 L 197.800781 318.71875 Z M 217.964844 182.464844 " clip-rule="nonzero"/></clipPath><clipPath id="00db8ca1b4"><path d="M 54 19 L 517 19 L 517 511 L 54 511 Z M 54 19 " clip-rule="nonzero"/></clipPath><clipPath id="cd7d4328ce"><path d="M 66.832031 0 L 567.414062 74.082031 L 500.894531 523.570312 L 0.3125 449.488281 Z M 66.832031 0 " clip-rule="nonzero"/></clipPath><clipPath id="7595ab6b39"><path d="M 66.832031 0 L 567.414062 74.082031 L 500.894531 523.570312 L 0.3125 449.488281 Z M 66.832031 0 " clip-rule="nonzero"/></clipPath><clipPath id="b437c319a0"><path d="M 66.832031 0 L 567.414062 74.082031 L 500.894531 523.570312 L 0.3125 449.488281 Z M 66.832031 0 " clip-rule="nonzero"/></clipPath><clipPath id="24b46574f5"><path d="M 57 90 L 438 90 L 438 504 L 57 504 Z M 57 90 " clip-rule="nonzero"/></clipPath><clipPath id="f454b19e59"><path d="M 66.832031 0 L 567.414062 74.082031 L 500.894531 523.570312 L 0.3125 449.488281 Z M 66.832031 0 " clip-rule="nonzero"/></clipPath><clipPath id="3ad5c9f101"><path d="M 66.832031 0 L 567.414062 74.082031 L 500.894531 523.570312 L 0.3125 449.488281 Z M 66.832031 0 " clip-rule="nonzero"/></clipPath><clipPath id="2ac5813638"><path d="M 66.832031 0 L 567.414062 74.082031 L 500.894531 523.570312 L 0.3125 449.488281 Z M 66.832031 0 " clip-rule="nonzero"/></clipPath><clipPath id="1160bac648"><path d="M 349 352 L 475 352 L 475 459 L 349 459 Z M 349 352 " clip-rule="nonzero"/></clipPath><clipPath id="038fc99a5b"><path d="M 66.832031 0 L 567.414062 74.082031 L 500.894531 523.570312 L 0.3125 449.488281 Z M 66.832031 0 " clip-rule="nonzero"/></clipPath><clipPath id="3cf84eb153"><path d="M 66.832031 0 L 567.414062 74.082031 L 500.894531 523.570312 L 0.3125 449.488281 Z M 66.832031 0 " clip-rule="nonzero"/></clipPath><clipPath id="af6aa3dab7"><path d="M 66.832031 0 L 567.414062 74.082031 L 500.894531 523.570312 L 0.3125 449.488281 Z M 66.832031 0 " clip-rule="nonzero"/></clipPath><clipPath id="f9347b8a67"><path d="M 116 94 L 242 94 L 242 201 L 116 201 Z M 116 94 " clip-rule="nonzero"/></clipPath><clipPath id="f175ab0c53"><path d="M 66.832031 0 L 567.414062 74.082031 L 500.894531 523.570312 L 0.3125 449.488281 Z M 66.832031 0 " clip-rule="nonzero"/></clipPath><clipPath id="dfcf1cd51f"><path d="M 66.832031 0 L 567.414062 74.082031 L 500.894531 523.570312 L 0.3125 449.488281 Z M 66.832031 0 " clip-rule="nonzero"/></clipPath><clipPath id="79d5fbb2cf"><path d="M 66.832031 0 L 567.414062 74.082031 L 500.894531 523.570312 L 0.3125 449.488281 Z M 66.832031 0 " clip-rule="nonzero"/></clipPath><clipPath id="a7f425cf95"><path d="M 327 304 L 419 304 L 419 325 L 327 325 Z M 327 304 " clip-rule="nonzero"/></clipPath><clipPath id="8536592861"><path d="M 66.832031 0 L 567.414062 74.082031 L 500.894531 523.570312 L 0.3125 449.488281 Z M 66.832031 0 " clip-rule="nonzero"/></clipPath><clipPath id="6bf7e822f3"><path d="M 66.832031 0 L 567.414062 74.082031 L 500.894531 523.570312 L 0.3125 449.488281 Z M 66.832031 0 " clip-rule="nonzero"/></clipPath><clipPath id="ed04bf2d66"><path d="M 66.832031 0 L 567.414062 74.082031 L 500.894531 523.570312 L 0.3125 449.488281 Z M 66.832031 0 " clip-rule="nonzero"/></clipPath><clipPath id="bf75fa8614"><path d="M 161 47 L 186 47 L 186 136 L 161 136 Z M 161 47 " clip-rule="nonzero"/></clipPath><clipPath id="8eeddbeb4f"><path d="M 66.832031 0 L 567.414062 74.082031 L 500.894531 523.570312 L 0.3125 449.488281 Z M 66.832031 0 " clip-rule="nonzero"/></clipPath><clipPath id="8a3958a107"><path d="M 66.832031 0 L 567.414062 74.082031 L 500.894531 523.570312 L 0.3125 449.488281 Z M 66.832031 0 " clip-rule="nonzero"/></clipPath><clipPath id="19e53008f8"><path d="M 66.832031 0 L 567.414062 74.082031 L 500.894531 523.570312 L 0.3125 449.488281 Z M 66.832031 0 " clip-rule="nonzero"/></clipPath><clipPath id="4a060279bc"><path d="M 223 244 L 240 244 L 240 303 L 223 303 Z M 223 244 " clip-rule="nonzero"/></clipPath><clipPath id="e484f97081"><path d="M 66.832031 0 L 567.414062 74.082031 L 500.894531 523.570312 L 0.3125 449.488281 Z M 66.832031 0 " clip-rule="nonzero"/></clipPath><clipPath id="d4316a4577"><path d="M 66.832031 0 L 567.414062 74.082031 L 500.894531 523.570312 L 0.3125 449.488281 Z M 66.832031 0 " clip-rule="nonzero"/></clipPath><clipPath id="fec636d598"><path d="M 66.832031 0 L 567.414062 74.082031 L 500.894531 523.570312 L 0.3125 449.488281 Z M 66.832031 0 " clip-rule="nonzero"/></clipPath><clipPath id="ff133381bd"><path d="M 453 443 L 497 443 L 497 459 L 453 459 Z M 453 443 " clip-rule="nonzero"/></clipPath><clipPath id="e9f88b8f9b"><path d="M 66.832031 0 L 567.414062 74.082031 L 500.894531 523.570312 L 0.3125 449.488281 Z M 66.832031 0 " clip-rule="nonzero"/></clipPath><clipPath id="33b6410433"><path d="M 66.832031 0 L 567.414062 74.082031 L 500.894531 523.570312 L 0.3125 449.488281 Z M 66.832031 0 " clip-rule="nonzero"/></clipPath><clipPath id="13cbe6be30"><path d="M 66.832031 0 L 567.414062 74.082031 L 500.894531 523.570312 L 0.3125 449.488281 Z M 66.832031 0 " clip-rule="nonzero"/></clipPath><clipPath id="965ba241bd"><path d="M 139 88 L 154 88 L 154 107 L 139 107 Z M 139 88 " clip-rule="nonzero"/></clipPath><clipPath id="8462113f6e"><path d="M 66.832031 0 L 567.414062 74.082031 L 500.894531 523.570312 L 0.3125 449.488281 Z M 66.832031 0 " clip-rule="nonzero"/></clipPath><clipPath id="a68bff83e3"><path d="M 66.832031 0 L 567.414062 74.082031 L 500.894531 523.570312 L 0.3125 449.488281 Z M 66.832031 0 " clip-rule="nonzero"/></clipPath><clipPath id="88211193b7"><path d="M 66.832031 0 L 567.414062 74.082031 L 500.894531 523.570312 L 0.3125 449.488281 Z M 66.832031 0 " clip-rule="nonzero"/></clipPath><clipPath id="dbd4cb3463"><path d="M 214 238 L 229 238 L 229 257 L 214 257 Z M 214 238 " clip-rule="nonzero"/></clipPath><clipPath id="42a6583add"><path d="M 66.832031 0 L 567.414062 74.082031 L 500.894531 523.570312 L 0.3125 449.488281 Z M 66.832031 0 " clip-rule="nonzero"/></clipPath><clipPath id="d3c7ed8b5a"><path d="M 66.832031 0 L 567.414062 74.082031 L 500.894531 523.570312 L 0.3125 449.488281 Z M 66.832031 0 " clip-rule="nonzero"/></clipPath><clipPath id="6f53ae9aa5"><path d="M 66.832031 0 L 567.414062 74.082031 L 500.894531 523.570312 L 0.3125 449.488281 Z M 66.832031 0 " clip-rule="nonzero"/></clipPath><clipPath id="5f3b2782f4"><path d="M 239 215 L 251 215 L 251 237 L 239 237 Z M 239 215 " clip-rule="nonzero"/></clipPath><clipPath id="79fc377a74"><path d="M 66.832031 0 L 567.414062 74.082031 L 500.894531 523.570312 L 0.3125 449.488281 Z M 66.832031 0 " clip-rule="nonzero"/></clipPath><clipPath id="966bf6bb88"><path d="M 66.832031 0 L 567.414062 74.082031 L 500.894531 523.570312 L 0.3125 449.488281 Z M 66.832031 0 " clip-rule="nonzero"/></clipPath><clipPath id="8eee8d8d9f"><path d="M 66.832031 0 L 567.414062 74.082031 L 500.894531 523.570312 L 0.3125 449.488281 Z M 66.832031 0 " clip-rule="nonzero"/></clipPath><clipPath id="b204cf4271"><path d="M 173 79 L 192 79 L 192 94 L 173 94 Z M 173 79 " clip-rule="nonzero"/></clipPath><clipPath id="d34a4a398a"><path d="M 66.832031 0 L 567.414062 74.082031 L 500.894531 523.570312 L 0.3125 449.488281 Z M 66.832031 0 " clip-rule="nonzero"/></clipPath><clipPath id="850c8351ad"><path d="M 66.832031 0 L 567.414062 74.082031 L 500.894531 523.570312 L 0.3125 449.488281 Z M 66.832031 0 " clip-rule="nonzero"/></clipPath><clipPath id="b9515abebe"><path d="M 66.832031 0 L 567.414062 74.082031 L 500.894531 523.570312 L 0.3125 449.488281 Z M 66.832031 0 " clip-rule="nonzero"/></clipPath><clipPath id="987f99acbc"><path d="M 153 47 L 171 47 L 171 62 L 153 62 Z M 153 47 " clip-rule="nonzero"/></clipPath><clipPath id="8ee5067bda"><path d="M 66.832031 0 L 567.414062 74.082031 L 500.894531 523.570312 L 0.3125 449.488281 Z M 66.832031 0 " clip-rule="nonzero"/></clipPath><clipPath id="63ba8397d4"><path d="M 66.832031 0 L 567.414062 74.082031 L 500.894531 523.570312 L 0.3125 449.488281 Z M 66.832031 0 " clip-rule="nonzero"/></clipPath><clipPath id="9d440885ef"><path d="M 66.832031 0 L 567.414062 74.082031 L 500.894531 523.570312 L 0.3125 449.488281 Z M 66.832031 0 " clip-rule="nonzero"/></clipPath><clipPath id="825f4d100b"><path d="M 241 282 L 259 282 L 259 298 L 241 298 Z M 241 282 " clip-rule="nonzero"/></clipPath><clipPath id="f3776ddb58"><path d="M 66.832031 0 L 567.414062 74.082031 L 500.894531 523.570312 L 0.3125 449.488281 Z M 66.832031 0 " clip-rule="nonzero"/></clipPath><clipPath id="9f8502d6cf"><path d="M 66.832031 0 L 567.414062 74.082031 L 500.894531 523.570312 L 0.3125 449.488281 Z M 66.832031 0 " clip-rule="nonzero"/></clipPath><clipPath id="788ea7bd02"><path d="M 66.832031 0 L 567.414062 74.082031 L 500.894531 523.570312 L 0.3125 449.488281 Z M 66.832031 0 " clip-rule="nonzero"/></clipPath><clipPath id="1ac2d3c513"><path d="M 381 293 L 403 293 L 403 305 L 381 305 Z M 381 293 " clip-rule="nonzero"/></clipPath><clipPath id="9a01bded7c"><path d="M 66.832031 0 L 567.414062 74.082031 L 500.894531 523.570312 L 0.3125 449.488281 Z M 66.832031 0 " clip-rule="nonzero"/></clipPath><clipPath id="89df188ac9"><path d="M 66.832031 0 L 567.414062 74.082031 L 500.894531 523.570312 L 0.3125 449.488281 Z M 66.832031 0 " clip-rule="nonzero"/></clipPath><clipPath id="71ec806c10"><path d="M 66.832031 0 L 567.414062 74.082031 L 500.894531 523.570312 L 0.3125 449.488281 Z M 66.832031 0 " clip-rule="nonzero"/></clipPath><clipPath id="00eb4bc412"><path d="M 347 300 L 369 300 L 369 312 L 347 312 Z M 347 300 " clip-rule="nonzero"/></clipPath><clipPath id="13aea7b48a"><path d="M 66.832031 0 L 567.414062 74.082031 L 500.894531 523.570312 L 0.3125 449.488281 Z M 66.832031 0 " clip-rule="nonzero"/></clipPath><clipPath id="2f51f2e3c5"><path d="M 66.832031 0 L 567.414062 74.082031 L 500.894531 523.570312 L 0.3125 449.488281 Z M 66.832031 0 " clip-rule="nonzero"/></clipPath><clipPath id="7fd6be20e8"><path d="M 66.832031 0 L 567.414062 74.082031 L 500.894531 523.570312 L 0.3125 449.488281 Z M 66.832031 0 " clip-rule="nonzero"/></clipPath><clipPath id="51957868d7"><path d="M 383 325 L 398 325 L 398 343 L 383 343 Z M 383 325 " clip-rule="nonzero"/></clipPath><clipPath id="6e9432a21f"><path d="M 66.832031 0 L 567.414062 74.082031 L 500.894531 523.570312 L 0.3125 449.488281 Z M 66.832031 0 " clip-rule="nonzero"/></clipPath><clipPath id="2c58099704"><path d="M 66.832031 0 L 567.414062 74.082031 L 500.894531 523.570312 L 0.3125 449.488281 Z M 66.832031 0 " clip-rule="nonzero"/></clipPath><clipPath id="ea7d73bc31"><path d="M 66.832031 0 L 567.414062 74.082031 L 500.894531 523.570312 L 0.3125 449.488281 Z M 66.832031 0 " clip-rule="nonzero"/></clipPath><clipPath id="898cec679e"><path d="M 455 455 L 470 455 L 470 473 L 455 473 Z M 455 455 " clip-rule="nonzero"/></clipPath><clipPath id="6187d929bf"><path d="M 66.832031 0 L 567.414062 74.082031 L 500.894531 523.570312 L 0.3125 449.488281 Z M 66.832031 0 " clip-rule="nonzero"/></clipPath><clipPath id="31299c6568"><path d="M 66.832031 0 L 567.414062 74.082031 L 500.894531 523.570312 L 0.3125 449.488281 Z M 66.832031 0 " clip-rule="nonzero"/></clipPath><clipPath id="28219571d4"><path d="M 66.832031 0 L 567.414062 74.082031 L 500.894531 523.570312 L 0.3125 449.488281 Z M 66.832031 0 " clip-rule="nonzero"/></clipPath><clipPath id="04fbdfb890"><path d="M 348 329 L 363 329 L 363 348 L 348 348 Z M 348 329 " clip-rule="nonzero"/></clipPath><clipPath id="33d42763dd"><path d="M 66.832031 0 L 567.414062 74.082031 L 500.894531 523.570312 L 0.3125 449.488281 Z M 66.832031 0 " clip-rule="nonzero"/></clipPath><clipPath id="c470d1b98c"><path d="M 66.832031 0 L 567.414062 74.082031 L 500.894531 523.570312 L 0.3125 449.488281 Z M 66.832031 0 " clip-rule="nonzero"/></clipPath><clipPath id="c9d2d5e33f"><path d="M 66.832031 0 L 567.414062 74.082031 L 500.894531 523.570312 L 0.3125 449.488281 Z M 66.832031 0 " clip-rule="nonzero"/></clipPath><clipPath id="c2934c0869"><path d="M 305 293 L 322 293 L 322 310 L 305 310 Z M 305 293 " clip-rule="nonzero"/></clipPath><clipPath id="90605ba836"><path d="M 66.832031 0 L 567.414062 74.082031 L 500.894531 523.570312 L 0.3125 449.488281 Z M 66.832031 0 " clip-rule="nonzero"/></clipPath><clipPath id="d04bbab6fa"><path d="M 66.832031 0 L 567.414062 74.082031 L 500.894531 523.570312 L 0.3125 449.488281 Z M 66.832031 0 " clip-rule="nonzero"/></clipPath><clipPath id="7ad2738f1d"><path d="M 66.832031 0 L 567.414062 74.082031 L 500.894531 523.570312 L 0.3125 449.488281 Z M 66.832031 0 " clip-rule="nonzero"/></clipPath><clipPath id="dc7e1c4db6"><path d="M 423 438 L 446 438 L 446 450 L 423 450 Z M 423 438 " clip-rule="nonzero"/></clipPath><clipPath id="fca775a31c"><path d="M 66.832031 0 L 567.414062 74.082031 L 500.894531 523.570312 L 0.3125 449.488281 Z M 66.832031 0 " clip-rule="nonzero"/></clipPath><clipPath id="a660f68761"><path d="M 66.832031 0 L 567.414062 74.082031 L 500.894531 523.570312 L 0.3125 449.488281 Z M 66.832031 0 " clip-rule="nonzero"/></clipPath><clipPath id="0b9e5bea9e"><path d="M 66.832031 0 L 567.414062 74.082031 L 500.894531 523.570312 L 0.3125 449.488281 Z M 66.832031 0 " clip-rule="nonzero"/></clipPath><clipPath id="016436c37a"><path d="M 474 422 L 491 422 L 491 439 L 474 439 Z M 474 422 " clip-rule="nonzero"/></clipPath><clipPath id="2f89169663"><path d="M 66.832031 0 L 567.414062 74.082031 L 500.894531 523.570312 L 0.3125 449.488281 Z M 66.832031 0 " clip-rule="nonzero"/></clipPath><clipPath id="57a5290b2d"><path d="M 66.832031 0 L 567.414062 74.082031 L 500.894531 523.570312 L 0.3125 449.488281 Z M 66.832031 0 " clip-rule="nonzero"/></clipPath><clipPath id="425cf73c45"><path d="M 66.832031 0 L 567.414062 74.082031 L 500.894531 523.570312 L 0.3125 449.488281 Z M 66.832031 0 " clip-rule="nonzero"/></clipPath><clipPath id="5ab009db0a"><path d="M 52 17 L 160 17 L 160 115 L 52 115 Z M 52 17 " clip-rule="nonzero"/></clipPath><clipPath id="ca8c62f884"><path d="M 66.832031 0 L 567.414062 74.082031 L 500.894531 523.570312 L 0.3125 449.488281 Z M 66.832031 0 " clip-rule="nonzero"/></clipPath><clipPath id="f855dfea78"><path d="M 66.832031 0 L 567.414062 74.082031 L 500.894531 523.570312 L 0.3125 449.488281 Z M 66.832031 0 " clip-rule="nonzero"/></clipPath><clipPath id="9a249cd132"><path d="M 66.832031 0 L 567.414062 74.082031 L 500.894531 523.570312 L 0.3125 449.488281 Z M 66.832031 0 " clip-rule="nonzero"/></clipPath><clipPath id="8023ec8c52"><path d="M 69 34 L 145 34 L 145 111 L 69 111 Z M 69 34 " clip-rule="nonzero"/></clipPath><clipPath id="01a2a335a1"><path d="M 66.832031 0 L 567.414062 74.082031 L 500.894531 523.570312 L 0.3125 449.488281 Z M 66.832031 0 " clip-rule="nonzero"/></clipPath><clipPath id="83892e9c33"><path d="M 66.832031 0 L 567.414062 74.082031 L 500.894531 523.570312 L 0.3125 449.488281 Z M 66.832031 0 " clip-rule="nonzero"/></clipPath><clipPath id="238f37bf79"><path d="M 66.832031 0 L 567.414062 74.082031 L 500.894531 523.570312 L 0.3125 449.488281 Z M 66.832031 0 " clip-rule="nonzero"/></clipPath><clipPath id="6f3106532c"><path d="M 190 140 L 456 140 L 456 388 L 190 388 Z M 190 140 " clip-rule="nonzero"/></clipPath><clipPath id="afdd99f017"><path d="M 66.832031 0 L 567.414062 74.082031 L 500.894531 523.570312 L 0.3125 449.488281 Z M 66.832031 0 " clip-rule="nonzero"/></clipPath><clipPath id="65603c8060"><path d="M 66.832031 0 L 567.414062 74.082031 L 500.894531 523.570312 L 0.3125 449.488281 Z M 66.832031 0 " clip-rule="nonzero"/></clipPath><clipPath id="486978df47"><path d="M 66.832031 0 L 567.414062 74.082031 L 500.894531 523.570312 L 0.3125 449.488281 Z M 66.832031 0 " clip-rule="nonzero"/></clipPath></defs><g clip-path="url(#e2baa57f46)"><g clip-path="url(#81c8b828e6)"><g clip-path="url(#6a62f669c7)"><g clip-path="url(#f63ab2ad15)"><path fill="#f7e7da" d="M 245.589844 188.367188 C 245.601562 188.382812 245.617188 188.394531 245.628906 188.410156 C 245.628906 188.414062 245.628906 188.414062 245.632812 188.414062 C 245.640625 188.417969 245.640625 188.425781 245.644531 188.429688 L 253.257812 196.867188 L 254.007812 197.695312 L 265.984375 210.964844 L 271 216.523438 L 293.804688 241.796875 C 293.808594 241.792969 293.808594 241.796875 293.808594 241.796875 L 323.683594 274.894531 L 324.46875 275.765625 L 332.878906 285.085938 C 332.882812 285.082031 332.882812 285.089844 332.882812 285.089844 L 336.695312 289.3125 L 341.628906 294.777344 L 354.382812 308.90625 C 353.257812 312.046875 351.378906 316.226562 348.175781 320.527344 C 347.953125 320.828125 347.726562 321.128906 347.488281 321.429688 C 347.101562 321.917969 346.699219 322.414062 346.277344 322.90625 C 341.113281 328.914062 335.175781 332.507812 330.324219 334.65625 C 329.941406 334.824219 329.5625 334.992188 329.195312 335.144531 C 326.625 336.203125 324.429688 336.847656 322.914062 337.238281 L 308.792969 321.589844 L 303.636719 315.882812 L 266.121094 274.3125 L 265.351562 273.457031 L 238.1875 243.359375 L 232.949219 237.554688 L 214.410156 217.015625 L 214.125 216.695312 C 214.679688 215.375 215.402344 213.824219 216.332031 212.128906 C 216.515625 211.78125 216.710938 211.433594 216.917969 211.082031 C 218.746094 207.917969 221.277344 204.335938 224.765625 200.847656 C 232.574219 193.023438 241.097656 189.742188 245.589844 188.367188 Z M 245.589844 188.367188 " fill-opacity="1" fill-rule="nonzero"/></g></g></g></g><g clip-path="url(#c3fe75526c)"><g clip-path="url(#b00eac34c7)"><g clip-path="url(#11b1482fee)"><g clip-path="url(#eb658ec6c6)"><path fill="#edc9ae" d="M 215.910156 209.878906 C 216.246094 210.28125 216.582031 210.683594 216.917969 211.082031 C 217.511719 211.785156 218.105469 212.492188 218.703125 213.191406 C 219.363281 213.976562 220.023438 214.757812 220.683594 215.535156 C 221.203125 216.144531 221.714844 216.753906 222.234375 217.359375 C 227.246094 223.257812 232.289062 229.125 237.371094 234.964844 C 237.925781 235.605469 238.476562 236.238281 239.035156 236.875 C 240.199219 238.207031 241.363281 239.539062 242.53125 240.871094 C 250.824219 250.335938 259.203125 259.726562 267.664062 269.050781 C 267.949219 269.371094 268.238281 269.6875 268.53125 270.007812 C 274.171875 276.230469 279.84375 282.417969 285.550781 288.578125 C 293.144531 296.785156 300.773438 304.972656 308.550781 313.015625 C 310.355469 314.886719 312.167969 316.753906 313.996094 318.605469 C 319.347656 324.046875 324.777344 329.410156 330.324219 334.65625 C 329.941406 334.824219 329.5625 334.992188 329.195312 335.144531 C 323.699219 329.929688 318.3125 324.601562 313.003906 319.199219 C 311.1875 317.34375 309.371094 315.480469 307.566406 313.613281 C 306.925781 312.949219 306.292969 312.289062 305.652344 311.625 C 292.910156 298.34375 280.410156 284.820312 268.054688 271.171875 C 267.777344 270.867188 267.5 270.5625 267.21875 270.253906 C 264.316406 267.042969 261.421875 263.824219 258.527344 260.601562 C 252.832031 254.25 247.171875 247.867188 241.546875 241.453125 C 239.828125 239.488281 238.109375 237.523438 236.394531 235.550781 C 230.765625 229.082031 225.179688 222.578125 219.636719 216.035156 C 218.53125 214.734375 217.429688 213.433594 216.332031 212.128906 L 215.273438 210.875 C 215.46875 210.550781 215.683594 210.21875 215.910156 209.878906 Z M 215.910156 209.878906 " fill-opacity="1" fill-rule="nonzero"/></g></g></g></g><g clip-path="url(#f43f657a02)"><g clip-path="url(#c91c0d2f8c)"><g clip-path="url(#d47a9740c8)"><g clip-path="url(#5ccac89486)"><path fill="#471c0e" d="M 336.691406 289.3125 L 341.625 294.777344 C 337.292969 300.511719 327.339844 311.496094 308.792969 321.589844 L 303.640625 315.882812 C 309.191406 312.800781 327.195312 302.1875 336.691406 289.3125 Z M 336.691406 289.3125 " fill-opacity="1" fill-rule="nonzero"/></g></g></g></g><g clip-path="url(#bf15748d0c)"><g clip-path="url(#b90a9a35da)"><g clip-path="url(#5fde971f76)"><g clip-path="url(#f38897917c)"><path fill="#471c0e" d="M 265.984375 210.964844 L 271 216.523438 C 266.554688 222.355469 256.574219 233.273438 238.1875 243.359375 L 232.949219 237.554688 C 239.003906 234.15625 256.527344 223.65625 265.984375 210.964844 Z M 265.984375 210.964844 " fill-opacity="1" fill-rule="nonzero"/></g></g></g></g><g clip-path="url(#94f14e3718)"><g clip-path="url(#bc4273d6c9)"><g clip-path="url(#acffa93bff)"><g clip-path="url(#ae8e6549f6)"><path fill="#c29865" d="M 323.683594 274.894531 L 324.46875 275.765625 C 323.265625 276.363281 322.050781 276.941406 320.820312 277.488281 C 313.570312 280.703125 304.808594 282.695312 297.425781 278.714844 C 296.785156 278.371094 297.253906 277.34375 297.894531 277.6875 C 299.757812 278.691406 301.78125 279.316406 303.878906 279.605469 C 310.867188 280.570312 317.488281 277.941406 323.683594 274.894531 Z M 323.683594 274.894531 " fill-opacity="1" fill-rule="nonzero"/></g></g></g></g><g clip-path="url(#855452d3a9)"><g clip-path="url(#7027f82807)"><g clip-path="url(#ea2ee467f0)"><g clip-path="url(#68cf94b1b2)"><path fill="#c29865" d="M 253.257812 196.867188 L 254.007812 197.695312 C 253.527344 198.171875 253.082031 198.679688 252.664062 199.207031 C 247.367188 205.902344 247.515625 214.859375 248.363281 222.917969 C 248.441406 223.636719 247.3125 223.734375 247.238281 223.015625 C 246.984375 220.59375 246.785156 218.164062 246.773438 215.730469 C 246.75 211.425781 247.285156 207.054688 249.042969 203.085938 C 250.066406 200.769531 251.476562 198.632812 253.257812 196.867188 Z M 253.257812 196.867188 " fill-opacity="1" fill-rule="nonzero"/></g></g></g></g><g clip-path="url(#ef285b8d64)"><g clip-path="url(#f540fa91a1)"><g clip-path="url(#749dfaf0e2)"><g clip-path="url(#9ef2b9da58)"><path fill="#c29865" d="M 270.355469 257.15625 C 270.160156 258.917969 269.96875 260.679688 269.773438 262.441406 C 269.492188 264.96875 269.378906 267.597656 268.53125 270.007812 C 268.410156 270.359375 268.269531 270.710938 268.109375 271.050781 C 268.089844 271.089844 268.070312 271.132812 268.054688 271.171875 C 267.523438 272.289062 266.863281 273.328125 266.121094 274.3125 L 265.351562 273.457031 C 266.085938 272.453125 266.734375 271.390625 267.21875 270.253906 C 267.386719 269.863281 267.539062 269.464844 267.664062 269.050781 C 267.746094 268.789062 267.816406 268.527344 267.878906 268.257812 C 268.285156 266.445312 268.40625 264.558594 268.609375 262.71875 C 268.820312 260.796875 269.027344 258.882812 269.242188 256.964844 C 269.320312 256.242188 270.4375 256.4375 270.355469 257.15625 Z M 270.355469 257.15625 " fill-opacity="1" fill-rule="nonzero"/></g></g></g></g><g clip-path="url(#196f085602)"><g clip-path="url(#02e9625533)"><g clip-path="url(#4549760206)"><g clip-path="url(#2a2e19fb6f)"><path fill="#c29865" d="M 348.175781 320.527344 C 347.953125 320.828125 347.726562 321.128906 347.488281 321.429688 C 344.351562 318.777344 339.726562 318.25 335.703125 318.003906 C 334.972656 317.957031 335.171875 316.847656 335.886719 316.886719 C 340.101562 317.144531 344.878906 317.785156 348.175781 320.527344 Z M 348.175781 320.527344 " fill-opacity="1" fill-rule="nonzero"/></g></g></g></g><g clip-path="url(#96e2ced5a5)"><g clip-path="url(#1a9d564576)"><g clip-path="url(#c0ca498c81)"><g clip-path="url(#1c92182cca)"><path fill="#c29865" d="M 240.023438 209.382812 C 240.023438 209.382812 239.398438 214.703125 243.902344 214.828125 C 243.902344 214.828125 245.949219 211.464844 240.023438 209.382812 Z M 240.023438 209.382812 " fill-opacity="1" fill-rule="nonzero"/></g></g></g></g><g clip-path="url(#b230bde675)"><g clip-path="url(#5b5ed42496)"><g clip-path="url(#fcaedd6cd2)"><g clip-path="url(#41b72f97dd)"><path fill="#c29865" d="M 262.707031 254.683594 C 262.707031 254.683594 262.082031 260.003906 266.582031 260.128906 C 266.582031 260.128906 268.632812 256.769531 262.707031 254.683594 Z M 262.707031 254.683594 " fill-opacity="1" fill-rule="nonzero"/></g></g></g></g><g clip-path="url(#71b526706b)"><g clip-path="url(#c081721bfa)"><g clip-path="url(#7094a3b2b0)"><g clip-path="url(#27066e75d2)"><path fill="#c29865" d="M 273.269531 247.785156 C 273.269531 247.785156 268.578125 250.378906 271.105469 254.101562 C 271.105469 254.101562 275.035156 253.804688 273.269531 247.785156 Z M 273.269531 247.785156 " fill-opacity="1" fill-rule="nonzero"/></g></g></g></g><g clip-path="url(#346c6a6984)"><g clip-path="url(#a42fd2c5c3)"><g clip-path="url(#f00742414c)"><g clip-path="url(#9706b01f94)"><path fill="#c29865" d="M 255.871094 206.460938 C 255.871094 206.460938 250.539062 205.890625 250.460938 210.386719 C 250.460938 210.386719 253.847656 212.402344 255.871094 206.460938 Z M 255.871094 206.460938 " fill-opacity="1" fill-rule="nonzero"/></g></g></g></g><g clip-path="url(#07fd2f010a)"><g clip-path="url(#bfd0d2444d)"><g clip-path="url(#56d1399ca9)"><g clip-path="url(#83d92bfb3c)"><path fill="#c29865" d="M 249.535156 196.9375 C 249.535156 196.9375 244.199219 196.363281 244.121094 200.859375 C 244.121094 200.859375 247.507812 202.875 249.535156 196.9375 Z M 249.535156 196.9375 " fill-opacity="1" fill-rule="nonzero"/></g></g></g></g><g clip-path="url(#3f5b52304c)"><g clip-path="url(#882703e5fe)"><g clip-path="url(#087fea8337)"><g clip-path="url(#378a942ab2)"><path fill="#c29865" d="M 276.199219 268.265625 C 276.199219 268.265625 270.863281 267.695312 270.785156 272.191406 C 270.785156 272.191406 274.171875 274.207031 276.199219 268.265625 Z M 276.199219 268.265625 " fill-opacity="1" fill-rule="nonzero"/></g></g></g></g><g clip-path="url(#142675a666)"><g clip-path="url(#4da063ed4e)"><g clip-path="url(#0a785d781e)"><g clip-path="url(#298a1837cf)"><path fill="#c29865" d="M 313.492188 272 C 313.492188 272 316.148438 276.65625 319.84375 274.089844 C 319.84375 274.089844 319.5 270.167969 313.492188 272 Z M 313.492188 272 " fill-opacity="1" fill-rule="nonzero"/></g></g></g></g><g clip-path="url(#9df6409143)"><g clip-path="url(#f49be56582)"><g clip-path="url(#1aec833ec6)"><g clip-path="url(#c9d275a218)"><path fill="#c29865" d="M 303.027344 274.097656 C 303.027344 274.097656 305.6875 278.75 309.382812 276.183594 C 309.382812 276.183594 309.035156 272.265625 303.027344 274.097656 Z M 303.027344 274.097656 " fill-opacity="1" fill-rule="nonzero"/></g></g></g></g><g clip-path="url(#7739521e0b)"><g clip-path="url(#59672a6528)"><g clip-path="url(#2fe76cf309)"><g clip-path="url(#1ebdd25498)"><path fill="#c29865" d="M 314.132812 286.398438 C 314.132812 286.398438 319.398438 285.382812 318.15625 281.0625 C 318.15625 281.0625 314.328125 280.125 314.132812 286.398438 Z M 314.132812 286.398438 " fill-opacity="1" fill-rule="nonzero"/></g></g></g></g><g clip-path="url(#e59e543c96)"><g clip-path="url(#32e088999a)"><g clip-path="url(#bee060fba4)"><g clip-path="url(#ff77421973)"><path fill="#c29865" d="M 335.914062 325.808594 C 335.914062 325.808594 341.179688 324.792969 339.933594 320.472656 C 339.933594 320.472656 336.105469 319.535156 335.914062 325.808594 Z M 335.914062 325.808594 " fill-opacity="1" fill-rule="nonzero"/></g></g></g></g><g clip-path="url(#815d63c03f)"><g clip-path="url(#a6222714ee)"><g clip-path="url(#d30c6a1a20)"><g clip-path="url(#e292cbf852)"><path fill="#c29865" d="M 303.332031 287.78125 C 303.332031 287.78125 308.601562 286.765625 307.355469 282.445312 C 307.355469 282.445312 303.527344 281.507812 303.332031 287.78125 Z M 303.332031 287.78125 " fill-opacity="1" fill-rule="nonzero"/></g></g></g></g><g clip-path="url(#20fa5119bb)"><g clip-path="url(#e7bf909daf)"><g clip-path="url(#86cd0f2867)"><g clip-path="url(#73e94c9ead)"><path fill="#c29865" d="M 290.441406 271.375 C 290.441406 271.375 290.460938 276.730469 294.945312 276.316406 C 294.945312 276.316406 296.574219 272.734375 290.441406 271.375 Z M 290.441406 271.375 " fill-opacity="1" fill-rule="nonzero"/></g></g></g></g><g clip-path="url(#9c241cf866)"><g clip-path="url(#3897859ce1)"><g clip-path="url(#21caba24f3)"><g clip-path="url(#47629de5c0)"><path fill="#c29865" d="M 326.183594 316.878906 C 326.183594 316.878906 330.023438 320.617188 332.867188 317.132812 C 332.867188 317.132812 331.449219 313.457031 326.183594 316.878906 Z M 326.183594 316.878906 " fill-opacity="1" fill-rule="nonzero"/></g></g></g></g><g clip-path="url(#74253d33a4)"><g clip-path="url(#b5fef1725f)"><g clip-path="url(#89a3fb551e)"><g clip-path="url(#a83f758b61)"><path fill="#c29865" d="M 341.65625 310.457031 C 341.65625 310.457031 341.675781 315.8125 346.15625 315.398438 C 346.15625 315.398438 347.789062 311.8125 341.65625 310.457031 Z M 341.65625 310.457031 " fill-opacity="1" fill-rule="nonzero"/></g></g></g></g><g clip-path="url(#0df40df99e)"><g clip-path="url(#e0f9e10129)"><g clip-path="url(#5bdee001c1)"><g clip-path="url(#e25f112e03)"><path fill="#edc9ae" d="M 245.589844 188.367188 C 245.601562 188.382812 245.617188 188.394531 245.628906 188.410156 C 245.628906 188.414062 245.628906 188.414062 245.632812 188.414062 C 247.582031 190.628906 242.082031 198.730469 233.328125 206.523438 C 228.808594 210.542969 224.308594 213.695312 220.742188 215.503906 C 220.722656 215.515625 220.703125 215.523438 220.683594 215.535156 C 220.347656 215.703125 220.019531 215.859375 219.703125 216.003906 C 219.683594 216.015625 219.660156 216.027344 219.636719 216.035156 C 217.289062 217.09375 215.449219 217.472656 214.410156 217.015625 C 214.210938 216.925781 214.042969 216.804688 213.90625 216.652344 C 213.042969 215.683594 213.621094 213.585938 215.273438 210.875 C 215.46875 210.550781 215.683594 210.21875 215.910156 209.878906 C 218.125 206.570312 221.746094 202.515625 226.207031 198.539062 C 234.910156 190.792969 243.546875 186.261719 245.589844 188.367188 Z M 245.589844 188.367188 " fill-opacity="1" fill-rule="nonzero"/></g></g></g></g><g clip-path="url(#03d763b458)"><g clip-path="url(#d04c440bc6)"><g clip-path="url(#03837c6a6e)"><g clip-path="url(#0135809696)"><path fill="#c29865" d="M 238.960938 192.910156 C 237.804688 193.144531 236.675781 193.746094 235.664062 194.335938 C 233.515625 195.578125 231.664062 197.25 229.871094 198.949219 C 227.957031 200.765625 226.011719 202.535156 224.058594 204.304688 C 222.90625 205.351562 221.785156 206.4375 220.824219 207.667969 C 219.941406 208.792969 219.117188 210.058594 218.800781 211.46875 C 218.453125 213.019531 218.828125 214.6875 219.703125 216.003906 C 220.019531 215.859375 220.347656 215.703125 220.683594 215.535156 C 220.703125 215.523438 220.722656 215.515625 220.742188 215.503906 C 220.054688 214.558594 219.699219 213.378906 219.828125 212.191406 C 220.070312 209.972656 221.863281 208.019531 223.367188 206.507812 C 225.019531 204.84375 226.851562 203.371094 228.554688 201.761719 C 230.117188 200.289062 231.628906 198.757812 233.296875 197.390625 C 234.929688 196.046875 236.742188 194.800781 238.769531 194.125 C 239.195312 193.984375 239.722656 193.851562 240.132812 194.101562 C 240.570312 194.367188 240.429688 194.757812 240.25 195.140625 C 239.761719 196.207031 239.160156 197.21875 238.480469 198.171875 C 237.777344 199.164062 236.996094 200.097656 236.152344 200.972656 C 236.054688 200.890625 235.929688 200.839844 235.78125 200.835938 C 233.613281 200.8125 231.464844 201.488281 229.660156 202.683594 C 228.761719 203.28125 227.941406 204.019531 227.261719 204.855469 C 226.914062 205.273438 226.609375 205.722656 226.332031 206.1875 C 226.085938 206.613281 225.847656 207.101562 226.222656 207.53125 C 226.867188 208.273438 228.195312 208.09375 229.007812 207.796875 C 230.070312 207.402344 231.015625 206.691406 231.925781 206.042969 C 234.117188 204.484375 236.1875 202.71875 237.949219 200.683594 C 238.816406 199.675781 239.601562 198.601562 240.292969 197.460938 C 240.632812 196.886719 240.957031 196.296875 241.242188 195.691406 C 241.472656 195.207031 241.667969 194.679688 241.515625 194.144531 C 241.199219 193.039062 239.96875 192.703125 238.960938 192.910156 Z M 233.667969 203.285156 C 232.78125 204.019531 231.867188 204.710938 230.925781 205.367188 C 230.148438 205.910156 229.355469 206.503906 228.445312 206.796875 C 228.234375 206.863281 228.019531 206.910156 227.800781 206.921875 C 227.609375 206.929688 227.441406 206.867188 227.261719 206.84375 C 227.296875 206.78125 227.324219 206.726562 227.328125 206.722656 C 227.464844 206.480469 227.621094 206.25 227.785156 206.023438 C 228.390625 205.191406 229.121094 204.457031 229.957031 203.855469 C 231.480469 202.753906 233.273438 202.101562 235.140625 201.980469 C 234.664062 202.433594 234.171875 202.867188 233.667969 203.285156 Z M 233.667969 203.285156 " fill-opacity="1" fill-rule="nonzero"/></g></g></g></g><g clip-path="url(#b272567994)"><g clip-path="url(#fc779d531e)"><g clip-path="url(#2eba96a1b7)"><g clip-path="url(#3f70ed4d59)"><path fill="#471c0e" d="M 334.171875 299.996094 L 329.28125 298.019531 C 329.796875 296.742188 330.164062 295.214844 330.375 293.46875 C 330.648438 291.175781 330.632812 288.636719 330.324219 285.921875 L 330.261719 285.410156 C 328.722656 272.960938 321.941406 260.6875 312.125 252.566406 C 305.578125 247.152344 298.644531 245.351562 293.335938 244.390625 L 292.769531 244.289062 C 290.296875 243.855469 287.855469 243.558594 285.484375 243.269531 C 281.160156 242.738281 277.078125 242.238281 273.433594 241.023438 C 265.621094 238.414062 260.058594 233.339844 257.4375 230.550781 C 256.25 229.285156 255.609375 228.429688 255.539062 228.335938 L 259.777344 225.199219 C 259.777344 225.199219 260.304688 225.898438 261.289062 226.945312 C 263.566406 229.375 268.390625 233.785156 275.105469 236.023438 C 278.246094 237.074219 282.074219 237.542969 286.125 238.039062 C 288.273438 238.300781 290.480469 238.570312 292.757812 238.941406 L 292.914062 238.753906 L 294.460938 239.238281 C 300.378906 240.324219 308.078125 242.378906 315.492188 248.511719 C 325.859375 257.085938 333.160156 269.882812 335.253906 283.027344 L 335.261719 283.027344 L 335.351562 283.671875 C 335.390625 283.945312 335.429688 284.21875 335.464844 284.496094 L 335.496094 284.730469 C 335.917969 288.09375 335.953125 291.234375 335.613281 294.097656 C 335.347656 296.304688 334.863281 298.289062 334.171875 299.996094 Z M 334.171875 299.996094 " fill-opacity="1" fill-rule="nonzero"/></g></g></g></g><g clip-path="url(#00db8ca1b4)"><g clip-path="url(#cd7d4328ce)"><g clip-path="url(#7595ab6b39)"><g clip-path="url(#b437c319a0)"><path fill="#f7e7da" d="M 157.925781 19.464844 C 157.964844 19.511719 158.015625 19.554688 158.054688 19.601562 C 158.0625 19.609375 158.0625 19.609375 158.074219 19.617188 C 158.089844 19.632812 158.09375 19.652344 158.113281 19.667969 L 183.21875 47.507812 L 185.683594 50.230469 L 225.175781 94.003906 L 241.710938 112.339844 L 316.914062 195.707031 C 316.921875 195.699219 316.921875 195.714844 316.921875 195.714844 L 415.429688 304.894531 L 418.019531 307.757812 L 445.761719 338.511719 C 445.769531 338.5 445.769531 338.519531 445.769531 338.519531 L 458.332031 352.445312 L 474.605469 370.476562 L 516.65625 417.089844 C 512.953125 427.449219 506.75 441.234375 496.1875 455.425781 C 495.457031 456.417969 494.707031 457.40625 493.921875 458.402344 C 492.652344 460.011719 491.316406 461.648438 489.921875 463.269531 C 472.894531 483.089844 453.320312 494.953125 437.320312 502.035156 C 436.054688 502.597656 434.808594 503.140625 433.589844 503.644531 C 425.113281 507.140625 417.875 509.261719 412.882812 510.558594 L 366.320312 458.941406 L 349.324219 440.105469 L 225.621094 302.984375 L 223.078125 300.160156 L 133.511719 200.875 L 116.230469 181.722656 L 55.109375 113.972656 L 54.160156 112.921875 C 55.996094 108.5625 58.375 103.445312 61.441406 97.847656 C 62.054688 96.710938 62.695312 95.5625 63.375 94.398438 C 69.410156 83.96875 77.757812 72.152344 89.253906 60.636719 C 115.015625 34.828125 143.121094 23.996094 157.925781 19.464844 Z M 157.925781 19.464844 " fill-opacity="1" fill-rule="nonzero"/></g></g></g></g><g clip-path="url(#24b46574f5)"><g clip-path="url(#f454b19e59)"><g clip-path="url(#3ad5c9f101)"><g clip-path="url(#2ac5813638)"><path fill="#edc9ae" d="M 60.050781 90.4375 C 61.15625 91.765625 62.273438 93.085938 63.375 94.398438 C 65.335938 96.71875 67.292969 99.050781 69.261719 101.363281 C 71.441406 103.945312 73.617188 106.53125 75.796875 109.097656 C 77.5 111.105469 79.195312 113.105469 80.90625 115.105469 C 97.429688 134.5625 114.0625 153.921875 130.816406 173.179688 C 132.644531 175.292969 134.46875 177.386719 136.304688 179.492188 C 140.144531 183.886719 143.984375 188.277344 147.832031 192.664062 C 175.179688 223.882812 202.808594 254.863281 230.707031 285.621094 C 231.644531 286.683594 232.601562 287.726562 233.570312 288.777344 C 252.160156 309.304688 270.867188 329.714844 289.679688 350.035156 C 314.726562 377.109375 339.882812 404.117188 365.527344 430.65625 C 371.476562 436.828125 377.457031 442.980469 383.476562 449.085938 C 401.125 467.042969 419.03125 484.726562 437.320312 502.035156 C 436.054688 502.597656 434.808594 503.140625 433.589844 503.644531 C 415.472656 486.441406 397.714844 468.867188 380.210938 451.050781 C 374.214844 444.933594 368.234375 438.78125 362.28125 432.617188 C 360.171875 430.429688 358.074219 428.253906 355.972656 426.058594 C 313.949219 382.257812 272.734375 337.640625 231.988281 292.621094 C 231.078125 291.617188 230.160156 290.605469 229.242188 289.59375 C 219.671875 278.996094 210.121094 268.382812 200.585938 257.75 C 181.796875 236.800781 163.128906 215.746094 144.589844 194.582031 C 138.914062 188.101562 133.257812 181.621094 127.597656 175.121094 C 109.042969 153.78125 90.613281 132.328125 72.34375 110.742188 C 68.699219 106.445312 65.0625 102.15625 61.441406 97.847656 L 57.953125 93.714844 C 58.597656 92.652344 59.304688 91.558594 60.050781 90.4375 Z M 60.050781 90.4375 " fill-opacity="1" fill-rule="nonzero"/></g></g></g></g><g clip-path="url(#1160bac648)"><g clip-path="url(#038fc99a5b)"><g clip-path="url(#3cf84eb153)"><g clip-path="url(#af6aa3dab7)"><path fill="#471c0e" d="M 458.332031 352.449219 L 474.597656 370.476562 C 460.304688 389.398438 427.484375 425.640625 366.320312 458.9375 L 349.332031 440.105469 C 367.636719 429.9375 427.011719 394.929688 458.332031 352.449219 Z M 458.332031 352.449219 " fill-opacity="1" fill-rule="nonzero"/></g></g></g></g><g clip-path="url(#f9347b8a67)"><g clip-path="url(#f175ab0c53)"><g clip-path="url(#dfcf1cd51f)"><g clip-path="url(#79d5fbb2cf)"><path fill="#471c0e" d="M 225.175781 94.003906 L 241.710938 112.339844 C 227.0625 131.582031 194.144531 167.59375 133.511719 200.875 L 116.230469 181.722656 C 136.207031 170.519531 193.992188 135.875 225.175781 94.003906 Z M 225.175781 94.003906 " fill-opacity="1" fill-rule="nonzero"/></g></g></g></g><g clip-path="url(#a7f425cf95)"><g clip-path="url(#8536592861)"><g clip-path="url(#6bf7e822f3)"><g clip-path="url(#ed04bf2d66)"><path fill="#c29865" d="M 415.429688 304.894531 L 418.019531 307.757812 C 414.050781 309.730469 410.046875 311.644531 405.992188 313.449219 C 382.082031 324.046875 353.191406 330.628906 328.84375 317.496094 C 326.730469 316.359375 328.273438 312.972656 330.386719 314.105469 C 336.539062 317.425781 343.207031 319.488281 350.125 320.4375 C 373.167969 323.621094 395 314.9375 415.429688 304.894531 Z M 415.429688 304.894531 " fill-opacity="1" fill-rule="nonzero"/></g></g></g></g><g clip-path="url(#bf75fa8614)"><g clip-path="url(#8eeddbeb4f)"><g clip-path="url(#8a3958a107)"><g clip-path="url(#19e53008f8)"><path fill="#c29865" d="M 183.21875 47.507812 L 185.683594 50.230469 C 184.105469 51.808594 182.636719 53.480469 181.257812 55.222656 C 163.785156 77.3125 164.273438 106.851562 167.070312 133.433594 C 167.328125 135.816406 163.605469 136.136719 163.359375 133.761719 C 162.519531 125.769531 161.871094 117.761719 161.828125 109.730469 C 161.75 95.527344 163.523438 81.109375 169.3125 68.011719 C 172.691406 60.378906 177.339844 53.324219 183.21875 47.507812 Z M 183.21875 47.507812 " fill-opacity="1" fill-rule="nonzero"/></g></g></g></g><g clip-path="url(#4a060279bc)"><g clip-path="url(#e484f97081)"><g clip-path="url(#d4316a4577)"><g clip-path="url(#fec636d598)"><path fill="#c29865" d="M 239.582031 246.378906 C 238.941406 252.191406 238.300781 258.003906 237.660156 263.816406 C 236.734375 272.15625 236.359375 280.828125 233.570312 288.777344 C 233.160156 289.941406 232.699219 291.09375 232.171875 292.226562 C 232.113281 292.355469 232.046875 292.492188 231.988281 292.621094 C 230.242188 296.308594 228.058594 299.726562 225.621094 302.984375 L 223.078125 300.160156 C 225.5 296.84375 227.640625 293.339844 229.242188 289.59375 C 229.796875 288.308594 230.289062 286.988281 230.707031 285.621094 C 230.972656 284.761719 231.214844 283.890625 231.40625 283.003906 C 232.753906 277.023438 233.148438 270.808594 233.816406 264.730469 C 234.515625 258.402344 235.207031 252.082031 235.910156 245.753906 C 236.171875 243.367188 239.847656 244.011719 239.582031 246.378906 Z M 239.582031 246.378906 " fill-opacity="1" fill-rule="nonzero"/></g></g></g></g><g clip-path="url(#ff133381bd)"><g clip-path="url(#e9f88b8f9b)"><g clip-path="url(#33b6410433)"><g clip-path="url(#13cbe6be30)"><path fill="#c29865" d="M 496.1875 455.425781 C 495.457031 456.417969 494.707031 457.40625 493.921875 458.402344 C 483.582031 449.65625 468.324219 447.917969 455.054688 447.097656 C 452.652344 446.949219 453.304688 443.289062 455.671875 443.421875 C 469.570312 444.265625 485.320312 446.382812 496.1875 455.425781 Z M 496.1875 455.425781 " fill-opacity="1" fill-rule="nonzero"/></g></g></g></g><g clip-path="url(#965ba241bd)"><g clip-path="url(#8462113f6e)"><g clip-path="url(#a68bff83e3)"><g clip-path="url(#88211193b7)"><path fill="#c29865" d="M 139.570312 88.789062 C 139.570312 88.789062 137.515625 106.339844 152.351562 106.75 C 152.351562 106.75 159.113281 95.660156 139.570312 88.789062 Z M 139.570312 88.789062 " fill-opacity="1" fill-rule="nonzero"/></g></g></g></g><g clip-path="url(#dbd4cb3463)"><g clip-path="url(#42a6583add)"><g clip-path="url(#d3c7ed8b5a)"><g clip-path="url(#6f53ae9aa5)"><path fill="#c29865" d="M 214.359375 238.230469 C 214.359375 238.230469 212.304688 255.785156 227.144531 256.191406 C 227.144531 256.191406 233.90625 245.105469 214.359375 238.230469 Z M 214.359375 238.230469 " fill-opacity="1" fill-rule="nonzero"/></g></g></g></g><g clip-path="url(#5f3b2782f4)"><g clip-path="url(#79fc377a74)"><g clip-path="url(#966bf6bb88)"><g clip-path="url(#8eee8d8d9f)"><path fill="#c29865" d="M 249.199219 215.464844 C 249.199219 215.464844 233.730469 224.027344 242.054688 236.308594 C 242.054688 236.308594 255.015625 235.332031 249.199219 215.464844 Z M 249.199219 215.464844 " fill-opacity="1" fill-rule="nonzero"/></g></g></g></g><g clip-path="url(#b204cf4271)"><g clip-path="url(#d34a4a398a)"><g clip-path="url(#850c8351ad)"><g clip-path="url(#b9515abebe)"><path fill="#c29865" d="M 191.832031 79.152344 C 191.832031 79.152344 174.242188 77.265625 173.984375 92.097656 C 173.984375 92.097656 185.152344 98.746094 191.832031 79.152344 Z M 191.832031 79.152344 " fill-opacity="1" fill-rule="nonzero"/></g></g></g></g><g clip-path="url(#987f99acbc)"><g clip-path="url(#8ee5067bda)"><g clip-path="url(#63ba8397d4)"><g clip-path="url(#9d440885ef)"><path fill="#c29865" d="M 170.933594 47.730469 C 170.933594 47.730469 153.34375 45.847656 153.085938 60.675781 C 153.085938 60.675781 164.25 67.324219 170.933594 47.730469 Z M 170.933594 47.730469 " fill-opacity="1" fill-rule="nonzero"/></g></g></g></g><g clip-path="url(#825f4d100b)"><g clip-path="url(#f3776ddb58)"><g clip-path="url(#9f8502d6cf)"><g clip-path="url(#788ea7bd02)"><path fill="#c29865" d="M 258.847656 283.035156 C 258.847656 283.035156 241.261719 281.148438 241 295.976562 C 241 295.976562 252.167969 302.625 258.847656 283.035156 Z M 258.847656 283.035156 " fill-opacity="1" fill-rule="nonzero"/></g></g></g></g><g clip-path="url(#1ac2d3c513)"><g clip-path="url(#9a01bded7c)"><g clip-path="url(#89df188ac9)"><g clip-path="url(#71ec806c10)"><path fill="#c29865" d="M 381.824219 295.347656 C 381.824219 295.347656 390.589844 310.699219 402.777344 302.234375 C 402.777344 302.234375 401.632812 289.296875 381.824219 295.347656 Z M 381.824219 295.347656 " fill-opacity="1" fill-rule="nonzero"/></g></g></g></g><g clip-path="url(#00eb4bc412)"><g clip-path="url(#13aea7b48a)"><g clip-path="url(#2f51f2e3c5)"><g clip-path="url(#7fd6be20e8)"><path fill="#c29865" d="M 347.324219 302.265625 C 347.324219 302.265625 356.089844 317.617188 368.277344 309.148438 C 368.277344 309.148438 367.132812 296.214844 347.324219 302.265625 Z M 347.324219 302.265625 " fill-opacity="1" fill-rule="nonzero"/></g></g></g></g><g clip-path="url(#51957868d7)"><g clip-path="url(#6e9432a21f)"><g clip-path="url(#2c58099704)"><g clip-path="url(#ea7d73bc31)"><path fill="#c29865" d="M 383.9375 342.835938 C 383.9375 342.835938 401.304688 339.492188 397.203125 325.238281 C 397.203125 325.238281 384.578125 322.148438 383.9375 342.835938 Z M 383.9375 342.835938 " fill-opacity="1" fill-rule="nonzero"/></g></g></g></g><g clip-path="url(#898cec679e)"><g clip-path="url(#6187d929bf)"><g clip-path="url(#31299c6568)"><g clip-path="url(#28219571d4)"><path fill="#c29865" d="M 455.75 472.84375 C 455.75 472.84375 473.117188 469.5 469.015625 455.242188 C 469.015625 455.242188 456.390625 452.15625 455.75 472.84375 Z M 455.75 472.84375 " fill-opacity="1" fill-rule="nonzero"/></g></g></g></g><g clip-path="url(#04fbdfb890)"><g clip-path="url(#33d42763dd)"><g clip-path="url(#c470d1b98c)"><g clip-path="url(#c9d2d5e33f)"><path fill="#c29865" d="M 348.324219 347.402344 C 348.324219 347.402344 365.691406 344.054688 361.589844 329.800781 C 361.589844 329.800781 348.964844 326.710938 348.324219 347.402344 Z M 348.324219 347.402344 " fill-opacity="1" fill-rule="nonzero"/></g></g></g></g><g clip-path="url(#c2934c0869)"><g clip-path="url(#90605ba836)"><g clip-path="url(#d04bbab6fa)"><g clip-path="url(#7ad2738f1d)"><path fill="#c29865" d="M 305.816406 293.285156 C 305.816406 293.285156 305.882812 310.957031 320.664062 309.585938 C 320.664062 309.585938 326.042969 297.765625 305.816406 293.285156 Z M 305.816406 293.285156 " fill-opacity="1" fill-rule="nonzero"/></g></g></g></g><g clip-path="url(#dc7e1c4db6)"><g clip-path="url(#fca775a31c)"><g clip-path="url(#a660f68761)"><g clip-path="url(#0b9e5bea9e)"><path fill="#c29865" d="M 423.671875 443.386719 C 423.671875 443.386719 436.335938 455.726562 445.710938 444.226562 C 445.710938 444.226562 441.039062 432.109375 423.671875 443.386719 Z M 423.671875 443.386719 " fill-opacity="1" fill-rule="nonzero"/></g></g></g></g><g clip-path="url(#016436c37a)"><g clip-path="url(#2f89169663)"><g clip-path="url(#57a5290b2d)"><g clip-path="url(#425cf73c45)"><path fill="#c29865" d="M 474.6875 422.199219 C 474.6875 422.199219 474.753906 439.871094 489.535156 438.5 C 489.535156 438.5 494.914062 426.679688 474.6875 422.199219 Z M 474.6875 422.199219 " fill-opacity="1" fill-rule="nonzero"/></g></g></g></g><g clip-path="url(#5ab009db0a)"><g clip-path="url(#ca8c62f884)"><g clip-path="url(#f855dfea78)"><g clip-path="url(#9a249cd132)"><path fill="#edc9ae" d="M 157.925781 19.464844 C 157.964844 19.511719 158.015625 19.554688 158.054688 19.601562 C 158.0625 19.609375 158.0625 19.609375 158.074219 19.617188 C 164.5 26.921875 146.363281 53.652344 117.492188 79.359375 C 102.589844 92.617188 87.746094 103.015625 75.980469 108.992188 C 75.921875 109.023438 75.851562 109.046875 75.796875 109.097656 C 74.6875 109.644531 73.605469 110.164062 72.5625 110.632812 C 72.496094 110.675781 72.417969 110.707031 72.34375 110.742188 C 64.597656 114.238281 58.527344 115.488281 55.109375 113.972656 C 54.449219 113.679688 53.894531 113.28125 53.441406 112.773438 C 50.601562 109.585938 52.5 102.65625 57.953125 93.714844 C 58.597656 92.652344 59.304688 91.558594 60.050781 90.4375 C 67.355469 79.511719 79.296875 66.136719 94.011719 53.023438 C 122.707031 27.46875 151.195312 12.523438 157.925781 19.464844 Z M 157.925781 19.464844 " fill-opacity="1" fill-rule="nonzero"/></g></g></g></g><g clip-path="url(#8023ec8c52)"><g clip-path="url(#01a2a335a1)"><g clip-path="url(#83892e9c33)"><g clip-path="url(#238f37bf79)"><path fill="#c29865" d="M 136.066406 34.449219 C 132.253906 35.226562 128.527344 37.210938 125.199219 39.15625 C 118.117188 43.253906 112 48.773438 106.09375 54.371094 C 99.777344 60.359375 93.363281 66.199219 86.921875 72.046875 C 83.125 75.492188 79.421875 79.082031 76.253906 83.132812 C 73.351562 86.84375 70.628906 91.027344 69.585938 95.675781 C 68.441406 100.792969 69.671875 106.289062 72.5625 110.632812 C 73.605469 110.164062 74.6875 109.644531 75.796875 109.097656 C 75.851562 109.046875 75.921875 109.023438 75.980469 108.992188 C 73.71875 105.871094 72.542969 101.972656 72.972656 98.054688 C 73.769531 90.738281 79.683594 84.304688 84.644531 79.308594 C 90.085938 73.820312 96.140625 68.957031 101.753906 63.648438 C 106.898438 58.789062 111.894531 53.738281 117.386719 49.230469 C 122.773438 44.800781 128.75 40.683594 135.441406 38.460938 C 136.839844 37.996094 138.582031 37.558594 139.933594 38.382812 C 141.371094 39.261719 140.910156 40.542969 140.316406 41.8125 C 138.707031 45.320312 136.726562 48.667969 134.484375 51.8125 C 132.164062 55.085938 129.585938 58.160156 126.808594 61.046875 C 126.484375 60.777344 126.070312 60.609375 125.578125 60.601562 C 118.433594 60.519531 111.34375 62.75 105.394531 66.695312 C 102.429688 68.667969 99.726562 71.101562 97.484375 73.855469 C 96.34375 75.234375 95.339844 76.722656 94.425781 78.257812 C 93.613281 79.652344 92.832031 81.265625 94.058594 82.679688 C 96.191406 85.128906 100.566406 84.546875 103.242188 83.5625 C 106.742188 82.265625 109.859375 79.917969 112.871094 77.773438 C 120.097656 72.632812 126.921875 66.8125 132.730469 60.09375 C 135.59375 56.773438 138.179688 53.222656 140.457031 49.460938 C 141.585938 47.570312 142.648438 45.625 143.59375 43.628906 C 144.351562 42.027344 145 40.289062 144.488281 38.515625 C 143.453125 34.878906 139.390625 33.765625 136.066406 34.449219 Z M 118.609375 68.683594 C 115.691406 71.101562 112.675781 73.382812 109.570312 75.546875 C 107 77.332031 104.386719 79.289062 101.386719 80.261719 C 100.699219 80.480469 99.988281 80.632812 99.261719 80.667969 C 98.636719 80.699219 98.082031 80.492188 97.492188 80.421875 C 97.597656 80.21875 97.6875 80.03125 97.703125 80.015625 C 98.160156 79.214844 98.667969 78.457031 99.210938 77.710938 C 101.207031 74.960938 103.621094 72.546875 106.375 70.558594 C 111.398438 66.921875 117.3125 64.777344 123.46875 64.375 C 121.898438 65.863281 120.277344 67.292969 118.609375 68.683594 Z M 118.609375 68.683594 " fill-opacity="1" fill-rule="nonzero"/></g></g></g></g><g clip-path="url(#6f3106532c)"><g clip-path="url(#afdd99f017)"><g clip-path="url(#65603c8060)"><g clip-path="url(#486978df47)"><path fill="#471c0e" d="M 450.011719 387.695312 L 433.886719 381.171875 C 435.589844 376.96875 436.800781 371.917969 437.492188 366.167969 C 438.394531 358.597656 438.339844 350.226562 437.335938 341.269531 L 437.125 339.574219 C 432.042969 298.515625 409.6875 258.015625 377.324219 231.238281 C 355.738281 213.375 332.875 207.441406 315.371094 204.265625 L 313.496094 203.925781 C 305.347656 202.507812 297.289062 201.523438 289.476562 200.566406 C 275.21875 198.824219 261.753906 197.175781 249.734375 193.15625 C 223.972656 184.554688 205.632812 167.820312 196.996094 158.613281 C 193.078125 154.441406 190.957031 151.617188 190.730469 151.308594 L 204.703125 140.957031 C 204.710938 140.964844 206.445312 143.277344 209.683594 146.722656 C 217.203125 154.738281 233.113281 169.28125 255.246094 176.671875 C 265.605469 180.136719 278.226562 181.679688 291.585938 183.3125 C 298.671875 184.179688 305.953125 185.070312 313.457031 186.292969 L 313.972656 185.675781 L 319.078125 187.273438 C 338.59375 190.855469 363.976562 197.625 388.421875 217.851562 C 422.613281 246.140625 446.679688 288.355469 453.582031 331.714844 L 453.613281 331.722656 L 453.90625 333.835938 C 454.039062 334.742188 454.164062 335.652344 454.28125 336.558594 L 454.390625 337.34375 C 455.769531 348.433594 455.890625 358.792969 454.765625 368.234375 C 453.894531 375.519531 452.296875 382.066406 450.011719 387.695312 Z M 450.011719 387.695312 " fill-opacity="1" fill-rule="nonzero"/></g></g></g></g></svg>